<?xml version="1.0" encoding="utf-8"?>
<!-- Generator: Adobe Illustrator 19.2.1, SVG Export Plug-In . SVG Version: 6.00 Build 0)  -->
<svg version="1.1" id="Layer_1" xmlns="http://www.w3.org/2000/svg" xmlns:xlink="http://www.w3.org/1999/xlink" x="0px" y="0px"
	 viewBox="0 0 9 22" style="enable-background:new 0 0 9 22;" xml:space="preserve">
<style type="text/css">
	.st0{display:none;}
	.st1{display:inline;fill:#39435B;}
	.st2{display:none;fill:#3A445B;}
	.st3{display:inline;fill:#3A445B;}
	.st4{fill:#222324;}
	.st5{fill:#7DCFDA;}
</style>
<g class="st0">
	<path class="st1" d="M28.6,19.7h2.1v-5.8c0-1.7-1.1-2.1-2.4-2.4c-0.1,0-0.2,0-0.3-0.1c-3.1-0.6-3.7-1.2-3.8-1.5
		c-1.4-5.3-5.5-5.3-8.5-5.3h-1.9v14.2h-1.5V0.3h-34v19.4h1.7v0.2c0.3,1.1,1.2,1.8,2.3,1.8s2-0.7,2.3-1.8v-0.2h0.9v0.2
		c0.3,1.1,1.2,1.8,2.3,1.8s2-0.7,2.3-1.8v-0.2h9.2v0.2c0.3,1.1,1.2,1.8,2.3,1.8s2-0.7,2.3-1.8v-0.2h0.9v0.2C5.1,21,6,21.7,7.1,21.7
		s2-0.7,2.3-1.8v-0.2h13.9l0.1,0.2c0.3,1,1.2,1.7,2.3,1.7c1,0,2-0.7,2.3-1.7L28.6,19.7z M-17.6,20.8c-0.8,0-1.5-0.7-1.5-1.5
		s0.7-1.5,1.5-1.5c0.8,0,1.5,0.7,1.5,1.5C-16,20.1-16.7,20.8-17.6,20.8 M-11.9,20.8c-0.8,0-1.5-0.7-1.5-1.5s0.7-1.5,1.5-1.5
		s1.5,0.7,1.5,1.5C-10.4,20.1-11.1,20.8-11.9,20.8 M2,20.8c-0.8,0-1.5-0.7-1.5-1.5s0.7-1.5,1.5-1.5s1.5,0.7,1.5,1.5
		C3.5,20.1,2.9,20.8,2,20.8 M7.8,20.8c-0.8,0-1.5-0.7-1.5-1.5s0.7-1.5,1.5-1.5s1.5,0.7,1.5,1.5C9.3,20.1,8.5,20.8,7.8,20.8
		 M11.3,18.8H10v-0.2c-0.3-1.1-1.2-1.8-2.3-1.8s-2.1,0.7-2.3,1.8v0.2H4.5v-0.2c-0.3-1.1-1.2-1.8-2.3-1.8s-2.1,0.7-2.3,1.8v0.2h-9.2
		v-0.2c-0.2-1.1-1.1-1.8-2.2-1.8s-2.1,0.7-2.3,1.8v0.2h-0.9v-0.2c-0.3-1.1-1.2-1.8-2.3-1.8s-2.1,0.7-2.3,1.8v0.2h-1.5V1.2h32.1
		L11.3,18.8L11.3,18.8z M26.3,20.7c-0.8,0-1.5-0.7-1.5-1.5s0.7-1.5,1.5-1.5s1.5,0.7,1.5,1.5S27.1,20.7,26.3,20.7 M26.3,16.8
		c-1.1,0-2.1,0.8-2.4,1.9v0.2h-9.4V5.6h1c3.1,0,6.4,0,7.6,4.7c0.3,1.2,2.4,1.7,4.5,2.1c0.1,0,0.2,0,0.3,0.1c1.1,0.3,1.6,0.5,1.7,1.3
		v0.3H29c-0.2,0-0.4,0.2-0.4,0.4s0.2,0.4,0.4,0.4h0.7V16H29c-0.2,0-0.4,0.2-0.4,0.4s0.2,0.4,0.4,0.4h0.7v2.1h-1.1v-0.2
		C28.5,17.6,27.5,16.8,26.3,16.8"/>
</g>
<g class="st0">
	<path class="st1" d="M18.6,17.6c-0.5,0-1,0.1-1.5,0.3H17l-0.7-1.3H22c0.4,0,0.8-0.3,0.8-0.8v-0.2c0-1.8-1.3-3.3-3.1-3.6l-3.6-0.5
		v-0.1c-0.1-0.5-0.2-1-0.4-1.5L15,8.7c0-0.1-0.1-0.2-0.3-0.2c-0.1,0-0.3,0-0.4,0c-0.1,0.1-0.2,0.2-0.2,0.3s0,0.3,0,0.4l0.7,1.3
		c0.4,0.7,0.5,1.5,0.3,2.2l-1.3,5.6c-0.5,2.1-2.3,3.5-4.4,3.5H3.6c-1.3,0-2.5-0.9-2.8-2.1v-0.1h1.5c0.3,0,0.5-0.2,0.5-0.5
		s-0.2-0.5-0.5-0.5h-14.7l0.1-0.5c0.9-4.2,4.6-7.2,8.9-7.2h0.5c0.3,0,0.5-0.2,0.5-0.5s-0.2-0.5-0.5-0.5h-0.5c-0.7,0-1.5,0.1-2.2,0.3
		h-0.1V10c0-0.4-0.3-0.7-0.7-0.7c-0.2,0-0.3-0.1-0.5-0.2C-7,9-7.1,8.8-7.1,8.6C-7.1,8.3-6.8,8-6.4,8h11c0.6,0,1,0.4,1,1v1.5
		l-0.1-0.1c-0.5-0.3-1-0.5-1.6-0.5h-4.2c-0.3,0-0.5,0.2-0.5,0.5s0.2,0.5,0.5,0.5h4.2c0.5,0,1,0.2,1.3,0.6s0.4,0.9,0.3,1.4l-1.1,5.5
		c0,0.2,0,0.3,0.1,0.4l0,0C4.6,18.9,4.7,19,4.9,19h4.5c0.9,0,1.6-0.6,1.8-1.4l1-4.3c0.2-1,0.1-2-0.4-2.9L8.4,4h0.5
		c0.5,0,0.8-0.4,0.8-0.8V2c0-0.4-0.2-0.7-0.6-0.8H8.9L10.8,0c0.3-0.2,0.7-0.3,1-0.2c0.4,0.1,0.7,0.3,0.8,0.6C13,1,12.8,1.8,12.2,2.2
		l-0.7,0.5c-0.4,0.2-0.5,0.7-0.3,1.1L12.9,7c0.2,0.2,0.4,0.3,0.6,0.2c0.2-0.1,0.3-0.4,0.2-0.6l-1.5-3.1l0.7-0.4c1-0.7,1.3-2,0.7-3.1
		c-0.3-0.5-0.8-0.9-1.4-1.1s-1.3,0-1.8,0.3L7.9,0.8C7.8,0.9,7.7,1,7.5,1.2l0,0H7v-2.7c0-0.3-0.3-0.6-0.6-0.6H6l0,0
		C5.8-3.3,4.8-4.2,3.6-4.2c-1.3,0-2.4,1.1-2.4,2.4s1.1,2.4,2.4,2.4c1,0,1.8-0.6,2.2-1.4l0.1-0.3v2.3H4.5c-0.8,0-1.4,0.6-1.4,1.4
		S3.7,4,4.5,4h2.8l0,0l3.6,6.8c0.4,0.7,0.5,1.5,0.3,2.2l-1,4.3C10.1,17.7,9.7,18,9.3,18h-4l1.1-5c0-0.2,0.1-0.4,0.1-0.6V8.9
		C6.5,7.8,5.6,7,4.6,7h-11C-7.3,7-8,7.7-8,8.5c0,0.4,0.1,0.9,0.4,1.2c0.2,0.3,0.5,0.4,0.9,0.5h0.1v0.2h-0.1c-1.1,0.4-2.1,1-3,1.7
		c-1.8,1.5-3,3.5-3.5,5.7l-0.2,1c0,0.1-0.4,1.4-0.6,2.3c-0.1,0.3,0,0.7,0.2,0.9c0.2,0.3,0.5,0.4,0.8,0.4l0,0c0.3,0,0.7-0.2,0.9-0.4
		l1.8-2.5h1l-0.1,0.1c-0.4,0.7-0.7,1.5-0.7,2.3c0,2.4,2,4.4,4.3,4.4s4.2-1.8,4.3-4.1l0,0l2-0.8l0,0c0.7,0.8,1.8,1.2,2.8,1.2h5.8
		c2.6,0,4.8-1.8,5.3-4.2l0.4-1.9H15l0,0l0.8,1.7l0,0c-1.2,0.8-1.9,2.2-1.9,3.6c0,2.4,2,4.4,4.4,4.4s4.3-2,4.3-4.4
		C23,19.5,21,17.6,18.6,17.6z M3.6-0.3C2.9-0.3,2.1-1,2.1-1.8s0.7-1.5,1.5-1.5s1.5,0.7,1.5,1.5S4.5-0.3,3.6-0.3z M4.6,3.1
		c-0.3,0-0.5-0.2-0.5-0.5s0.2-0.5,0.5-0.5h4.2v1H4.6z M-12.9,21.4L-12.9,21.4c-0.2,0-0.2,0-0.2,0v-0.1l0.5-1.8h1.2L-12.9,21.4z
		 M-2.2,22.7c-0.4,1.5-1.7,2.6-3.3,2.6c-1.9,0-3.4-1.5-3.4-3.4c0-0.9,0.3-1.8,1-2.4l0,0h3.5l-1.7,0.7c-0.4,0.2-0.8,0.5-1,1
		c-0.2,0.5-0.2,1,0,1.4c0.3,0.7,1,1.2,1.7,1.2c0.2,0,0.4,0,0.7-0.1l2.7-1C-2,22.7-2.2,22.7-2.2,22.7z M-1.9,21.4L-1.9,21.4l-3.4,1.3
		c-0.1,0-0.2,0.1-0.3,0.1s-0.3,0-0.4-0.1c-0.2-0.1-0.4-0.3-0.5-0.5c-0.2-0.5,0-1,0.5-1.2l4-1.5h1.7v0.1c0.1,0.3,0.2,0.7,0.3,1v0.1
		L-1.9,21.4z M15.5,15.6l0.7-2.8c0-0.1,0-0.2,0.1-0.3v-0.1h0.1l3.4,0.5c1.3,0.2,2.3,1.3,2.3,2.6v0.1C22,15.6,15.5,15.6,15.5,15.6z
		 M18.6,25.3c-1.9,0-3.4-1.5-3.4-3.4c0-1.1,0.5-2.1,1.4-2.7l0.1-0.1l0.6,1.3l0,0c-0.4,0.4-0.6,0.9-0.6,1.5c0,1.1,0.9,2,2,2
		s2-0.9,2-2c0-1.3-1.2-2.3-2.5-2h-0.1l-0.6-1.3h0.1c0.3-0.1,0.7-0.2,1.1-0.2c1.9,0,3.4,1.5,3.4,3.4S20.5,25.3,18.6,25.3z M19,21.7
		l-0.4-0.9h0.1c0.6,0,1,0.5,1,1.1S19.2,23,18.6,23s-1.1-0.5-1.1-1.1c0-0.2,0-0.3,0.1-0.5l0.1-0.1l0.4,0.8c0.1,0.2,0.2,0.3,0.4,0.3
		c0.1,0,0.1,0,0.2,0C19,22.2,19.1,21.9,19,21.7z"/>
</g>
<path class="st2" d="M23.1,17.2c-0.7-1.5-1.9-2.7-3.5-3.3c-1.3-0.5-2.8-0.7-4.2-0.5l0,0v-0.1L14.8,12v-1.8h0.1
	c0.3,0.1,0.6,0.2,1,0.2h2c0.7,0,1.2-0.5,1.2-1.2V6c0-0.7-0.5-1.2-1.2-1.2h-2c-0.3,0-0.6,0-1,0.2h-0.1V3c0-0.3-0.1-0.6-0.2-0.8
	c-0.2-0.5-0.7-0.8-1.2-1l0,0l0,0l-0.9-2l0,0C12.8-1,13-1.3,13-1.7v-1c0-0.6-0.4-1-1.1-1.1L9.1-4.3c-0.3,0-0.6,0-0.8,0.2
	C8-3.9,7.9-3.5,7.9-3.2v1.5c0,0.6,0.5,1.1,1.1,1.1h2.5l0.8,1.8h-0.1H9.4c-1,0-1.6,0.7-1.6,1.5s0.5,1.6,1.5,1.6l2.3,0.1v2l-0.1,0.1
	c-0.4-0.3-1-0.6-1.7-0.8C7.1,5,3.2,5.5,1.8,7.4l0,0h-4.4c-0.3,0-0.5,0.2-0.5,0.5s0.2,0.5,0.5,0.5h4.2v3.1h-13.7
	c-0.8,0-1.3-0.4-1.3-1V8.1c0-0.3,0.1-0.5,0.2-0.7c0.2-0.2,0.5-0.3,0.8-0.2h1c0.2,0,0.5,0.2,0.8,0.5c0.3,0.3,0.8,0.7,1.4,0.8v0.1V8.5
	h4c0.3,0,0.5-0.2,0.5-0.5s-0.2-0.5-0.5-0.5H-9c-0.3,0-0.5-0.2-0.8-0.5c-0.4-0.3-0.8-0.8-1.4-0.8h-1c-0.6,0-1.2,0.1-1.6,0.5
	c-0.2,0.2-0.5,0.7-0.5,1.4v2.4c0,1.2,0.9,2,2.2,2h3.9l-0.2,0.9h-0.1c-2.4,0-5.2,1.2-5.9,3.7c-0.2,0.9-0.2,1.5,0.1,1.9
	c0.1,0.1,0.2,0.2,0.4,0.3l0,0v0.1c-0.1,0.4-0.1,0.8-0.1,1.1c0,3.2,2.6,5.8,5.8,5.8c2.7,0,5.1-1.9,5.7-4.5v-0.1h2.6
	c0.3,0,0.5-0.2,0.5-0.5s-0.2-0.5-0.5-0.5h-6.6v-0.1c0.1-0.2,0.1-0.3,0.1-0.5l0.2-0.8h9.7c0.8,0,1.2-0.2,1.7-0.9l4.4-6h2l-0.1,0.1
	L6,19.6l0,0c-0.6,1-1.3,1-1.5,1H2.3c-0.3,0-0.5,0.2-0.5,0.5s0.2,0.5,0.5,0.5h2.2c0.9,0,1.7-0.5,2.3-1.4l5.3-6.7l0.5,1h-0.1
	c-1,0.7-1.7,1.6-2.1,2.6c-0.3,0.8-0.3,1.5,0,1.9c0.1,0.2,0.3,0.3,0.5,0.4H11l0,0c0,0.3,0,0.5,0,0.8c0,3.2,2.6,5.8,5.8,5.8
	s5.8-2.6,5.8-5.8c0-0.3,0-0.5,0-0.8v-0.1h0.1c0.3-0.1,0.5-0.3,0.6-0.5C23.6,18.5,23.3,17.6,23.1,17.2z M14.8,6.3L14.8,6.3
	c0.3-0.2,0.7-0.3,1-0.3h2C17.9,6,18,6.1,18,6.2v3.2c0,0.1-0.1,0.2-0.2,0.2h-2c-0.4,0-0.7-0.1-1-0.3l0,0V6.3z M12-1.6
	c0,0.1-0.1,0.2-0.2,0.2H9c-0.1,0-0.2-0.1-0.2-0.2v-1.5c0-0.1,0-0.1,0-0.2l0,0l2.8,0.5c0.1,0,0.3,0.1,0.3,0.2v1
	C11.9-1.6,12-1.6,12-1.6z M-13.2,18.4L-13.2,18.4c-0.2,0-0.2,0-0.2,0c-0.1-0.1-0.1-0.4,0-1c0.4-1.6,2.4-2.8,4.7-2.9h0.1l-0.9,4h-3.7
	C-13.2,18.4-13.2,18.4-13.2,18.4z M-5.2,21.7L-5.2,21.7h1.7v0.1c-0.6,2.1-2.5,3.5-4.7,3.5c-2.7,0-4.8-2.2-4.8-4.8c0-0.3,0-0.7,0.1-1
	v-0.1h1.8v0.1c-0.1,0.3-0.2,0.7-0.2,1c0,1.7,1.4,3.2,3.1,3.2C-6.9,23.6-5.7,22.8-5.2,21.7z M-6.2,21.6l-0.1,0.1
	c-0.4,0.5-1,0.9-1.7,0.9c-1.2,0-2.2-1-2.2-2.2c0-0.4,0.1-0.7,0.3-1.1l0,0h0.4v0.1h-0.1h0.1c-0.2,1.2,0.5,2,1.3,2.1h0.1H-8L-6.2,21.6
	z M-6,14.3l-1.3,5.6h-0.1h0.1c-0.1,0.6-0.5,0.7-0.8,0.7h-0.1c-0.2,0-0.7-0.2-0.5-1l1.5-7.2h1.7L-6,14.3L-6,14.3L-6,14.3z M-2.9,18.4
	h-3l0.7-3.3l0.1,0.1c0.9,0.5,1.5,1.3,1.9,2.2C-3.1,17.6-3,18-2.9,18.4L-2.9,18.4z M-2.7,16.2c-0.5-0.9-1.3-1.6-2.2-2l0,0l0.4-1.7H1
	L-2.7,16.2L-2.7,16.2z M4.4,17.9c-0.3,0.4-0.4,0.4-0.9,0.4H2.8v-0.1c0-0.1,0-0.2,0-0.3c0-0.3,0.1-0.5,0.3-0.7s0.5-0.3,0.8-0.3
	c0.4,0,0.8,0.2,1,0.5l0,0L4.4,17.9z M7.8,13.5H4.3c-0.3,0-0.5,0.2-0.5,0.5s0.2,0.5,0.5,0.5h2.8l-1.6,2.2l-0.1-0.1
	C5,16.2,4.5,16,3.9,16s-1.1,0.2-1.5,0.6S1.7,17.4,1.7,18c0,0.1,0,0.3,0,0.4v0.1H-2v-0.1c0-0.4-0.1-0.7-0.2-1l0,0l4.4-4.8h6.1
	L7.8,13.5z M11.6,11.5H2.5V8.1l0,0c1.1-1.6,4.6-2,7-1.4c0.6,0.2,2.1,0.7,2.1,1.7V11.5z M12.3,3.6L9.5,3.4C9,3.4,8.9,3.1,8.9,2.8
	c0-0.1,0.1-0.5,0.6-0.5h3.7c0.3,0,0.5,0.2,0.7,0.4l0,0c0,0.1,0.1,0.2,0.1,0.4v9.1c0,0.1,0,0.1,0,0.2l0.8,1.7l0,0l2.6,5.5
	c0.2,0.4,0,0.7-0.2,0.7c-0.1,0-0.2,0.1-0.3,0.1c-0.2,0-0.3-0.1-0.4-0.2l-3.8-7.7V4.1C12.6,3.8,12.5,3.6,12.3,3.6z M18.3,19.8v-0.1
	h0.5v0.1c0.1,0.2,0.1,0.5,0.1,0.7c0,1.2-1,2.2-2.2,2.2s-2.2-1-2.2-2.2c0-0.2,0-0.5,0.1-0.7v-0.1H15l0.5,1.1c0.2,0.5,0.7,0.8,1.3,0.8
	c0.3,0,0.5-0.1,0.7-0.2C18,21.2,18.5,20.6,18.3,19.8z M11.3,18.6c0,0-0.1-0.1-0.1-0.3c0-0.2,0-0.4,0.2-0.7c0.3-0.8,0.8-1.5,1.6-2.1
	h0.1v0.1l1.5,3.2h-2.9C11.5,18.7,11.3,18.7,11.3,18.6z M16.8,25.3c-2.7,0-4.8-2.2-4.8-4.8c0-0.2,0-0.5,0.1-0.7v-0.1h1.7v0.1
	c0,0.2-0.1,0.4-0.1,0.6c0,1.7,1.4,3.2,3.1,3.2s3.2-1.4,3.2-3.2c0-0.2,0-0.4-0.1-0.6v-0.1h1.7v0.1c0,0.2,0,0.5,0,0.7
	C21.6,23.1,19.5,25.3,16.8,25.3z M22.5,18.6c-0.1,0.1-0.3,0.1-0.5,0.1h-4l0,0l-2-4.3h0.1c2.1-0.2,5.1,0.5,6.3,3.3
	C22.5,18,22.5,18.4,22.5,18.6z"/>
<g class="st0">
	<path class="st3" d="M18.5,26.1c2.4,0,4.3-1.9,4.3-4.3v-0.5h0.9c0.2,0,0.3-0.1,0.3-0.2c0.1-0.1,0.1-0.2,0.1-0.3l0,0
		c-0.4-2.6-2.4-4.5-5-4.8h-0.2v-0.2c1-5.5-0.2-11.5-3.2-15.7l-0.1-0.2l0.2-0.1c1.6-0.5,2.6-1.9,2.6-3.5c0-0.3-0.2-0.4-0.4-0.4H-9
		c-2.8,0-5.1,2.3-5.1,5.1v16.9V18c-0.8,0.8-1.3,1.9-1.5,3l0,0c0,0.1,0,0.2,0.1,0.3c0.1,0.1,0.2,0.2,0.4,0.2h1v0.2
		c-0.1,1.2,0.3,2.4,1.2,3.3c0.8,0.9,1.9,1.4,3.1,1.4s2.3-0.5,3.1-1.4s1.2-2.1,1.2-3.3v-0.2H14V22C14.3,24.2,16.3,26.1,18.5,26.1
		 M22,21.7c0,2-1.5,3.5-3.4,3.5c-1,0-1.9-0.4-2.6-1.1s-1-1.7-0.9-2.6v-0.2h0.2c0.2,0,0.2,0,0.3,0c0.2,0,1,0,6.1-0.1h0.2L22,21.7
		C21.9,21.7,22,21.7,22,21.7z M19,16.8h0.2c1.9,0.2,3.5,1.5,4.1,3.3l0.1,0.2h-5.5L18,20C18.3,19,18.7,17.9,19,16.8L19,16.8z
		 M18.5,10L18.5,10v0.2h-4.7V-0.2h1l0.1,0.1C16.8,2.5,18.3,6.2,18.5,10 M-13,0.9c0-2.3,1.9-4.2,4.2-4.2h26.4l-0.1,0.2
		C17.3-1.9,16.1-1,14.8-1H-2.7c-1,0-1.9,0.9-1.9,1.9v9.4H-13C-13,10.3-13,0.9-13,0.9z M4.8,11v-0.2H4.5V9.5H9V11H4.8z M7.8,17.8H4.5
		v-5.9h3.2v5.9H7.8z M8.6,11.9h0.2c0.6,0,1-0.4,1-1V9.7c0-0.6-0.4-1-1-1H4.4v-8.8h8.4v17.9H8.5L8.6,11.9L8.6,11.9z M3.6-0.2v17.9
		h-4.1l0,0l-1.1-6c-0.2-0.8-1-1.5-2-1.5h-0.2V0.9c0-0.5,0.5-1,1-1L3.6-0.2L3.6-0.2z M-7.1,24.1c-0.7,0.7-1.6,1.1-2.5,1.1
		c-1,0-1.9-0.4-2.5-1.1c-0.7-0.7-1-1.7-0.9-2.7v-0.2h6.8v0.2C-6.1,22.4-6.4,23.4-7.1,24.1 M-14.4,20.4l0.1-0.2
		c0.7-2,2.6-3.4,4.7-3.4s4,1.4,4.7,3.4l0.1,0.2H-14.4z M-2.2,20.4L-2.2,20.4c-0.6,0-1,0-1.3,0H-4v-0.1c-0.7-2.6-3-4.4-5.6-4.4
		c-1.1,0-2.2,0.3-3.1,0.9L-13,17v-5.9h0.3V11h0.1v0.1h9c0.6,0,1,0.4,1.1,0.9l1.2,6.4c0,0.2,0.2,0.3,0.4,0.3h14.2
		c0.3,0,0.4-0.2,0.4-0.4v-7.2h4.8v0.2c0.1,3.1-0.5,6.3-1.8,9l-0.1,0.1h-0.1C5.1,20.4,0,20.4-2.2,20.4"/>
</g>
<g class="st0">
	<path class="st1" d="M25,21.4v-2.1c0-0.3-0.2-0.5-0.5-0.5S24,19,24,19.3v2.1c0,0.3-0.2,0.5-0.5,0.5h-0.9v-0.1
		c-0.4-1.9-2-3.2-3.9-3.2h-4.9c-0.3,0-0.5-0.2-0.5-0.5V8.9c0-0.3,0.2-0.5,0.5-0.5h2.1v4c0,1.2,0.9,2.1,2.1,2.1h6v2
		c0,0.3,0.2,0.5,0.5,0.5c0.3,0,0.5-0.2,0.5-0.5v-4.1c0-2.7-2.2-4.9-4.9-4.9h-6.3c-0.8,0-1.5,0.7-1.5,1.5v6.8h-2v-1.3
		c0-0.9-0.4-1.7-1.1-2.2l-0.1-0.1l0.4-0.5c0.4-0.5,0.5-1.1,0.4-1.7l-1-4.1C8.7,4.9,8.1,4,7.3,3.4l-8.4-6.7c-0.8-0.6-1.8-1-2.9-1
		h-4.2c-0.6,0-1.2,0.3-1.6,0.8l-3.3,4.2c-0.4,0.5-0.5,1.1-0.4,1.7l1,4.1c0.2,1,0.8,1.9,1.6,2.5l3.3,2.6l-2.1,4.2h-1.2
		c-1.3,0-2.4,0.7-3,1.9l-2,4.2c-0.1,0.2-0.1,0.5,0,0.7s0.4,0.3,0.6,0.3h2.8V23c0,0.1,0,0.1,0,0.2c0,1.7,1.4,3.1,3.1,3.1
		s3.1-1.4,3.1-3.1c0-0.1,0-0.1,0-0.2v-0.1h1V23c0,0.1,0,0.1,0,0.2c0,1.7,1.4,3.1,3.1,3.1s3.1-1.4,3.1-3.1c0-0.1,0-0.1,0-0.2v-0.1h5
		V23C6,23.6,6.4,24,7,24h2.5c0.6,0,1.1-0.4,1.1-1v-0.1h4.1V23c0,0.1,0,0.1,0,0.2c0,1.7,1.4,3.1,3.1,3.1s3.1-1.4,3.1-3.1
		c0-0.1,0-0.1,0-0.2v-0.1h2.4C24.3,22.9,25,22.2,25,21.4 M16.8,8.4h3.3c2.2,0,4,1.8,4,4v1.2H18c-0.6,0-1.2-0.5-1.2-1.2
		C16.8,12.4,16.8,8.4,16.8,8.4z M9.3,14.5v1.2h-3L8.5,13l0.1,0.1C9,13.4,9.3,14,9.3,14.5 M-11.4,7l-0.1-0.2
		c-0.1-0.2-0.1-0.4-0.2-0.5l-1-4.1c-0.1-0.3,0-0.7,0.2-0.9l3.3-4.2C-9-3.2-8.7-3.3-8.3-3.3h4.2c0.2,0,0.4,0,0.6,0h0.2L-11.4,7z
		 M-10.4,8.3c-0.1-0.1-0.3-0.2-0.4-0.4l-0.1-0.1l0.1-0.1L-2.4-3l0.1,0.1C-2.1-2.8-2-2.7-1.8-2.6l8.5,6.7C6.8,4.2,7,4.3,7.1,4.5
		l0.1,0.1L5.8,6.4C5.6,6.6,5.7,6.9,5.9,7.1S6.5,7.2,6.7,7L8,5.4l0.1,0.2C8.2,5.8,8.2,6,8.3,6.1l1,4.1c0.1,0.3,0,0.7-0.2,0.9
		l-3.3,4.2c-0.2,0.3-0.5,0.4-0.9,0.4H0.7c-0.2,0-0.4,0-0.6,0h-0.2L5,9.2C5.1,9.1,5.1,9,5.1,8.9S5,8.7,4.9,8.6
		C4.7,8.4,4.4,8.5,4.2,8.7l-5.3,6.7l-0.1-0.1c-0.3-0.1-0.4-0.2-0.6-0.3L-10.4,8.3z M-7,12.2l4.6,3.6h-6.4L-7,12.2z M-9.4,25.4
		c-1.2,0-2.2-1-2.2-2.2s1-2.2,2.2-2.2s2.2,1,2.2,2.2S-8.2,25.4-9.4,25.4 M-2.2,25.4c-1.2,0-2.2-1-2.2-2.2s1-2.2,2.2-2.2S0,22,0,23.2
		S-1,25.4-2.2,25.4 M0.8,21.9L0.8,21.9C0.1,20.7-1,20-2.1,20c-1.2,0-2.3,0.7-2.8,1.8v0.1h-1.5v-0.1C-6.9,20.7-8,20-9.2,20
		s-2.3,0.7-2.8,1.8v0.1h-0.7l1.5-3.1c0.1-0.2,0.2-0.3,0.4-0.3h10.5c0.2,0,0.3,0.1,0.4,0.2l1.5,3.1L0.8,21.9L0.8,21.9z M2.8,21.9
		c-0.1,0-0.2-0.1-0.3-0.2l-1.7-3.3c-0.3-0.5-0.8-0.8-1.3-0.8H-11c-0.5,0-1,0.3-1.3,0.8l-1.6,3.3c0,0.1-0.1,0.2-0.3,0.2h-0.7H-15
		l1.9-3.9c0.4-0.8,1.2-1.3,2.1-1.3h10.5c0.9,0,1.7,0.5,2.1,1.3l2,3.9H2.8z M9.8,22.9c0,0.1-0.1,0.2-0.2,0.2H7.1
		c-0.1,0-0.2-0.1-0.2-0.2V21c0-0.3-0.2-0.5-0.5-0.5S5.9,20.7,5.9,21v1H4.6v-0.1L3,18.6h6.8C9.8,18.6,9.8,22.9,9.8,22.9z M2.5,17.7
		L2.5,17.7C2.3,17.4,2.2,17.2,2,17l-0.2-0.2h10.4v1L2.5,17.7L2.5,17.7z M18,25.4c-1.2,0-2.2-1-2.2-2.2s1-2.2,2.2-2.2s2.2,1,2.2,2.2
		S19.3,25.4,18,25.4 M21,21.9L21,21.9c-0.6-1.2-1.7-1.9-2.9-1.9s-2.3,0.7-2.8,1.8v0.1h-4.4v-3.3h1.6v0.1c0.2,0.5,0.8,0.9,1.3,0.9
		h4.9c1.4,0,2.6,0.9,2.9,2.2V22H21V21.9z"/>
</g>
<g>
	<rect x="0" y="9.1" class="st4" width="1.7" height="2.3"/>
	<rect x="3.7" y="9.1" class="st5" width="1.7" height="12"/>
	<rect x="0" y="0.9" class="st4" width="1.7" height="4.8"/>
	<rect x="7.3" y="9.2" class="st4" width="1.7" height="4.8"/>
</g>
</svg>
