<?xml version="1.0" encoding="utf-8"?>
<!-- Generator: Adobe Illustrator 19.2.1, SVG Export Plug-In . SVG Version: 6.00 Build 0)  -->
<svg version="1.1" id="Layer_1" xmlns="http://www.w3.org/2000/svg" xmlns:xlink="http://www.w3.org/1999/xlink" x="0px" y="0px"
	 viewBox="0 0 13 60" style="enable-background:new 0 0 13 60;" xml:space="preserve">
<style type="text/css">
	.st0{display:none;}
	.st1{display:inline;fill:#39435B;}
	.st2{display:none;fill:#3A445B;}
	.st3{display:inline;fill:#3A445B;}
	.st4{fill:#FFFFFF;}
</style>
<g class="st0">
	<path class="st1" d="M30.6,38.7h2.1v-5.8c0-1.7-1.1-2.1-2.4-2.4c-0.1,0-0.2,0-0.3-0.1c-3.1-0.6-3.7-1.2-3.8-1.5
		c-1.4-5.3-5.5-5.3-8.5-5.3h-1.9v14.2h-1.5V19.3h-34v19.4h1.7v0.2c0.3,1.1,1.2,1.8,2.3,1.8s2-0.7,2.3-1.8v-0.2h0.9v0.2
		c0.3,1.1,1.2,1.8,2.3,1.8s2-0.7,2.3-1.8v-0.2h9.2v0.2c0.3,1.1,1.2,1.8,2.3,1.8s2-0.7,2.3-1.8v-0.2h0.9v0.2C7.1,40,8,40.7,9.1,40.7
		c1.1,0,2-0.7,2.3-1.8v-0.2h13.9l0.1,0.2c0.3,1,1.2,1.7,2.3,1.7c1,0,2-0.7,2.3-1.7L30.6,38.7z M-15.6,39.8c-0.8,0-1.5-0.7-1.5-1.5
		s0.7-1.5,1.5-1.5c0.8,0,1.5,0.7,1.5,1.5C-14,39.1-14.7,39.8-15.6,39.8 M-9.9,39.8c-0.8,0-1.5-0.7-1.5-1.5s0.7-1.5,1.5-1.5
		s1.5,0.7,1.5,1.5S-9.1,39.8-9.9,39.8 M4,39.8c-0.8,0-1.5-0.7-1.5-1.5s0.7-1.5,1.5-1.5s1.5,0.7,1.5,1.5S4.9,39.8,4,39.8 M9.8,39.8
		c-0.8,0-1.5-0.7-1.5-1.5s0.7-1.5,1.5-1.5s1.5,0.7,1.5,1.5S10.5,39.8,9.8,39.8 M13.3,37.8H12v-0.2c-0.3-1.1-1.2-1.8-2.3-1.8
		s-2.1,0.7-2.3,1.8v0.2H6.6v-0.2c-0.3-1.1-1.2-1.8-2.3-1.8c-1.1,0-2.1,0.7-2.3,1.8v0.2h-9.2v-0.2c-0.3-1.1-1.2-1.8-2.3-1.8
		s-2.1,0.7-2.3,1.8v0.2h-0.9v-0.2c-0.3-1.1-1.2-1.8-2.3-1.8s-2.1,0.7-2.3,1.8v0.2h-1.5V20.2h32.1v17.6H13.3z M28.3,39.7
		c-0.8,0-1.5-0.7-1.5-1.5s0.7-1.5,1.5-1.5s1.5,0.7,1.5,1.5C29.8,39,29.1,39.7,28.3,39.7 M28.3,35.8c-1.1,0-2.1,0.8-2.4,1.9v0.2h-9.3
		V24.6h1c3.1,0,6.4,0,7.6,4.7c0.3,1.2,2.4,1.7,4.5,2.1c0.1,0,0.2,0,0.3,0.1c1.1,0.3,1.6,0.5,1.7,1.3v0.3H31c-0.2,0-0.4,0.2-0.4,0.4
		c0,0.2,0.2,0.4,0.4,0.4h0.7V35H31c-0.2,0-0.4,0.2-0.4,0.4s0.2,0.4,0.4,0.4h0.7v2.1h-1.1v-0.2C30.5,36.6,29.5,35.8,28.3,35.8"/>
</g>
<g class="st0">
	<path class="st1" d="M20.6,36.6c-0.5,0-1,0.1-1.5,0.3H19l-0.7-1.3H24c0.4,0,0.8-0.3,0.8-0.8v-0.2c0-1.8-1.3-3.3-3.1-3.6l-3.6-0.5
		v-0.1c-0.1-0.5-0.2-1-0.4-1.5L17,27.7c0-0.1-0.1-0.2-0.3-0.2c-0.1,0-0.3,0-0.4,0c-0.1,0.1-0.2,0.2-0.2,0.3c0,0.1,0,0.3,0,0.4
		l0.7,1.3c0.4,0.7,0.5,1.5,0.3,2.2l-1.3,5.6c-0.5,2.1-2.3,3.5-4.4,3.5H5.6c-1.3,0-2.5-0.9-2.8-2.1v-0.1h1.5c0.3,0,0.5-0.2,0.5-0.5
		s-0.2-0.5-0.5-0.5h-14.7l0.1-0.5c0.9-4.2,4.6-7.2,8.9-7.2h0.5c0.3,0,0.5-0.2,0.5-0.5s-0.2-0.5-0.5-0.5h-0.5c-0.8,0-1.5,0.1-2.2,0.3
		h-0.1V29c0-0.4-0.3-0.7-0.7-0.7c-0.2,0-0.3-0.1-0.5-0.2C-5,28-5.1,27.8-5.1,27.6c0-0.3,0.3-0.6,0.7-0.6h11c0.6,0,1,0.4,1,1v1.5
		l-0.1-0.1c-0.5-0.3-1-0.5-1.6-0.5H1.7c-0.3,0-0.5,0.2-0.5,0.5s0.2,0.5,0.5,0.5h4.2c0.5,0,1,0.2,1.3,0.6s0.4,0.9,0.3,1.4l-1.1,5.5
		c0,0.2,0,0.3,0.1,0.4l0,0C6.6,37.9,6.7,38,6.9,38h4.5c0.9,0,1.6-0.6,1.8-1.4l1-4.3c0.2-1,0.1-2-0.4-2.9L10.4,23h0.5
		c0.5,0,0.8-0.4,0.8-0.8V21c0-0.4-0.2-0.7-0.6-0.8h-0.2l1.9-1.2c0.3-0.2,0.7-0.3,1-0.2c0.4,0.1,0.7,0.3,0.8,0.6
		c0.4,0.6,0.2,1.4-0.4,1.8l-0.7,0.5c-0.4,0.2-0.5,0.7-0.3,1.1l1.7,3.2c0.2,0.2,0.4,0.3,0.6,0.2c0.2-0.1,0.3-0.4,0.2-0.6l-1.5-3.1
		l0.7-0.4c1-0.7,1.3-2,0.7-3.1c-0.3-0.5-0.8-0.9-1.4-1.1c-0.6-0.2-1.3,0-1.8,0.3L10,19.8c-0.2,0.1-0.3,0.2-0.4,0.4l0,0H9v-2.7
		c0-0.3-0.3-0.6-0.6-0.6H8l0,0c-0.2-1.2-1.2-2.1-2.4-2.1c-1.3,0-2.4,1.1-2.4,2.4c0,1.3,1.1,2.4,2.4,2.4c1,0,1.8-0.6,2.2-1.4L8,17.9
		v2.3H6.6c-0.8,0-1.4,0.6-1.4,1.4c0,0.8,0.6,1.4,1.4,1.4h2.8l0,0l3.6,6.8c0.4,0.7,0.5,1.5,0.3,2.2l-1,4.3c-0.1,0.4-0.5,0.7-0.9,0.7
		h-4l1.1-5c0-0.2,0.1-0.4,0.1-0.6v-3.5c0-1.1-0.9-1.9-1.9-1.9h-11C-5.3,26-6,26.7-6,27.5c0,0.4,0.1,0.9,0.4,1.2
		c0.2,0.3,0.5,0.4,0.9,0.5h0.1v0.2h-0.1c-1.1,0.4-2.1,1-3,1.7c-1.8,1.5-3,3.5-3.5,5.7l-0.2,1c0,0.1-0.4,1.4-0.6,2.3
		c-0.1,0.3,0,0.7,0.2,0.9c0.2,0.3,0.5,0.4,0.8,0.4l0,0c0.3,0,0.7-0.2,0.9-0.4l1.8-2.5h1l-0.1,0.1c-0.4,0.7-0.7,1.5-0.7,2.3
		c0,2.4,2,4.4,4.3,4.4s4.2-1.8,4.3-4.1l0,0l2-0.8l0,0c0.7,0.8,1.8,1.2,2.8,1.2h5.8c2.6,0,4.8-1.8,5.3-4.2l0.4-1.9H17l0,0l0.8,1.7
		l0,0c-1.2,0.8-1.9,2.2-1.9,3.6c0,2.4,2,4.4,4.4,4.4s4.3-2,4.3-4.4C25,38.5,23,36.6,20.6,36.6z M5.6,18.7c-0.8,0-1.5-0.7-1.5-1.5
		c0-0.8,0.7-1.5,1.5-1.5s1.5,0.7,1.5,1.5C7.1,18,6.5,18.7,5.6,18.7z M6.6,22.1c-0.3,0-0.5-0.2-0.5-0.5s0.2-0.5,0.5-0.5h4.2v1H6.6z
		 M-10.9,40.4H-11c-0.1,0-0.1,0-0.1,0v-0.1l0.5-1.8h1.2L-10.9,40.4z M-0.3,41.7c-0.4,1.5-1.7,2.6-3.3,2.6c-1.9,0-3.4-1.5-3.4-3.4
		c0-0.9,0.3-1.8,1-2.4l0,0h3.5l-1.7,0.7c-0.4,0.2-0.8,0.5-1,1s-0.2,1,0,1.4c0.3,0.7,1,1.2,1.7,1.2c0.2,0,0.4,0,0.7-0.1l2.7-1H-0.3z
		 M0.1,40.4H0l-3.3,1.3c-0.1,0-0.2,0.1-0.3,0.1c-0.1,0-0.3,0-0.4-0.1c-0.2-0.1-0.4-0.3-0.5-0.5c-0.2-0.5,0-1,0.5-1.2l4-1.5h1.7v0.1
		c0.1,0.3,0.2,0.7,0.3,1v0.1L0.1,40.4z M17.5,34.6l0.7-2.8c0-0.1,0-0.2,0.1-0.3v-0.1h0.1l3.4,0.5c1.3,0.2,2.3,1.3,2.3,2.6v0.1
		C24,34.6,17.5,34.6,17.5,34.6z M20.6,44.3c-1.9,0-3.4-1.5-3.4-3.4c0-1.1,0.5-2.1,1.4-2.7l0.1-0.1l0.6,1.3l0,0
		c-0.4,0.4-0.6,0.9-0.6,1.5c0,1.1,0.9,2,2,2s2-0.9,2-2c0-1.3-1.2-2.3-2.5-2h-0.1l-0.6-1.3h0.1c0.3-0.1,0.7-0.2,1.1-0.2
		c1.9,0,3.4,1.5,3.4,3.4S22.5,44.3,20.6,44.3z M21,40.7l-0.4-0.9h0.1c0.6,0,1,0.5,1,1.1S21.2,42,20.6,42s-1.1-0.5-1.1-1.1
		c0-0.2,0-0.3,0.1-0.5l0.1-0.1l0.4,0.8c0.1,0.2,0.2,0.3,0.4,0.3c0.1,0,0.1,0,0.2,0C21,41.2,21.1,40.9,21,40.7z"/>
</g>
<path class="st2" d="M25.1,36.2c-0.7-1.5-1.9-2.7-3.5-3.3c-1.3-0.5-2.8-0.7-4.2-0.5l0,0v-0.1L16.8,31v-1.8h0.1
	c0.3,0.1,0.6,0.2,1,0.2h2c0.7,0,1.2-0.5,1.2-1.2V25c0-0.7-0.5-1.2-1.2-1.2h-2c-0.3,0-0.6,0-1,0.2h-0.1v-2c0-0.3-0.1-0.6-0.2-0.8
	c-0.2-0.5-0.7-0.8-1.2-1l0,0l0,0l-0.9-2l0,0c0.3-0.2,0.5-0.5,0.5-0.9v-1c0-0.6-0.4-1-1.1-1.1l-2.8-0.5c-0.3,0-0.6,0-0.8,0.2
	c-0.3,0.2-0.4,0.6-0.4,0.9v1.5c0,0.6,0.5,1.1,1.1,1.1h2.5l0.8,1.8h-0.1h-2.8c-1,0-1.6,0.7-1.6,1.5s0.5,1.6,1.5,1.6l2.3,0.1v2
	l-0.1,0.1c-0.4-0.3-1-0.6-1.7-0.8c-2.7-0.7-6.6-0.2-8,1.7l0,0h-4.4c-0.3,0-0.5,0.2-0.5,0.5s0.2,0.5,0.5,0.5h4.2v3.1h-13.7
	c-0.8,0-1.3-0.4-1.3-1v-2.4c0-0.3,0.1-0.5,0.2-0.7c0.2-0.2,0.5-0.3,0.8-0.2h1c0.2,0,0.5,0.2,0.8,0.5s0.8,0.7,1.4,0.8v0.1v-0.1h4
	c0.3,0,0.5-0.2,0.5-0.5s-0.2-0.5-0.5-0.5H-7c-0.3,0-0.5-0.2-0.8-0.5c-0.4-0.3-0.8-0.8-1.4-0.8h-1c-0.6,0-1.2,0.1-1.6,0.5
	c-0.2,0.2-0.5,0.7-0.5,1.4v2.4c0,1.2,0.9,2,2.2,2h3.9l-0.2,0.9h-0.1c-2.4,0-5.2,1.2-5.9,3.7c-0.2,0.9-0.2,1.5,0.1,1.9
	c0.1,0.1,0.2,0.2,0.4,0.3l0,0v0.1c-0.1,0.4-0.1,0.8-0.1,1.1c0,3.2,2.6,5.8,5.8,5.8c2.7,0,5.1-1.9,5.7-4.5v-0.1h2.6
	c0.3,0,0.5-0.2,0.5-0.5s-0.2-0.5-0.5-0.5h-6.6v-0.1c0.1-0.2,0.1-0.3,0.1-0.5l0.2-0.8h9.6c0.8,0,1.2-0.2,1.7-0.9l4.4-6h2l-0.1,0.1
	L8,38.6l0,0c-0.6,1-1.3,1-1.5,1H4.3c-0.3,0-0.5,0.2-0.5,0.5s0.2,0.5,0.5,0.5h2.2c0.9,0,1.7-0.5,2.3-1.4l5.3-6.7l0.5,1h-0.1
	c-1,0.7-1.7,1.6-2.1,2.6c-0.3,0.8-0.3,1.5,0,1.9c0.1,0.2,0.3,0.3,0.5,0.4H13l0,0c0,0.3,0,0.5,0,0.8c0,3.2,2.6,5.8,5.8,5.8
	s5.8-2.6,5.8-5.8c0-0.3,0-0.5,0-0.8v-0.1h0.1c0.3-0.1,0.5-0.3,0.6-0.5C25.6,37.5,25.3,36.6,25.1,36.2z M16.8,25.3L16.8,25.3
	c0.3-0.2,0.7-0.3,1-0.3h2c0.1,0,0.2,0.1,0.2,0.2v3.2c0,0.1-0.1,0.2-0.2,0.2h-2c-0.4,0-0.7-0.1-1-0.3l0,0V25.3z M14,17.4
	c0,0.1-0.1,0.2-0.2,0.2H11c-0.1,0-0.2-0.1-0.2-0.2v-1.5c0-0.1,0-0.1,0-0.2l0,0l2.8,0.5c0.1,0,0.3,0.1,0.3,0.2v1H14z M-11.2,37.4
	L-11.2,37.4c-0.2,0-0.2,0-0.2,0c-0.1-0.1-0.1-0.4,0-1c0.4-1.6,2.4-2.8,4.7-2.9h0.1l-0.9,4L-11.2,37.4
	C-11.2,37.4-11.2,37.4-11.2,37.4z M-3.3,40.7L-3.3,40.7h1.8v0.1c-0.6,2.1-2.5,3.5-4.7,3.5c-2.7,0-4.8-2.2-4.8-4.8c0-0.3,0-0.7,0.1-1
	v-0.1h1.8v0.1c-0.1,0.3-0.2,0.7-0.2,1c0,1.7,1.4,3.2,3.1,3.2C-4.9,42.6-3.8,41.8-3.3,40.7z M-4.3,40.6l-0.1,0.1
	c-0.4,0.5-1,0.9-1.7,0.9c-1.2,0-2.2-1-2.2-2.2c0-0.4,0.1-0.7,0.3-1.1l0,0h0.4v0.1h-0.1h0.1c-0.2,1.2,0.5,2,1.3,2.1h0.1h0.1
	L-4.3,40.6z M-4,33.3l-1.3,5.6h-0.1h0.1c-0.1,0.6-0.5,0.7-0.8,0.7h-0.1c-0.2,0-0.7-0.2-0.5-1l1.5-7.2h1.7L-4,33.3L-4,33.3L-4,33.3z
	 M-0.9,37.4h-3l0.7-3.3l0.1,0.1c0.9,0.5,1.5,1.3,1.9,2.2C-1.1,36.6-1,37-0.9,37.4L-0.9,37.4z M-0.7,35.2c-0.5-0.9-1.3-1.6-2.2-2l0,0
	l0.4-1.7H3L-0.7,35.2L-0.7,35.2z M6.4,36.9c-0.3,0.4-0.4,0.4-0.9,0.4H4.8v-0.1c0-0.1,0-0.2,0-0.3c0-0.3,0.1-0.5,0.3-0.7
	c0.2-0.2,0.5-0.3,0.8-0.3c0.4,0,0.8,0.2,1,0.5l0,0L6.4,36.9z M9.8,32.5H6.3c-0.3,0-0.5,0.2-0.5,0.5s0.2,0.5,0.5,0.5H9l-1.6,2.2
	l-0.1-0.1C6.9,35.2,6.4,35,5.8,35s-1.1,0.2-1.5,0.6C3.9,36,3.7,36.4,3.7,37c0,0.1,0,0.3,0,0.4v0.1H0v-0.1c0-0.4-0.1-0.7-0.2-1l0,0
	l4.4-4.8h6.1L9.8,32.5z M13.6,30.5H4.5v-3.4l0,0c1.1-1.6,4.6-2,7-1.4c0.6,0.2,2.1,0.7,2.1,1.7V30.5z M14.3,22.6l-2.8-0.2
	c-0.5,0-0.6-0.3-0.6-0.6c0-0.1,0.1-0.5,0.6-0.5h3.7c0.3,0,0.5,0.2,0.7,0.4l0,0c0,0.1,0.1,0.2,0.1,0.4v9.1c0,0.1,0,0.1,0,0.2l0.8,1.7
	l0,0l2.6,5.5c0.2,0.4,0,0.7-0.2,0.7c-0.1,0-0.2,0.1-0.3,0.1c-0.2,0-0.3-0.1-0.4-0.2l-3.8-7.7v-8.4C14.6,22.8,14.5,22.6,14.3,22.6z
	 M20.3,38.8v-0.1h0.5v0.1c0.1,0.2,0.1,0.5,0.1,0.7c0,1.2-1,2.2-2.2,2.2s-2.2-1-2.2-2.2c0-0.2,0-0.5,0.1-0.7v-0.1H17l0.5,1.1
	c0.2,0.5,0.7,0.8,1.3,0.8c0.3,0,0.5-0.1,0.7-0.2C20,40.2,20.5,39.6,20.3,38.8z M13.3,37.6c0,0-0.1-0.1-0.1-0.3c0-0.2,0-0.4,0.2-0.7
	c0.3-0.8,0.8-1.5,1.6-2.1H15v0.1l1.5,3.2h-2.9C13.5,37.7,13.3,37.7,13.3,37.6z M18.8,44.3c-2.7,0-4.8-2.2-4.8-4.8
	c0-0.2,0-0.5,0.1-0.7v-0.1h1.7v0.1c0,0.2-0.1,0.4-0.1,0.6c0,1.7,1.4,3.2,3.1,3.2c1.7,0,3.2-1.4,3.2-3.2c0-0.2,0-0.4-0.1-0.6v-0.1
	h1.7v0.1c0,0.2,0,0.5,0,0.7C23.6,42.1,21.5,44.3,18.8,44.3z M24.5,37.6c-0.1,0.1-0.3,0.1-0.5,0.1h-4l0,0l-2-4.3H18
	c2.1-0.2,5.1,0.5,6.3,3.3C24.5,37,24.5,37.4,24.5,37.6z"/>
<g class="st0">
	<path class="st3" d="M20.5,45.1c2.4,0,4.3-1.9,4.3-4.3v-0.5h0.9c0.2,0,0.3-0.1,0.3-0.2c0.1-0.1,0.1-0.2,0.1-0.3l0,0
		c-0.4-2.6-2.4-4.5-5-4.8h-0.2v-0.2c1-5.5-0.2-11.5-3.2-15.7l-0.1-0.2l0.2-0.1c1.6-0.5,2.6-1.9,2.6-3.5c0-0.3-0.2-0.4-0.4-0.4H-7
		c-2.8,0-5.1,2.3-5.1,5.1v16.9V37c-0.8,0.8-1.3,1.9-1.5,3l0,0c0,0.1,0,0.2,0.1,0.3s0.2,0.2,0.4,0.2h1v0.2c-0.1,1.2,0.3,2.4,1.2,3.3
		c0.8,0.9,1.9,1.4,3.1,1.4s2.3-0.5,3.1-1.4c0.8-0.9,1.2-2.1,1.2-3.3v-0.2H16V41C16.3,43.2,18.3,45.1,20.5,45.1 M24,40.7
		c0,2-1.5,3.5-3.4,3.5c-1,0-1.9-0.4-2.6-1.1c-0.7-0.7-1-1.7-0.9-2.6v-0.2h0.2c0.2,0,0.2,0,0.3,0c0.2,0,1,0,6.1-0.1h0.2v0.5H24z
		 M21,35.8h0.2c1.9,0.2,3.5,1.5,4.1,3.3l0.1,0.2h-5.5l0.1-0.3C20.3,38,20.7,36.9,21,35.8L21,35.8z M20.5,29L20.5,29v0.2h-4.7V18.8h1
		l0.1,0.1C18.8,21.5,20.3,25.2,20.5,29 M-11,19.9c0-2.3,1.9-4.2,4.2-4.2h26.4l-0.1,0.2c-0.3,1.2-1.4,2.1-2.7,2.1H-0.7
		c-1,0-1.9,0.9-1.9,1.9v9.4H-11V19.9z M6.8,30v-0.2H6.5v-1.3H11V30H6.8z M9.8,36.8H6.5v-5.9h3.2V36.8z M10.6,30.9h0.2
		c0.6,0,1-0.4,1-1v-1.2c0-0.6-0.4-1-1-1H6.4v-8.8h8.4v17.9h-4.3L10.6,30.9L10.6,30.9z M5.6,18.8v17.9H1.5l0,0l-1.1-6
		c-0.2-0.8-1-1.5-2-1.5h-0.2v-9.3c0-0.5,0.5-1,1-1h6.4V18.8z M-5.1,43.1c-0.7,0.7-1.6,1.1-2.5,1.1c-1,0-1.9-0.4-2.5-1.1
		c-0.7-0.7-1-1.7-0.9-2.7v-0.2h6.8v0.2C-4.1,41.4-4.4,42.4-5.1,43.1 M-12.4,39.4l0.1-0.2c0.7-2,2.6-3.4,4.7-3.4s4,1.4,4.7,3.4
		l0.1,0.2H-12.4z M-0.2,39.4L-0.2,39.4c-0.6,0-1,0-1.3,0H-2v-0.1c-0.7-2.6-3-4.4-5.6-4.4c-1.1,0-2.2,0.3-3.1,0.9L-11,36v-5.9h0.3V30
		h0.1v0.1h9c0.6,0,1,0.4,1.1,0.9l1.2,6.4c0,0.2,0.2,0.3,0.4,0.3h14.2c0.3,0,0.4-0.2,0.4-0.4v-7.2h4.8v0.2c0.1,3.1-0.5,6.3-1.8,9
		l-0.1,0.1h-0.1C7.1,39.4,2,39.4-0.2,39.4"/>
</g>
<g class="st0">
	<path class="st1" d="M27,40.4v-2.1c0-0.3-0.2-0.5-0.5-0.5S26,38,26,38.3v2.1c0,0.3-0.2,0.5-0.5,0.5h-0.9v-0.1
		c-0.4-1.9-2-3.2-3.9-3.2h-4.9c-0.3,0-0.5-0.2-0.5-0.5v-9.2c0-0.3,0.2-0.5,0.5-0.5h2.1v4c0,1.2,0.9,2.1,2.1,2.1h6v2
		c0,0.3,0.2,0.5,0.5,0.5s0.5-0.2,0.5-0.5v-4.1c0-2.7-2.2-4.9-4.9-4.9h-6.3c-0.8,0-1.5,0.7-1.5,1.5v6.8h-2v-1.3
		c0-0.9-0.4-1.7-1.1-2.2l-0.1-0.1l0.4-0.5c0.4-0.5,0.5-1.1,0.4-1.7l-1-4.1c-0.2-1-0.8-1.9-1.6-2.5l-8.5-6.7c-0.8-0.6-1.8-1-2.9-1
		h-4.2c-0.6,0-1.2,0.3-1.6,0.8l-3.3,4.2c-0.4,0.5-0.5,1.1-0.4,1.7l1,4.1c0.2,1,0.8,1.9,1.6,2.5l3.3,2.6l-2.1,4.2H-9
		c-1.3,0-2.4,0.7-3,1.9l-2,4.2c-0.1,0.2-0.1,0.5,0,0.7s0.4,0.3,0.6,0.3h2.9V42c0,0.1,0,0.1,0,0.2c0,1.7,1.4,3.1,3.1,3.1
		s3.1-1.4,3.1-3.1c0-0.1,0-0.1,0-0.2v-0.1h1V42c0,0.1,0,0.1,0,0.2c0,1.7,1.4,3.1,3.1,3.1S3,43.9,3,42.2c0-0.1,0-0.1,0-0.2v-0.1h5V42
		C8,42.6,8.5,43,9,43h2.5c0.6,0,1.1-0.4,1.1-1v-0.1h4.1V42c0,0.1,0,0.1,0,0.2c0,1.7,1.4,3.1,3.1,3.1s3.1-1.4,3.1-3.1
		c0-0.1,0-0.1,0-0.2v-0.1h2.4C26.3,41.9,27,41.2,27,40.4 M18.8,27.4h3.3c2.2,0,4,1.8,4,4v1.2H20c-0.6,0-1.2-0.5-1.2-1.2V27.4z
		 M11.3,33.5v1.2h-3l2.2-2.7l0.1,0.1C11,32.4,11.3,33,11.3,33.5 M-9.4,26l-0.1-0.2c-0.1-0.2-0.1-0.4-0.2-0.5l-1-4.1
		c-0.1-0.3,0-0.7,0.2-0.9l3.3-4.2c0.2-0.3,0.5-0.4,0.9-0.4h4.2c0.2,0,0.4,0,0.6,0h0.2L-9.4,26z M-8.4,27.3c-0.1-0.1-0.3-0.2-0.4-0.4
		l-0.1-0.1l0.1-0.1L-0.4,16l0.1,0.1C0,16.2,0,16.3,0.3,16.4l8.5,6.7c0.1,0.1,0.3,0.2,0.4,0.4l0.1,0.1l-1.4,1.8
		c-0.2,0.2-0.1,0.5,0.1,0.7s0.5,0.1,0.7-0.1l1.3-1.6l0.1,0.2c0.1,0.2,0.1,0.4,0.2,0.5l1,4.1c0.1,0.3,0,0.7-0.2,0.9l-3.3,4.2
		c-0.2,0.3-0.5,0.4-0.9,0.4H2.7c-0.2,0-0.4,0-0.6,0H1.9L7,28.2c0.1-0.1,0.1-0.2,0.1-0.3c0-0.1-0.1-0.2-0.2-0.3
		c-0.2-0.2-0.5-0.1-0.7,0.1l-5.3,6.7l-0.1-0.1c-0.2-0.1-0.3-0.2-0.5-0.3L-8.4,27.3z M-5,31.2l4.6,3.6h-6.4L-5,31.2z M-7.4,44.4
		c-1.2,0-2.2-1-2.2-2.2s1-2.2,2.2-2.2s2.2,1,2.2,2.2S-6.2,44.4-7.4,44.4 M-0.2,44.4c-1.2,0-2.2-1-2.2-2.2s1-2.2,2.2-2.2S2,41,2,42.2
		S1,44.4-0.2,44.4 M2.8,40.9L2.8,40.9C2.1,39.7,1,39-0.1,39c-1.2,0-2.3,0.7-2.8,1.8v0.1h-1.5v-0.1C-4.9,39.7-6,39-7.2,39
		s-2.3,0.7-2.8,1.8v0.1h-0.7l1.5-3.1c0.1-0.2,0.2-0.3,0.4-0.3H1.7c0.2,0,0.3,0.1,0.4,0.2l1.5,3.1L2.8,40.9L2.8,40.9z M4.8,40.9
		c-0.1,0-0.2-0.1-0.3-0.2l-1.7-3.3c-0.2-0.5-0.7-0.8-1.3-0.8H-9c-0.5,0-1,0.3-1.3,0.8l-1.6,3.3c0,0.1-0.1,0.2-0.3,0.2h-0.7H-13
		l1.9-3.9c0.4-0.8,1.2-1.3,2.1-1.3H1.5c0.9,0,1.7,0.5,2.1,1.3l2,3.9H4.8z M11.8,41.9c0,0.1-0.1,0.2-0.2,0.2H9.1
		c-0.1,0-0.2-0.1-0.2-0.2V40c0-0.3-0.2-0.5-0.5-0.5S7.9,39.7,7.9,40v1H6.6v-0.1L5,37.6h6.8V41.9z M4.5,36.7L4.5,36.7
		C4.3,36.4,4.3,36.2,4,36l-0.2-0.2h10.4v1L4.5,36.7L4.5,36.7z M20,44.4c-1.2,0-2.2-1-2.2-2.2s1-2.2,2.2-2.2s2.2,1,2.2,2.2
		S21.3,44.4,20,44.4 M23,40.9L23,40.9C22.4,39.7,21.3,39,20,39s-2.3,0.7-2.8,1.8v0.1h-4.4v-3.3h1.6v0.1c0.2,0.5,0.8,0.9,1.3,0.9h4.9
		c1.4,0,2.6,0.9,2.9,2.2V41H23V40.9z"/>
	<path class="st1" d="M-0.2,41.7c-0.3,0-0.5,0.2-0.5,0.5s0.2,0.5,0.5,0.5s0.5-0.2,0.5-0.5S0.1,41.7-0.2,41.7"/>
</g>
<g>
	<rect x="6" y="0.8" class="st4" width="1" height="57.8"/>
	<polygon class="st4" points="6.5,59.2 0.4,53 1.1,52.3 6.5,57.8 11.9,52.3 12.6,53 	"/>
</g>
</svg>
