<?xml version="1.0" encoding="utf-8"?>
<!-- Generator: Adobe Illustrator 19.2.1, SVG Export Plug-In . SVG Version: 6.00 Build 0)  -->
<svg version="1.1" id="Layer_1" xmlns="http://www.w3.org/2000/svg" xmlns:xlink="http://www.w3.org/1999/xlink" x="0px" y="0px"
	 viewBox="0 0 22 17" style="enable-background:new 0 0 22 17;" xml:space="preserve">
<style type="text/css">
	.st0{display:none;}
	.st1{display:inline;fill:#39435B;}
	.st2{display:none;fill:#3A445B;}
	.st3{display:inline;fill:#3A445B;}
	.st4{fill:#D7C0AB;}
	.st5{fill:#5D9AA3;}
	.st6{fill:#7DCFDA;}
	.st7{fill:#222324;}
	.st8{fill:#366268;}
	.st9{fill:#FFE2CE;}
	.st10{fill:#848484;}
	.st11{fill:#0F323B;}
	.st12{fill:#419799;}
	.st13{opacity:0.2;clip-path:url(#SVGID_2_);fill:#B2DDD9;}
</style>
<g class="st0">
	<path class="st1" d="M35.1,17.2h2.1v-5.8c0-1.7-1.1-2.1-2.4-2.4c-0.1,0-0.2,0-0.3-0.1c-3.1-0.6-3.7-1.2-3.8-1.5
		c-1.4-5.3-5.5-5.3-8.5-5.3h-1.9v14.2h-1.5V-2.2h-34v19.4h1.7v0.2c0.3,1.1,1.2,1.8,2.3,1.8s2-0.7,2.3-1.8v-0.2H-8v0.2
		c0.3,1.1,1.2,1.8,2.3,1.8s2-0.7,2.3-1.8v-0.2h9.2v0.2c0.3,1.1,1.2,1.8,2.3,1.8s2-0.7,2.3-1.8v-0.2h0.9v0.2c0.3,1.1,1.2,1.8,2.3,1.8
		c1.1,0,2-0.7,2.3-1.8v-0.2h13.9l0.1,0.2c0.3,1,1.2,1.7,2.3,1.7c1,0,2-0.7,2.3-1.7L35.1,17.2z M-11.1,18.3c-0.8,0-1.5-0.7-1.5-1.5
		s0.7-1.5,1.5-1.5s1.5,0.7,1.5,1.5C-9.5,17.6-10.2,18.3-11.1,18.3 M-5.4,18.3c-0.8,0-1.5-0.7-1.5-1.5s0.7-1.5,1.5-1.5
		s1.5,0.7,1.5,1.5C-3.9,17.6-4.6,18.3-5.4,18.3 M8.5,18.3c-0.8,0-1.5-0.7-1.5-1.5s0.7-1.5,1.5-1.5S10,16,10,16.8
		C10,17.6,9.4,18.3,8.5,18.3 M14.3,18.3c-0.8,0-1.5-0.7-1.5-1.5s0.7-1.5,1.5-1.5s1.5,0.7,1.5,1.5C15.8,17.6,15,18.3,14.3,18.3
		 M17.8,16.3h-1.3v-0.2c-0.3-1.1-1.2-1.8-2.3-1.8S12.1,15,12,16.1v0.2h-0.9v-0.2c-0.3-1.1-1.2-1.8-2.3-1.8c-1.1,0-2.1,0.7-2.3,1.8
		v0.2h-9.2v-0.2C-3,15-3.9,14.3-5,14.3s-2.1,0.7-2.3,1.8v0.2h-0.9v-0.2c-0.3-1.1-1.2-1.8-2.3-1.8s-2.1,0.7-2.3,1.8v0.2h-1.5V-1.3
		h32.1v17.6H17.8z M32.8,18.2c-0.8,0-1.5-0.7-1.5-1.5s0.7-1.5,1.5-1.5s1.5,0.7,1.5,1.5C34.3,17.5,33.6,18.2,32.8,18.2 M32.8,14.3
		c-1.1,0-2.1,0.8-2.4,1.9v0.2H21V3.1h1c3.1,0,6.4,0,7.6,4.7C29.9,9,32,9.5,34.1,9.9c0.1,0,0.2,0,0.3,0.1c1.1,0.3,1.6,0.5,1.7,1.3
		v0.3h-0.6c-0.2,0-0.4,0.2-0.4,0.4s0.2,0.4,0.4,0.4h0.7v1.1h-0.7c-0.2,0-0.4,0.2-0.4,0.4c0,0.2,0.2,0.4,0.4,0.4h0.7v2.1h-1.1v-0.2
		C35,15.1,34,14.3,32.8,14.3"/>
</g>
<g class="st0">
	<path class="st1" d="M25.1,15.1c-0.5,0-1,0.1-1.5,0.3h-0.1l-0.7-1.3h5.7c0.4,0,0.8-0.3,0.8-0.8v-0.2c0-1.8-1.3-3.3-3.1-3.6L22.6,9
		V8.9c-0.1-0.5-0.2-1-0.4-1.5l-0.7-1.2c0-0.1-0.1-0.2-0.3-0.2c-0.1,0-0.3,0-0.4,0c-0.1,0.1-0.2,0.2-0.2,0.3c0,0.1,0,0.3,0,0.4
		L21.3,8c0.4,0.7,0.5,1.5,0.3,2.2l-1.3,5.6c-0.5,2.1-2.3,3.5-4.4,3.5h-5.8c-1.3,0-2.5-0.9-2.8-2.1v-0.1h1.5c0.3,0,0.5-0.2,0.5-0.5
		s-0.2-0.5-0.5-0.5H-5.9l0.1-0.5c0.9-4.2,4.6-7.2,8.9-7.2h0.5c0.3,0,0.5-0.2,0.5-0.5S3.9,7.4,3.6,7.4H3.1c-0.8,0-1.5,0.1-2.2,0.3
		H0.8V7.5c0-0.4-0.3-0.7-0.7-0.7c-0.2,0-0.3-0.1-0.5-0.2c-0.1-0.1-0.2-0.3-0.2-0.5c0-0.3,0.3-0.6,0.7-0.6h11c0.6,0,1,0.4,1,1V8
		L12,7.9c-0.5-0.3-1-0.5-1.6-0.5H6.2c-0.3,0-0.5,0.2-0.5,0.5s0.2,0.5,0.5,0.5h4.2c0.5,0,1,0.2,1.3,0.6s0.4,0.9,0.3,1.4l-1.1,5.5
		c0,0.2,0,0.3,0.1,0.4l0,0c0.1,0.1,0.2,0.2,0.4,0.2h4.5c0.9,0,1.6-0.6,1.8-1.4l1-4.3c0.2-1,0.1-2-0.4-2.9l-3.4-6.4h0.5
		c0.5,0,0.8-0.4,0.8-0.8v-1.2c0-0.4-0.2-0.7-0.6-0.8h-0.2l1.9-1.2c0.3-0.2,0.7-0.3,1-0.2c0.4,0.1,0.7,0.3,0.8,0.6
		c0.4,0.6,0.2,1.4-0.4,1.8L18,0.2c-0.4,0.2-0.5,0.7-0.3,1.1l1.7,3.2c0.2,0.2,0.4,0.3,0.6,0.2c0.2-0.1,0.3-0.4,0.2-0.6L18.8,1
		l0.7-0.4c1-0.7,1.3-2,0.7-3.1c-0.3-0.5-0.8-0.9-1.4-1.1c-0.6-0.2-1.3,0-1.8,0.3l-2.5,1.6c-0.2,0.1-0.3,0.2-0.4,0.4l0,0h-0.5V-4
		c0-0.3-0.3-0.6-0.6-0.6h-0.4l0,0c-0.2-1.2-1.2-2.1-2.4-2.1c-1.3,0-2.4,1.1-2.4,2.4s1.1,2.4,2.4,2.4c1,0,1.8-0.6,2.2-1.4l0.1-0.3
		v2.3h-1.4c-0.8,0-1.4,0.6-1.4,1.4c0,0.8,0.6,1.4,1.4,1.4h2.8l0,0l3.6,6.8c0.4,0.7,0.5,1.5,0.3,2.2l-1,4.3c-0.1,0.4-0.5,0.7-0.9,0.7
		h-4l1.1-5c0-0.2,0.1-0.4,0.1-0.6V6.4c0-1.1-0.9-1.9-1.9-1.9h-11c-0.9,0-1.6,0.7-1.6,1.5c0,0.4,0.1,0.9,0.4,1.2
		c0.2,0.3,0.5,0.4,0.9,0.5h0.1v0.2h-0.1c-1.1,0.4-2.1,1-3,1.7c-1.8,1.5-3,3.5-3.5,5.7l-0.2,1c0,0.1-0.4,1.4-0.6,2.3
		c-0.1,0.3,0,0.7,0.2,0.9c0.2,0.3,0.5,0.4,0.8,0.4l0,0c0.3,0,0.7-0.2,0.9-0.4l1.8-2.5h1l-0.1,0.1c-0.4,0.7-0.7,1.5-0.7,2.3
		c0,2.4,2,4.4,4.3,4.4S4.9,22,5,19.7l0,0l2-0.8l0,0c0.7,0.8,1.8,1.2,2.8,1.2h5.8c2.6,0,4.8-1.8,5.3-4.2l0.4-1.9h0.2l0,0l0.8,1.7l0,0
		c-1.2,0.8-1.9,2.2-1.9,3.6c0,2.4,2,4.4,4.4,4.4s4.3-2,4.3-4.4C29.5,17,27.5,15.1,25.1,15.1z M10.1-2.8c-0.8,0-1.5-0.7-1.5-1.5
		s0.7-1.5,1.5-1.5s1.5,0.7,1.5,1.5S11-2.8,10.1-2.8z M11.1,0.6c-0.3,0-0.5-0.2-0.5-0.5s0.2-0.5,0.5-0.5h4.2v1H11.1z M-6.4,18.9h-0.1
		c-0.1,0-0.1,0-0.1,0v-0.1l0.5-1.8h1.2L-6.4,18.9z M4.3,20.2c-0.4,1.5-1.7,2.6-3.3,2.6c-1.9,0-3.4-1.5-3.4-3.4c0-0.9,0.3-1.8,1-2.4
		l0,0h3.5l-1.7,0.7c-0.4,0.2-0.8,0.5-1,1s-0.2,1,0,1.4c0.3,0.7,1,1.2,1.7,1.2c0.2,0,0.4,0,0.7-0.1l2.7-1H4.3z M4.6,18.9H4.5
		l-3.3,1.3c-0.1,0-0.2,0.1-0.3,0.1c-0.1,0-0.3,0-0.4-0.1c-0.2-0.1-0.4-0.3-0.5-0.5c-0.2-0.5,0-1,0.5-1.2l4-1.5h1.7v0.1
		c0.1,0.3,0.2,0.7,0.3,1v0.1L4.6,18.9z M22,13.1l0.7-2.8c0-0.1,0-0.2,0.1-0.3V9.9h0.1l3.4,0.5c1.3,0.2,2.3,1.3,2.3,2.6v0.1
		C28.5,13.1,22,13.1,22,13.1z M25.1,22.8c-1.9,0-3.4-1.5-3.4-3.4c0-1.1,0.5-2.1,1.4-2.7l0.1-0.1l0.6,1.3l0,0
		c-0.4,0.4-0.6,0.9-0.6,1.5c0,1.1,0.9,2,2,2s2-0.9,2-2c0-1.3-1.2-2.3-2.5-2h-0.1L24,16.1h0.1c0.3-0.1,0.7-0.2,1.1-0.2
		c1.9,0,3.4,1.5,3.4,3.4S27,22.8,25.1,22.8z M25.5,19.2l-0.4-0.9h0.1c0.6,0,1,0.5,1,1.1s-0.5,1.1-1.1,1.1S24,20,24,19.4
		c0-0.2,0-0.3,0.1-0.5l0.1-0.1l0.4,0.8c0.1,0.2,0.2,0.3,0.4,0.3c0.1,0,0.1,0,0.2,0C25.5,19.7,25.6,19.4,25.5,19.2z"/>
</g>
<path class="st2" d="M29.6,14.7c-0.7-1.5-1.9-2.7-3.5-3.3c-1.3-0.5-2.8-0.7-4.2-0.5l0,0v-0.1l-0.6-1.3V7.7h0.1
	c0.3,0.1,0.6,0.2,1,0.2h2c0.7,0,1.2-0.5,1.2-1.2V3.5c0-0.7-0.5-1.2-1.2-1.2h-2c-0.3,0-0.6,0-1,0.2h-0.1v-2c0-0.3-0.1-0.6-0.2-0.8
	c-0.2-0.5-0.7-0.8-1.2-1l0,0l0,0l-0.9-2l0,0c0.3-0.2,0.5-0.5,0.5-0.9v-1c0-0.6-0.4-1-1.1-1.1l-2.8-0.5c-0.3,0-0.6,0-0.8,0.2
	c-0.3,0.2-0.4,0.6-0.4,0.9v1.5c0,0.6,0.5,1.1,1.1,1.1H18l0.8,1.8h-0.1h-2.8c-1,0-1.6,0.7-1.6,1.5s0.5,1.6,1.5,1.6l2.3,0.1v2L18,4
	c-0.4-0.3-1-0.6-1.7-0.8c-2.7-0.7-6.6-0.2-8,1.7l0,0H3.9c-0.3,0-0.5,0.2-0.5,0.5s0.2,0.5,0.5,0.5h4.2V9H-5.6c-0.8,0-1.3-0.4-1.3-1
	V5.6c0-0.3,0.1-0.5,0.2-0.7c0.2-0.2,0.5-0.3,0.8-0.2h1c0.2,0,0.5,0.2,0.8,0.5S-3.3,5.9-2.7,6v0.1V6h4c0.3,0,0.5-0.2,0.5-0.5
	S1.6,5,1.3,5h-3.8C-2.8,5-3,4.8-3.3,4.5c-0.4-0.3-0.8-0.8-1.4-0.8h-1c-0.6,0-1.2,0.1-1.6,0.5c-0.2,0.2-0.5,0.7-0.5,1.4V8
	c0,1.2,0.9,2,2.2,2h3.9l-0.2,0.9H-2c-2.4,0-5.2,1.2-5.9,3.7c-0.2,0.9-0.2,1.5,0.1,1.9c0.1,0.1,0.2,0.2,0.4,0.3l0,0v0.1
	c-0.1,0.4-0.1,0.8-0.1,1.1c0,3.2,2.6,5.8,5.8,5.8c2.7,0,5.1-1.9,5.7-4.5v-0.1h2.6c0.3,0,0.5-0.2,0.5-0.5s-0.2-0.5-0.5-0.5H0v-0.1
	c0.1-0.2,0.1-0.3,0.1-0.5l0.2-0.8H10c0.8,0,1.2-0.2,1.7-0.9l4.4-6h2L18,10l-5.5,7.1l0,0c-0.6,1-1.3,1-1.5,1H8.8
	c-0.3,0-0.5,0.2-0.5,0.5s0.2,0.5,0.5,0.5H11c0.9,0,1.7-0.5,2.3-1.4l5.3-6.7l0.5,1H19c-1,0.7-1.7,1.6-2.1,2.6c-0.3,0.8-0.3,1.5,0,1.9
	c0.1,0.2,0.3,0.3,0.5,0.4h0.1l0,0c0,0.3,0,0.5,0,0.8c0,3.2,2.6,5.8,5.8,5.8s5.8-2.6,5.8-5.8c0-0.3,0-0.5,0-0.8v-0.1h0.1
	c0.3-0.1,0.5-0.3,0.6-0.5C30.1,16,29.8,15.1,29.6,14.7z M21.3,3.8L21.3,3.8c0.3-0.2,0.7-0.3,1-0.3h2c0.1,0,0.2,0.1,0.2,0.2v3.2
	c0,0.1-0.1,0.2-0.2,0.2h-2c-0.4,0-0.7-0.1-1-0.3l0,0V3.8z M18.5-4.1c0,0.1-0.1,0.2-0.2,0.2h-2.8c-0.1,0-0.2-0.1-0.2-0.2v-1.5
	c0-0.1,0-0.1,0-0.2l0,0l2.8,0.5c0.1,0,0.3,0.1,0.3,0.2v1H18.5z M-6.7,15.9L-6.7,15.9c-0.2,0-0.2,0-0.2,0c-0.1-0.1-0.1-0.4,0-1
	c0.4-1.6,2.4-2.8,4.7-2.9h0.1L-3,16h-3.7C-6.7,15.9-6.7,15.9-6.7,15.9z M1.3,19.2L1.3,19.2H3v0.1c-0.6,2.1-2.5,3.5-4.7,3.5
	c-2.7,0-4.8-2.2-4.8-4.8c0-0.3,0-0.7,0.1-1v-0.1h1.8V17c-0.1,0.3-0.2,0.7-0.2,1c0,1.7,1.4,3.2,3.1,3.2C-0.4,21.1,0.8,20.3,1.3,19.2z
	 M0.3,19.1l-0.1,0.1c-0.4,0.5-1,0.9-1.7,0.9c-1.2,0-2.2-1-2.2-2.2c0-0.4,0.1-0.7,0.3-1.1l0,0h0.4v0.1h-0.1h0.1
	c-0.2,1.2,0.5,2,1.3,2.1h0.1h0.1L0.3,19.1z M0.5,11.8l-1.3,5.6h-0.1h0.1c-0.1,0.6-0.5,0.7-0.8,0.7h-0.1c-0.2,0-0.7-0.2-0.5-1
	l1.5-7.2h1.7L0.5,11.8L0.5,11.8L0.5,11.8z M3.6,15.9h-3l0.7-3.3l0.1,0.1C2.4,13.2,3,14,3.4,14.9C3.4,15.1,3.5,15.5,3.6,15.9
	L3.6,15.9z M3.8,13.7c-0.5-0.9-1.3-1.6-2.2-2l0,0L2,10h5.5L3.8,13.7L3.8,13.7z M10.9,15.4c-0.3,0.4-0.4,0.4-0.9,0.4H9.3v-0.1
	c0-0.1,0-0.2,0-0.3c0-0.3,0.1-0.5,0.3-0.7c0.2-0.2,0.5-0.3,0.8-0.3c0.4,0,0.8,0.2,1,0.5l0,0L10.9,15.4z M14.3,11h-3.5
	c-0.3,0-0.5,0.2-0.5,0.5s0.2,0.5,0.5,0.5h2.8l-1.6,2.2l-0.1-0.1c-0.4-0.4-0.9-0.6-1.5-0.6s-1.1,0.2-1.5,0.6s-0.6,0.8-0.6,1.4
	c0,0.1,0,0.3,0,0.4V16H4.5v-0.1c0-0.4-0.1-0.7-0.2-1l0,0l4.4-4.8h6.1L14.3,11z M18.1,9H9V5.6l0,0c1.1-1.6,4.6-2,7-1.4
	c0.6,0.2,2.1,0.7,2.1,1.7V9z M18.8,1.1L16,0.9c-0.5,0-0.6-0.3-0.6-0.6c0-0.1,0.1-0.5,0.6-0.5h3.7c0.3,0,0.5,0.2,0.7,0.4l0,0
	c0,0.1,0.1,0.2,0.1,0.4v9.1c0,0.1,0,0.1,0,0.2l0.8,1.7l0,0l2.6,5.5c0.2,0.4,0,0.7-0.2,0.7c-0.1,0-0.2,0.1-0.3,0.1
	c-0.2,0-0.3-0.1-0.4-0.2L19.1,10V1.6C19.1,1.3,19,1.1,18.8,1.1z M24.8,17.3v-0.1h0.5v0.1c0.1,0.2,0.1,0.5,0.1,0.7
	c0,1.2-1,2.2-2.2,2.2S21,19.2,21,18c0-0.2,0-0.5,0.1-0.7v-0.1h0.4l0.5,1.1c0.2,0.5,0.7,0.8,1.3,0.8c0.3,0,0.5-0.1,0.7-0.2
	C24.5,18.7,25,18.1,24.8,17.3z M17.8,16.1c0,0-0.1-0.1-0.1-0.3c0-0.2,0-0.4,0.2-0.7c0.3-0.8,0.8-1.5,1.6-2.1h0.1v0.1l1.5,3.2h-2.9
	C18,16.2,17.8,16.2,17.8,16.1z M23.3,22.8c-2.7,0-4.8-2.2-4.8-4.8c0-0.2,0-0.5,0.1-0.7v-0.1h1.7v0.1c0,0.2-0.1,0.4-0.1,0.6
	c0,1.7,1.4,3.2,3.1,3.2c1.7,0,3.2-1.4,3.2-3.2c0-0.2,0-0.4-0.1-0.6v-0.1h1.7v0.1c0,0.2,0,0.5,0,0.7C28.1,20.6,26,22.8,23.3,22.8z
	 M29,16.1c-0.1,0.1-0.3,0.1-0.5,0.1h-4l0,0l-2-4.3h0.1c2.1-0.2,5.1,0.5,6.3,3.3C29,15.5,29,15.9,29,16.1z"/>
<g class="st0">
	<path class="st3" d="M25,23.6c2.4,0,4.3-1.9,4.3-4.3v-0.5h0.9c0.2,0,0.3-0.1,0.3-0.2c0.1-0.1,0.1-0.2,0.1-0.3l0,0
		c-0.4-2.6-2.4-4.5-5-4.8h-0.2v-0.2c1-5.5-0.2-11.5-3.2-15.7l-0.1-0.2l0.2-0.1c1.6-0.5,2.6-1.9,2.6-3.5c0-0.3-0.2-0.4-0.4-0.4h-27
		c-2.8,0-5.1,2.3-5.1,5.1v16.9v0.1c-0.8,0.8-1.3,1.9-1.5,3l0,0c0,0.1,0,0.2,0.1,0.3S-8.8,19-8.6,19h1v0.2c-0.1,1.2,0.3,2.4,1.2,3.3
		c0.8,0.9,1.9,1.4,3.1,1.4s2.3-0.5,3.1-1.4C0.6,21.6,1,20.4,1,19.2V19h19.5v0.5C20.8,21.7,22.8,23.6,25,23.6 M28.5,19.2
		c0,2-1.5,3.5-3.4,3.5c-1,0-1.9-0.4-2.6-1.1c-0.7-0.7-1-1.7-0.9-2.6v-0.2h0.2c0.2,0,0.2,0,0.3,0c0.2,0,1,0,6.1-0.1h0.2v0.5H28.5z
		 M25.5,14.3h0.2c1.9,0.2,3.5,1.5,4.1,3.3l0.1,0.2h-5.5l0.1-0.3C24.8,16.5,25.2,15.4,25.5,14.3L25.5,14.3z M25,7.5L25,7.5v0.2h-4.7
		V-2.7h1l0.1,0.1C23.3,0,24.8,3.7,25,7.5 M-6.5-1.6c0-2.3,1.9-4.2,4.2-4.2h26.4L24-5.6c-0.3,1.2-1.4,2.1-2.7,2.1H3.8
		c-1,0-1.9,0.9-1.9,1.9v9.4h-8.4V-1.6z M11.3,8.5V8.3H11V7h4.5v1.5H11.3z M14.3,15.3H11V9.4h3.2V15.3z M15.1,9.4h0.2
		c0.6,0,1-0.4,1-1V7.2c0-0.6-0.4-1-1-1h-4.4v-8.8h8.4v17.9H15L15.1,9.4L15.1,9.4z M10.1-2.7v17.9H6l0,0l-1.1-6c-0.2-0.8-1-1.5-2-1.5
		H2.7v-9.3c0-0.5,0.5-1,1-1h6.4V-2.7z M-0.6,21.6c-0.7,0.7-1.6,1.1-2.5,1.1c-1,0-1.9-0.4-2.5-1.1c-0.7-0.7-1-1.7-0.9-2.7v-0.2h6.8
		v0.2C0.4,19.9,0.1,20.9-0.6,21.6 M-7.9,17.9l0.1-0.2c0.7-2,2.6-3.4,4.7-3.4s4,1.4,4.7,3.4l0.1,0.2H-7.9z M4.3,17.9L4.3,17.9
		c-0.6,0-1,0-1.3,0H2.5v-0.1c-0.7-2.6-3-4.4-5.6-4.4c-1.1,0-2.2,0.3-3.1,0.9l-0.3,0.2V8.6h0.3V8.5h0.1v0.1h9c0.6,0,1,0.4,1.1,0.9
		l1.2,6.4c0,0.2,0.2,0.3,0.4,0.3h14.2c0.3,0,0.4-0.2,0.4-0.4V8.6h4.8v0.2c0.1,3.1-0.5,6.3-1.8,9l-0.1,0.1h-0.1
		C11.6,17.9,6.5,17.9,4.3,17.9"/>
</g>
<g class="st0">
	<path class="st1" d="M31.5,18.9v-2.1c0-0.3-0.2-0.5-0.5-0.5s-0.5,0.2-0.5,0.5v2.1c0,0.3-0.2,0.5-0.5,0.5h-0.9v-0.1
		c-0.4-1.9-2-3.2-3.9-3.2h-4.9c-0.3,0-0.5-0.2-0.5-0.5V6.4c0-0.3,0.2-0.5,0.5-0.5h2.1v4c0,1.2,0.9,2.1,2.1,2.1h6v2
		c0,0.3,0.2,0.5,0.5,0.5s0.5-0.2,0.5-0.5V9.9c0-2.7-2.2-4.9-4.9-4.9h-6.3c-0.8,0-1.5,0.7-1.5,1.5v6.8h-2V12c0-0.9-0.4-1.7-1.1-2.2
		l-0.1-0.1l0.4-0.5c0.4-0.5,0.5-1.1,0.4-1.7l-1-4.1c-0.2-1-0.8-1.9-1.6-2.5L5.4-5.8c-0.8-0.6-1.8-1-2.9-1h-4.2
		c-0.6,0-1.2,0.3-1.6,0.8l-3.3,4.2C-7-1.3-7.1-0.7-7-0.1L-6,4c0.2,1,0.8,1.9,1.6,2.5l3.3,2.6l-2.1,4.2h-1.2c-1.3,0-2.4,0.7-3,1.9
		l-2,4.2c-0.1,0.2-0.1,0.5,0,0.7s0.4,0.3,0.6,0.3H-6v0.1c0,0.1,0,0.1,0,0.2c0,1.7,1.4,3.1,3.1,3.1s3.1-1.4,3.1-3.1
		c0-0.1,0-0.1,0-0.2v-0.1h1v0.1c0,0.1,0,0.1,0,0.2c0,1.7,1.4,3.1,3.1,3.1s3.1-1.4,3.1-3.1c0-0.1,0-0.1,0-0.2v-0.1h5v0.1
		c0.1,0.6,0.5,1,1.1,1H16c0.6,0,1.1-0.4,1.1-1v-0.1h4.1v0.1c0,0.1,0,0.1,0,0.2c0,1.7,1.4,3.1,3.1,3.1s3.1-1.4,3.1-3.1
		c0-0.1,0-0.1,0-0.2v-0.1h2.4C30.8,20.4,31.5,19.7,31.5,18.9 M23.3,5.9h3.3c2.2,0,4,1.8,4,4v1.2h-6.1c-0.6,0-1.2-0.5-1.2-1.2V5.9z
		 M15.8,12v1.2h-3l2.2-2.7l0.1,0.1C15.5,10.9,15.8,11.5,15.8,12 M-4.9,4.5L-5,4.3c-0.1-0.2-0.1-0.4-0.2-0.5l-1-4.1
		C-6.3-0.6-6.2-1-6-1.2l3.3-4.2c0.2-0.3,0.5-0.4,0.9-0.4h4.2c0.2,0,0.4,0,0.6,0h0.2L-4.9,4.5z M-3.9,5.8C-4,5.7-4.2,5.6-4.3,5.4
		l-0.1-0.1l0.1-0.1L4.1-5.5l0.1,0.1c0.2,0.1,0.3,0.2,0.5,0.3l8.5,6.7c0.1,0.1,0.3,0.2,0.4,0.4l0.1,0.1l-1.4,1.8
		c-0.2,0.2-0.1,0.5,0.1,0.7s0.5,0.1,0.7-0.1l1.3-1.6l0.1,0.2c0.1,0.2,0.1,0.4,0.2,0.5l1,4.1c0.1,0.3,0,0.7-0.2,0.9l-3.3,4.2
		c-0.2,0.3-0.5,0.4-0.9,0.4H7.2c-0.2,0-0.4,0-0.6,0H6.4l5.1-6.5c0.1-0.1,0.1-0.2,0.1-0.3c0-0.1-0.1-0.2-0.2-0.3
		c-0.2-0.2-0.5-0.1-0.7,0.1l-5.3,6.7l-0.1-0.1c-0.2-0.1-0.3-0.2-0.5-0.3L-3.9,5.8z M-0.5,9.7l4.6,3.6h-6.4L-0.5,9.7z M-2.9,22.9
		c-1.2,0-2.2-1-2.2-2.2s1-2.2,2.2-2.2s2.2,1,2.2,2.2S-1.7,22.9-2.9,22.9 M4.3,22.9c-1.2,0-2.2-1-2.2-2.2s1-2.2,2.2-2.2
		s2.2,1,2.2,2.2S5.5,22.9,4.3,22.9 M7.3,19.4L7.3,19.4c-0.6-1.2-1.7-1.9-2.9-1.9c-1.2,0-2.3,0.7-2.8,1.8v0.1H0.1v-0.1
		c-0.5-1.1-1.6-1.8-2.8-1.8s-2.3,0.7-2.8,1.8v0.1h-0.7l1.5-3.1c0.1-0.2,0.2-0.3,0.4-0.3H6.2c0.2,0,0.3,0.1,0.4,0.2l1.5,3.1L7.3,19.4
		L7.3,19.4z M9.3,19.4c-0.1,0-0.2-0.1-0.3-0.2l-1.7-3.3C7,15.4,6.5,15.1,6,15.1H-4.5c-0.5,0-1,0.3-1.3,0.8l-1.6,3.3
		c0,0.1-0.1,0.2-0.3,0.2h-0.7h-0.1l1.9-3.9c0.4-0.8,1.2-1.3,2.1-1.3H6c0.9,0,1.7,0.5,2.1,1.3l2,3.9H9.3z M16.3,20.4
		c0,0.1-0.1,0.2-0.2,0.2h-2.5c-0.1,0-0.2-0.1-0.2-0.2v-1.9c0-0.3-0.2-0.5-0.5-0.5s-0.5,0.2-0.5,0.5v1h-1.3v-0.1l-1.6-3.3h6.8V20.4z
		 M9,15.2L9,15.2c-0.2-0.3-0.3-0.5-0.5-0.7l-0.2-0.2h10.4v1L9,15.2L9,15.2z M24.5,22.9c-1.2,0-2.2-1-2.2-2.2s1-2.2,2.2-2.2
		s2.2,1,2.2,2.2S25.8,22.9,24.5,22.9 M27.5,19.4L27.5,19.4c-0.6-1.2-1.7-1.9-2.9-1.9s-2.3,0.7-2.8,1.8v0.1h-4.4v-3.3h1.6v0.1
		c0.2,0.5,0.8,0.9,1.3,0.9h4.9c1.4,0,2.6,0.9,2.9,2.2v0.2h-0.6V19.4z"/>
</g>
<g>
	<path class="st4" d="M12.3,1.9c-0.1,0-0.4-0.1-0.3-0.3c0-0.2,0-0.4-0.2-0.5c-0.2-0.1-0.2-0.2-0.3-0.5c-0.1-0.2-0.3-0.3-0.5-0.3
		c-0.2,0-0.5,0.1-0.5,0.3c-0.1,0.3-0.1,0.4-0.3,0.5C10,1.2,10,1.3,10,1.5c0.1,0.3-0.2,0.3-0.3,0.3c-0.2,0-0.5,0.3-0.4,1.3
		c0.1,0.5,0.9,0.7,1.7,0.6c0.8,0,1.6-0.1,1.7-0.6C12.8,2.2,12.5,1.9,12.3,1.9z"/>
	<polygon class="st5" points="7.5,10.4 14.3,10.4 14.8,11.1 11,12.9 7.1,11.1 	"/>
	<path class="st6" d="M7.7,10.7l3.3,0.1V9.1c-3.7,0-6.7,0.2-7.9,0.3c-1.7,0.2-2.2,2.2-0.3,2.9c2,0.8,8.6,2.3,10.8,2.8l0.5-1.6
		L7.7,10.7z"/>
	<path class="st5" d="M14.1,13.5l-3.8-1.6l-3.7,1.6c2.6,0.7,5.6,1.4,7,1.7L14.1,13.5z"/>
	<polygon class="st7" points="15.4,14 14.7,13.7 15.2,16 15.9,16.7 	"/>
	<path class="st8" d="M14.1,13.5l-0.5,1.6c0.5,0.1,0.7,0.2,0.7,0.2l0.9,0.8l-0.4-2.3L14.1,13.5z"/>
	<path class="st6" d="M14.3,10.7L11,10.8V9.1c3.7,0,6.7,0.2,7.9,0.3c1.7,0.2,2.2,2.2,0.3,2.9c-2,0.8-8.6,2.3-10.8,2.8l-0.5-1.6
		L14.3,10.7z"/>
	<polygon class="st7" points="6.6,14 7.3,13.7 6.8,16 6.1,16.7 	"/>
	<path class="st8" d="M7.9,13.5l0.5,1.6c-0.5,0.1-0.7,0.2-0.7,0.2L6.8,16l0.4-2.3L7.9,13.5z"/>
	<path class="st9" d="M18.7,4.5C18,5.2,16.9,6.3,16.3,7c-0.4-1.6-2.5-5-5.3-5c-2.8,0-4.9,3.4-5.3,5C5.1,6.3,4,5.2,3.3,4.5l-1.2,1
		C3,7.2,4.2,9.5,5,10.3c1.3,1.2,2.5,0.1,2.8-0.7C8.1,8.9,9,6.4,9,6.4l0.3,2.7h3.5L13,6.4c0,0,0.9,2.4,1.2,3.2
		c0.3,0.8,1.5,1.9,2.8,0.7c0.8-0.7,2-3.1,2.9-4.8L18.7,4.5z"/>
	<polygon class="st10" points="12.8,8.7 12.7,9.1 9.3,9.1 9.2,8.7 	"/>
	<path class="st6" d="M20.9,3.1c-0.1,0.1-0.3,0.4-0.3,0.4s0.2-0.4,0.3-0.5c0.1-0.2,0-0.2-0.1-0.1C20.6,3,20.5,3,20.3,3.3
		c0-0.2,0-0.3-0.1-0.4c-0.1-0.1-0.2-0.1-0.3,0c-0.1,0.1,0,0.1,0,0.1c0.3-0.1,0.2,0.3,0,0.4c-0.3,0.3-0.3-0.1-0.2-0.2
		c0.1-0.1,0.1-0.2-0.1-0.1c-0.2,0.1-0.3,0.3-0.2,0.6c0,0-0.3,0.3-0.8,0.7l1.2,1c0.6-1.2,1-2.2,1.1-2.2C21,3,21,2.9,20.9,3.1z"/>
	<path class="st6" d="M1.1,3.1c0.1,0.1,0.3,0.4,0.3,0.4S1.2,3.1,1.2,2.9c-0.1-0.2,0-0.2,0.1-0.1C1.4,3,1.5,3,1.7,3.3
		c0-0.2,0-0.3,0.1-0.4c0.1-0.1,0.2-0.1,0.3,0c0.1,0.1,0,0.1,0,0.1C1.8,2.9,1.9,3.3,2,3.5c0.3,0.3,0.3-0.1,0.2-0.2
		C2.1,3.1,2.2,3.1,2.3,3.1c0.2,0.1,0.3,0.3,0.2,0.6c0,0,0.3,0.3,0.8,0.7l-1.2,1C1.5,4.2,1.1,3.3,1,3.2C1,3,1,2.9,1.1,3.1z"/>
	<polygon class="st11" points="12.8,8.7 12.7,9.1 9.3,9.1 9.2,8.7 	"/>
	<g>
		<path class="st12" d="M10.7,2.2c0-0.2,0.1-1,0.1-1l0.4,0.3c0,0,0.1,0.6,0.1,0.8c0,0.2-0.1,0.3-0.3,0.3C10.8,2.5,10.7,2.4,10.7,2.2
			z"/>
		<path class="st12" d="M11,0.7l-0.3,0.1c0,0,0,0.2,0,0.3c0,0.3,0,0.4,0.1,0.4c0.1,0.1,0.1,0.1,0.3,0.1c0.1,0,0.2,0,0.3-0.1
			c0-0.1,0.1-0.2,0.1-0.4c0-0.1,0-0.3,0-0.3L11,0.7z"/>
		<g>
			<path class="st4" d="M11,0.6h0.3l0.2,0.2c0,0-0.1,0.1-0.1,0.1c-0.1,0-0.2,0-0.3-0.2V0.6z"/>
			<path class="st4" d="M11,0.6h-0.3l-0.2,0.2c0,0,0.1,0.1,0.1,0.1c0.1,0,0.2,0,0.3-0.2V0.6z"/>
		</g>
	</g>
	<g>
		<defs>
			<path id="SVGID_1_" d="M18.7,4.5C18,5.2,16.9,6.3,16.3,7c-0.4-1.6-2.5-5-5.3-5c-2.8,0-4.9,3.4-5.3,5C5.1,6.3,4,5.2,3.3,4.5
				l-1.2,1C3,7.2,4.2,9.5,5,10.3c1.3,1.2,2.5,0.1,2.8-0.7C8.1,8.9,9,6.4,9,6.4l0.3,2.7h3.5L13,6.4c0,0,0.9,2.4,1.2,3.2
				c0.3,0.8,1.5,1.9,2.8,0.7c0.8-0.7,2-3.1,2.9-4.8L18.7,4.5z"/>
		</defs>
		<clipPath id="SVGID_2_">
			<use xlink:href="#SVGID_1_"  style="overflow:visible;"/>
		</clipPath>
		<path class="st13" d="M16.3,7c-0.5,0.7-1,1.4-1,1.4"/>
		<path class="st13" d="M5.7,7c0.5,0.7,1,1.4,1,1.4"/>
	</g>
</g>
</svg>
