<?xml version="1.0" encoding="utf-8"?>
<!-- Generator: Adobe Illustrator 19.2.1, SVG Export Plug-In . SVG Version: 6.00 Build 0)  -->
<svg version="1.1" id="Layer_1" xmlns="http://www.w3.org/2000/svg" xmlns:xlink="http://www.w3.org/1999/xlink" x="0px" y="0px"
	 viewBox="0 0 35 35" style="enable-background:new 0 0 35 35;" xml:space="preserve">
<style type="text/css">
	.st0{display:none;}
	.st1{display:inline;fill:#39435B;}
	.st2{display:none;fill:#3A445B;}
	.st3{display:inline;fill:#3A445B;}
</style>
<g class="st0">
	<path class="st1" d="M29.3,13.2c-0.2,0-0.4,0.2-0.4,0.4v3.6c0,0.2,0.2,0.4,0.4,0.4h5.3c0.2,0,0.4-0.2,0.4-0.4
		c0-0.2-0.2-0.4-0.4-0.4h-4.9v-3.2C29.8,13.4,29.5,13.2,29.3,13.2"/>
	<path class="st1" d="M30.3,20h-0.8c-0.2,0-0.4,0.2-0.4,0.4c0,0.2,0.2,0.4,0.4,0.4h0.8c0.2,0,0.4-0.2,0.4-0.4S30.5,20,30.3,20"/>
	<path class="st1" d="M41.6,26.2h2.1v-5.8c0-1.7-1.1-2.1-2.4-2.4c-0.1,0-0.2,0-0.3-0.1c-3.1-0.6-3.7-1.2-3.8-1.5
		c-1.4-5.3-5.5-5.3-8.5-5.3h-1.9v14.2h-1.5V6.8h-34v19.4H-7v0.2c0.3,1.1,1.2,1.8,2.3,1.8s2-0.7,2.3-1.8v-0.2h0.9v0.2
		c0.3,1.1,1.2,1.8,2.3,1.8s2-0.7,2.3-1.8v-0.2h9.2v0.2c0.3,1.1,1.2,1.8,2.3,1.8s2-0.7,2.3-1.8v-0.2h0.9v0.2c0.3,1.1,1.2,1.8,2.3,1.8
		c1.1,0,2-0.7,2.3-1.8v-0.2h13.9l0.1,0.2c0.3,1,1.2,1.7,2.3,1.7c1,0,2-0.7,2.3-1.7L41.6,26.2z M-4.6,27.3c-0.8,0-1.5-0.7-1.5-1.5
		s0.7-1.5,1.5-1.5s1.5,0.7,1.5,1.5C-3,26.6-3.7,27.3-4.6,27.3 M1.1,27.3c-0.8,0-1.5-0.7-1.5-1.5s0.7-1.5,1.5-1.5s1.5,0.7,1.5,1.5
		C2.6,26.6,1.9,27.3,1.1,27.3 M15,27.3c-0.8,0-1.5-0.7-1.5-1.5s0.7-1.5,1.5-1.5s1.5,0.7,1.5,1.5C16.5,26.6,15.9,27.3,15,27.3
		 M20.8,27.3c-0.8,0-1.5-0.7-1.5-1.5s0.7-1.5,1.5-1.5s1.5,0.7,1.5,1.5C22.3,26.6,21.5,27.3,20.8,27.3 M24.3,25.3H23v-0.2
		c-0.3-1.1-1.2-1.8-2.3-1.8s-2.1,0.7-2.3,1.8v0.2h-0.9v-0.2c-0.3-1.1-1.2-1.8-2.3-1.8c-1.1,0-2.1,0.7-2.3,1.8v0.2H3.8v-0.2
		c-0.3-1.1-1.2-1.8-2.3-1.8s-2.1,0.7-2.3,1.8v0.2h-0.9v-0.2C-2,24-2.9,23.3-4,23.3s-2.1,0.7-2.3,1.8v0.2h-1.5V7.7h32.1v17.6H24.3z
		 M39.3,27.2c-0.8,0-1.5-0.7-1.5-1.5s0.7-1.5,1.5-1.5s1.5,0.7,1.5,1.5C40.8,26.5,40.1,27.2,39.3,27.2 M39.3,23.3
		c-1.1,0-2.1,0.8-2.4,1.9v0.2h-9.3V12.1h1c3.1,0,6.4,0,7.6,4.7c0.3,1.2,2.4,1.7,4.5,2.1c0.1,0,0.2,0,0.3,0.1
		c1.1,0.3,1.6,0.5,1.7,1.3v0.3H42c-0.2,0-0.4,0.2-0.4,0.4s0.2,0.4,0.4,0.4h0.7v1.1H42c-0.2,0-0.4,0.2-0.4,0.4c0,0.2,0.2,0.4,0.4,0.4
		h0.7v2.1h-1.1v-0.2C41.5,24.1,40.5,23.3,39.3,23.3"/>
</g>
<g class="st0">
	<path class="st1" d="M31.6,24.1c-0.5,0-1,0.1-1.5,0.3H30l-0.7-1.3H35c0.4,0,0.8-0.3,0.8-0.8v-0.2c0-1.8-1.3-3.3-3.1-3.6L29.1,18
		v-0.1c-0.1-0.5-0.2-1-0.4-1.5L28,15.2c0-0.1-0.1-0.2-0.3-0.2c-0.1,0-0.3,0-0.4,0c-0.1,0.1-0.2,0.2-0.2,0.3c0,0.1,0,0.3,0,0.4
		l0.7,1.3c0.4,0.7,0.5,1.5,0.3,2.2l-1.3,5.6c-0.5,2.1-2.3,3.5-4.4,3.5h-5.8c-1.3,0-2.5-0.9-2.8-2.1v-0.1h1.5c0.3,0,0.5-0.2,0.5-0.5
		s-0.2-0.5-0.5-0.5H0.6l0.1-0.5c0.9-4.2,4.6-7.2,8.9-7.2h0.5c0.3,0,0.5-0.2,0.5-0.5s-0.2-0.5-0.5-0.5H9.6c-0.8,0-1.5,0.1-2.2,0.3
		H7.3v-0.2c0-0.4-0.3-0.7-0.7-0.7c-0.2,0-0.3-0.1-0.5-0.2c-0.1-0.1-0.2-0.3-0.2-0.5c0-0.3,0.3-0.6,0.7-0.6h11c0.6,0,1,0.4,1,1V17
		l-0.1-0.1c-0.5-0.3-1-0.5-1.6-0.5h-4.2c-0.3,0-0.5,0.2-0.5,0.5s0.2,0.5,0.5,0.5h4.2c0.5,0,1,0.2,1.3,0.6s0.4,0.9,0.3,1.4l-1.1,5.5
		c0,0.2,0,0.3,0.1,0.4l0,0c0.1,0.1,0.2,0.2,0.4,0.2h4.5c0.9,0,1.6-0.6,1.8-1.4l1-4.3c0.2-1,0.1-2-0.4-2.9l-3.4-6.4h0.5
		c0.5,0,0.8-0.4,0.8-0.8V8.5c0-0.4-0.2-0.7-0.6-0.8h-0.2l1.9-1.2c0.3-0.2,0.7-0.3,1-0.2c0.4,0.1,0.7,0.3,0.8,0.6
		c0.4,0.6,0.2,1.4-0.4,1.8l-0.7,0.5c-0.4,0.2-0.5,0.7-0.3,1.1l1.7,3.2c0.2,0.2,0.4,0.3,0.6,0.2c0.2-0.1,0.3-0.4,0.2-0.6L25.3,10
		L26,9.6c1-0.7,1.3-2,0.7-3.1c-0.3-0.5-0.8-0.9-1.4-1.1c-0.6-0.2-1.3,0-1.8,0.3L21,7.3c-0.2,0.1-0.3,0.2-0.4,0.4l0,0H20V5
		c0-0.3-0.3-0.6-0.6-0.6H19l0,0c-0.2-1.2-1.2-2.1-2.4-2.1c-1.3,0-2.4,1.1-2.4,2.4s1.1,2.4,2.4,2.4c1,0,1.8-0.6,2.2-1.4L19,5.4v2.3
		h-1.4c-0.8,0-1.4,0.6-1.4,1.4c0,0.8,0.6,1.4,1.4,1.4h2.8l0,0l3.6,6.8c0.4,0.7,0.5,1.5,0.3,2.2l-1,4.3c-0.1,0.4-0.5,0.7-0.9,0.7h-4
		l1.1-5c0-0.2,0.1-0.4,0.1-0.6v-3.5c0-1.1-0.9-1.9-1.9-1.9h-11C5.7,13.5,5,14.2,5,15c0,0.4,0.1,0.9,0.4,1.2c0.2,0.3,0.5,0.4,0.9,0.5
		h0.1v0.2H6.3c-1.1,0.4-2.1,1-3,1.7c-1.8,1.5-3,3.5-3.5,5.7l-0.2,1c0,0.1-0.4,1.4-0.6,2.3c-0.1,0.3,0,0.7,0.2,0.9
		c0.2,0.3,0.5,0.4,0.8,0.4l0,0c0.3,0,0.7-0.2,0.9-0.4L2.7,26h1l-0.1,0.1c-0.4,0.7-0.7,1.5-0.7,2.3c0,2.4,2,4.4,4.3,4.4
		s4.2-1.8,4.3-4.1l0,0l2-0.8l0,0c0.7,0.8,1.8,1.2,2.8,1.2h5.8c2.6,0,4.8-1.8,5.3-4.2l0.4-1.9H28l0,0l0.8,1.7l0,0
		c-1.2,0.8-1.9,2.2-1.9,3.6c0,2.4,2,4.4,4.4,4.4s4.3-2,4.3-4.4C36,26,34,24.1,31.6,24.1z M16.6,6.2c-0.8,0-1.5-0.7-1.5-1.5
		s0.7-1.5,1.5-1.5s1.5,0.7,1.5,1.5S17.5,6.2,16.6,6.2z M17.6,9.6c-0.3,0-0.5-0.2-0.5-0.5s0.2-0.5,0.5-0.5h4.2v1H17.6z M0.1,27.9H0
		c-0.1,0-0.1,0-0.1,0v-0.1L0.4,26h1.2L0.1,27.9z M10.8,29.2c-0.4,1.5-1.7,2.6-3.3,2.6c-1.9,0-3.4-1.5-3.4-3.4c0-0.9,0.3-1.8,1-2.4
		l0,0h3.5l-1.7,0.7c-0.4,0.2-0.8,0.5-1,1s-0.2,1,0,1.4c0.3,0.7,1,1.2,1.7,1.2c0.2,0,0.4,0,0.7-0.1l2.7-1H10.8z M11.1,27.9H11
		l-3.3,1.3c-0.1,0-0.2,0.1-0.3,0.1c-0.1,0-0.3,0-0.4-0.1c-0.2-0.1-0.4-0.3-0.5-0.5c-0.2-0.5,0-1,0.5-1.2l4-1.5h1.7v0.1
		c0.1,0.3,0.2,0.7,0.3,1v0.1L11.1,27.9z M28.5,22.1l0.7-2.8c0-0.1,0-0.2,0.1-0.3v-0.1h0.1l3.4,0.5C34,19.6,35,20.7,35,22v0.1
		C35,22.1,28.5,22.1,28.5,22.1z M31.6,31.8c-1.9,0-3.4-1.5-3.4-3.4c0-1.1,0.5-2.1,1.4-2.7l0.1-0.1l0.6,1.3l0,0
		c-0.4,0.4-0.6,0.9-0.6,1.5c0,1.1,0.9,2,2,2s2-0.9,2-2c0-1.3-1.2-2.3-2.5-2h-0.1l-0.6-1.3h0.1c0.3-0.1,0.7-0.2,1.1-0.2
		c1.9,0,3.4,1.5,3.4,3.4S33.5,31.8,31.6,31.8z M32,28.2l-0.4-0.9h0.1c0.6,0,1,0.5,1,1.1s-0.5,1.1-1.1,1.1s-1.1-0.5-1.1-1.1
		c0-0.2,0-0.3,0.1-0.5l0.1-0.1l0.4,0.8c0.1,0.2,0.2,0.3,0.4,0.3c0.1,0,0.1,0,0.2,0C32,28.7,32.1,28.4,32,28.2z"/>
</g>
<path class="st2" d="M36.1,23.7c-0.7-1.5-1.9-2.7-3.5-3.3c-1.3-0.5-2.8-0.7-4.2-0.5l0,0v-0.1l-0.6-1.3v-1.8h0.1
	c0.3,0.1,0.6,0.2,1,0.2h2c0.7,0,1.2-0.5,1.2-1.2v-3.2c0-0.7-0.5-1.2-1.2-1.2h-2c-0.3,0-0.6,0-1,0.2h-0.1v-2c0-0.3-0.1-0.6-0.2-0.8
	c-0.2-0.5-0.7-0.8-1.2-1l0,0l0,0l-0.9-2l0,0C25.8,5.5,26,5.2,26,4.8v-1c0-0.6-0.4-1-1.1-1.1l-2.8-0.5c-0.3,0-0.6,0-0.8,0.2
	C21,2.6,20.9,3,20.9,3.3v1.5c0,0.6,0.5,1.1,1.1,1.1h2.5l0.8,1.8h-0.1h-2.8c-1,0-1.6,0.7-1.6,1.5s0.5,1.6,1.5,1.6l2.3,0.1v2L24.5,13
	c-0.4-0.3-1-0.6-1.7-0.8c-2.7-0.7-6.6-0.2-8,1.7l0,0h-4.4c-0.3,0-0.5,0.2-0.5,0.5s0.2,0.5,0.5,0.5h4.2V18H0.9c-0.8,0-1.3-0.4-1.3-1
	v-2.4c0-0.3,0.1-0.5,0.2-0.7c0.2-0.2,0.5-0.3,0.8-0.2h1c0.2,0,0.5,0.2,0.8,0.5s0.8,0.7,1.4,0.8v0.1V15h4c0.3,0,0.5-0.2,0.5-0.5
	S8.1,14,7.8,14H4c-0.3,0-0.5-0.2-0.8-0.5c-0.4-0.3-0.8-0.8-1.4-0.8h-1c-0.6,0-1.2,0.1-1.6,0.5c-0.2,0.2-0.5,0.7-0.5,1.4V17
	c0,1.2,0.9,2,2.2,2h3.9l-0.2,0.9H4.5c-2.4,0-5.2,1.2-5.9,3.7c-0.2,0.9-0.2,1.5,0.1,1.9c0.1,0.1,0.2,0.2,0.4,0.3l0,0v0.1
	C-1,26.3-1,26.7-1,27c0,3.2,2.6,5.8,5.8,5.8c2.7,0,5.1-1.9,5.7-4.5v-0.1h2.6c0.3,0,0.5-0.2,0.5-0.5s-0.2-0.5-0.5-0.5H6.5v-0.1
	c0.1-0.2,0.1-0.3,0.1-0.5l0.2-0.8h9.6c0.8,0,1.2-0.2,1.7-0.9l4.4-6h2L24.5,19L19,26.1l0,0c-0.6,1-1.3,1-1.5,1h-2.2
	c-0.3,0-0.5,0.2-0.5,0.5s0.2,0.5,0.5,0.5h2.2c0.9,0,1.7-0.5,2.3-1.4L25,20l0.5,1h-0.1c-1,0.7-1.7,1.6-2.1,2.6
	c-0.3,0.8-0.3,1.5,0,1.9c0.1,0.2,0.3,0.3,0.5,0.4H24l0,0c0,0.3,0,0.5,0,0.8c0,3.2,2.6,5.8,5.8,5.8s5.8-2.6,5.8-5.8
	c0-0.3,0-0.5,0-0.8v-0.1h0.1c0.3-0.1,0.5-0.3,0.6-0.5C36.6,25,36.3,24.1,36.1,23.7z M27.8,12.8L27.8,12.8c0.3-0.2,0.7-0.3,1-0.3h2
	c0.1,0,0.2,0.1,0.2,0.2v3.2c0,0.1-0.1,0.2-0.2,0.2h-2c-0.4,0-0.7-0.1-1-0.3l0,0V12.8z M25,4.9C25,5,25,5.1,24.8,5.1H22
	c-0.1,0-0.2-0.1-0.2-0.2V3.4c0-0.1,0-0.1,0-0.2l0,0l2.8,0.5c0.1,0,0.3,0.1,0.3,0.2v1H25z M-0.2,24.9L-0.2,24.9c-0.2,0-0.2,0-0.2,0
	c-0.1-0.1-0.1-0.4,0-1C0,22.3,2,21.1,4.3,21h0.1l-0.9,4h-3.7C-0.2,24.9-0.2,24.9-0.2,24.9z M7.8,28.2L7.8,28.2h1.8v0.1
	c-0.6,2.1-2.5,3.5-4.7,3.5C2.1,31.8,0,29.6,0,27c0-0.3,0-0.7,0.1-1v-0.1h1.8V26c-0.1,0.3-0.2,0.7-0.2,1c0,1.7,1.4,3.2,3.1,3.2
	C6.1,30.1,7.3,29.3,7.8,28.2z M6.8,28.1l-0.1,0.1c-0.4,0.5-1,0.9-1.7,0.9c-1.2,0-2.2-1-2.2-2.2c0-0.4,0.1-0.7,0.3-1.1l0,0h0.4v0.1
	H3.3h0.1c-0.2,1.2,0.5,2,1.3,2.1h0.1h0.1L6.8,28.1z M7,20.8l-1.3,5.6H5.6h0.1C5.6,27,5.3,27.1,5,27.1H4.9c-0.2,0-0.7-0.2-0.5-1
	l1.5-7.2h1.7L7,20.8L7,20.8L7,20.8z M10.1,24.9h-3l0.7-3.3L8,21.7c0.9,0.5,1.5,1.3,1.9,2.2C9.9,24.1,10,24.5,10.1,24.9L10.1,24.9z
	 M10.3,22.7c-0.5-0.9-1.3-1.6-2.2-2l0,0L8.5,19H14L10.3,22.7L10.3,22.7z M17.4,24.4c-0.3,0.4-0.4,0.4-0.9,0.4h-0.8v-0.1
	c0-0.1,0-0.2,0-0.3c0-0.3,0.1-0.5,0.3-0.7c0.2-0.2,0.5-0.3,0.8-0.3c0.4,0,0.8,0.2,1,0.5l0,0L17.4,24.4z M20.8,20h-3.5
	c-0.3,0-0.5,0.2-0.5,0.5S17,21,17.3,21H20l-1.6,2.2l-0.1-0.1c-0.4-0.4-0.9-0.6-1.5-0.6s-1.1,0.2-1.5,0.6s-0.6,0.8-0.6,1.4
	c0,0.1,0,0.3,0,0.4V25H11v-0.1c0-0.4-0.1-0.7-0.2-1l0,0l4.4-4.8h6.1L20.8,20z M24.6,18h-9.1v-3.4l0,0c1.1-1.6,4.6-2,7-1.4
	c0.6,0.2,2.1,0.7,2.1,1.7V18z M25.3,10.1l-2.8-0.2c-0.5,0-0.6-0.3-0.6-0.6c0-0.1,0.1-0.5,0.6-0.5h3.7c0.3,0,0.5,0.2,0.7,0.4l0,0
	c0,0.1,0.1,0.2,0.1,0.4v9.1c0,0.1,0,0.1,0,0.2l0.8,1.7l0,0l2.6,5.5c0.2,0.4,0,0.7-0.2,0.7c-0.1,0-0.2,0.1-0.3,0.1
	c-0.2,0-0.3-0.1-0.4-0.2L25.6,19v-8.4C25.6,10.3,25.5,10.1,25.3,10.1z M31.3,26.3v-0.1h0.5v0.1c0.1,0.2,0.1,0.5,0.1,0.7
	c0,1.2-1,2.2-2.2,2.2s-2.2-1-2.2-2.2c0-0.2,0-0.5,0.1-0.7v-0.1H28l0.5,1.1c0.2,0.5,0.7,0.8,1.3,0.8c0.3,0,0.5-0.1,0.7-0.2
	C31,27.7,31.5,27.1,31.3,26.3z M24.3,25.1c0,0-0.1-0.1-0.1-0.3c0-0.2,0-0.4,0.2-0.7c0.3-0.8,0.8-1.5,1.6-2.1H26v0.1l1.5,3.2h-2.9
	C24.5,25.2,24.3,25.2,24.3,25.1z M29.8,31.8C27,31.8,25,29.6,25,27c0-0.2,0-0.5,0.1-0.7v-0.1h1.7v0.1c0,0.2-0.1,0.4-0.1,0.6
	c0,1.7,1.4,3.2,3.1,3.2c1.7,0,3.2-1.4,3.2-3.2c0-0.2,0-0.4-0.1-0.6v-0.1h1.7v0.1c0,0.2,0,0.5,0,0.7C34.6,29.6,32.5,31.8,29.8,31.8z
	 M35.5,25.1c-0.1,0.1-0.3,0.1-0.5,0.1h-4l0,0l-2-4.3H29c2.1-0.2,5.1,0.5,6.3,3.3C35.5,24.5,35.5,24.9,35.5,25.1z"/>
<g class="st0">
	<path class="st3" d="M31.5,32.6c2.4,0,4.3-1.9,4.3-4.3v-0.5h0.9c0.2,0,0.3-0.1,0.3-0.2c0.1-0.1,0.1-0.2,0.1-0.3l0,0
		c-0.4-2.6-2.4-4.5-5-4.8h-0.2v-0.2c1-5.5-0.2-11.5-3.2-15.7l-0.1-0.2l0.2-0.1c1.6-0.5,2.6-1.9,2.6-3.5c0-0.3-0.2-0.4-0.4-0.4H4
		c-2.8,0-5.1,2.3-5.1,5.1v16.9v0.1c-0.8,0.8-1.3,1.9-1.5,3l0,0c0,0.1,0,0.2,0.1,0.3S-2.3,28-2.1,28h1v0.2c-0.1,1.2,0.3,2.4,1.2,3.3
		c0.8,0.9,1.9,1.4,3.1,1.4s2.3-0.5,3.1-1.4c0.8-0.9,1.2-2.1,1.2-3.3V28H27v0.5C27.3,30.7,29.3,32.6,31.5,32.6 M35,28.2
		c0,2-1.5,3.5-3.4,3.5c-1,0-1.9-0.4-2.6-1.1c-0.7-0.7-1-1.7-0.9-2.6v-0.2h0.2c0.2,0,0.2,0,0.3,0c0.2,0,1,0,6.1-0.1h0.2v0.5H35z
		 M32,23.3h0.2c1.9,0.2,3.5,1.5,4.1,3.3l0.1,0.2h-5.5l0.1-0.3C31.3,25.5,31.7,24.4,32,23.3L32,23.3z M31.5,16.5L31.5,16.5v0.2h-4.7
		V6.3h1l0.1,0.1C29.8,9,31.3,12.7,31.5,16.5 M0,7.4c0-2.3,1.9-4.2,4.2-4.2h26.4l-0.1,0.2c-0.3,1.2-1.4,2.1-2.7,2.1H10.3
		c-1,0-1.9,0.9-1.9,1.9v9.4H0V7.4z M17.8,17.5v-0.2h-0.2V16H22v1.5H17.8z M20.8,24.3h-3.2v-5.9h3.2V24.3z M21.6,18.4h0.2
		c0.6,0,1-0.4,1-1v-1.2c0-0.6-0.4-1-1-1h-4.4V6.4h8.4v17.9h-4.3L21.6,18.4L21.6,18.4z M16.6,6.3v17.9h-4.1l0,0l-1.1-6
		c-0.2-0.8-1-1.5-2-1.5H9.2V7.4c0-0.5,0.5-1,1-1h6.4V6.3z M5.9,30.6c-0.7,0.7-1.6,1.1-2.5,1.1c-1,0-1.9-0.4-2.5-1.1
		c-0.7-0.7-1-1.7-0.9-2.7v-0.2h6.8v0.2C6.9,28.9,6.6,29.9,5.9,30.6 M-1.4,26.9l0.1-0.2c0.7-2,2.6-3.4,4.7-3.4s4,1.4,4.7,3.4l0.1,0.2
		H-1.4z M10.8,26.9L10.8,26.9c-0.6,0-1,0-1.3,0H9v-0.1c-0.7-2.6-3-4.4-5.6-4.4c-1.1,0-2.2,0.3-3.1,0.9L0,23.5v-5.9h0.3v-0.1h0.1v0.1
		h9c0.6,0,1,0.4,1.1,0.9l1.2,6.4c0,0.2,0.2,0.3,0.4,0.3h14.2c0.3,0,0.4-0.2,0.4-0.4v-7.2h4.8v0.2c0.1,3.1-0.5,6.3-1.8,9l-0.1,0.1
		h-0.1C18.1,26.9,13,26.9,10.8,26.9"/>
</g>
<g class="st0">
	<path class="st1" d="M3.6,29.2c-0.3,0-0.5,0.2-0.5,0.5s0.2,0.5,0.5,0.5s0.5-0.2,0.5-0.5S3.9,29.2,3.6,29.2"/>
	<path class="st1" d="M31,29.2c-0.3,0-0.5,0.2-0.5,0.5s0.2,0.5,0.5,0.5s0.5-0.2,0.5-0.5S31.3,29.2,31,29.2"/>
	<path class="st1" d="M38,27.9v-2.1c0-0.3-0.2-0.5-0.5-0.5S37,25.5,37,25.8v2.1c0,0.3-0.2,0.5-0.5,0.5h-0.9v-0.1
		c-0.4-1.9-2-3.2-3.9-3.2h-4.9c-0.3,0-0.5-0.2-0.5-0.5v-9.2c0-0.3,0.2-0.5,0.5-0.5h2.1v4c0,1.2,0.9,2.1,2.1,2.1h6v2
		c0,0.3,0.2,0.5,0.5,0.5S38,23.3,38,23v-4.1c0-2.7-2.2-4.9-4.9-4.9h-6.3c-0.8,0-1.5,0.7-1.5,1.5v6.8h-2V21c0-0.9-0.4-1.7-1.1-2.2
		l-0.1-0.1l0.4-0.5c0.4-0.5,0.5-1.1,0.4-1.7l-1-4.1c-0.2-1-0.8-1.9-1.6-2.5l-8.5-6.7c-0.8-0.6-1.8-1-2.9-1H4.8
		C4.2,2.2,3.6,2.5,3.2,3l-3.3,4.2c-0.4,0.5-0.5,1.1-0.4,1.7l1,4.1c0.2,1,0.8,1.9,1.6,2.5l3.3,2.6l-2.1,4.2H2c-1.3,0-2.4,0.7-3,1.9
		l-2,4.2c-0.1,0.2-0.1,0.5,0,0.7s0.4,0.3,0.6,0.3h2.9v0.1c0,0.1,0,0.1,0,0.2c0,1.7,1.4,3.1,3.1,3.1s3.1-1.4,3.1-3.1
		c0-0.1,0-0.1,0-0.2v-0.1h1v0.1c0,0.1,0,0.1,0,0.2c0,1.7,1.4,3.1,3.1,3.1s3.1-1.4,3.1-3.1c0-0.1,0-0.1,0-0.2v-0.1h5v0.1
		c0.1,0.6,0.5,1,1.1,1h2.5c0.6,0,1.1-0.4,1.1-1v-0.1h4.1v0.1c0,0.1,0,0.1,0,0.2c0,1.7,1.4,3.1,3.1,3.1s3.1-1.4,3.1-3.1
		c0-0.1,0-0.1,0-0.2v-0.1h2.4C37.3,29.4,38,28.7,38,27.9 M29.8,14.9h3.3c2.2,0,4,1.8,4,4v1.2H31c-0.6,0-1.2-0.5-1.2-1.2V14.9z
		 M22.3,21v1.2h-3l2.2-2.7l0.1,0.1C22,19.9,22.3,20.5,22.3,21 M1.6,13.5l-0.1-0.2c-0.1-0.2-0.1-0.4-0.2-0.5l-1-4.1
		C0.2,8.4,0.3,8,0.5,7.8l3.3-4.2C4,3.3,4.3,3.2,4.7,3.2h4.2c0.2,0,0.4,0,0.6,0h0.2L1.6,13.5z M2.6,14.8c-0.1-0.1-0.3-0.2-0.4-0.4
		l-0.1-0.1l0.1-0.1l8.4-10.7l0.1,0.1C11,3.7,11,3.8,11.3,3.9l8.5,6.7c0.1,0.1,0.3,0.2,0.4,0.4l0.1,0.1l-1.4,1.8
		c-0.2,0.2-0.1,0.5,0.1,0.7s0.5,0.1,0.7-0.1l1.3-1.6l0.1,0.2c0.1,0.2,0.1,0.4,0.2,0.5l1,4.1c0.1,0.3,0,0.7-0.2,0.9l-3.3,4.2
		c-0.2,0.3-0.5,0.4-0.9,0.4h-4.2c-0.2,0-0.4,0-0.6,0h-0.2l5.1-6.5c0.1-0.1,0.1-0.2,0.1-0.3c0-0.1-0.1-0.2-0.2-0.3
		c-0.2-0.2-0.5-0.1-0.7,0.1l-5.3,6.7l-0.1-0.1c-0.2-0.1-0.3-0.2-0.5-0.3L2.6,14.8z M6,18.7l4.6,3.6H4.3L6,18.7z M3.6,31.9
		c-1.2,0-2.2-1-2.2-2.2s1-2.2,2.2-2.2s2.2,1,2.2,2.2S4.8,31.9,3.6,31.9 M10.8,31.9c-1.2,0-2.2-1-2.2-2.2s1-2.2,2.2-2.2
		s2.2,1,2.2,2.2S12,31.9,10.8,31.9 M13.8,28.4L13.8,28.4c-0.6-1.2-1.7-1.9-2.9-1.9c-1.2,0-2.3,0.7-2.8,1.8v0.1H6.6v-0.1
		c-0.5-1.1-1.6-1.8-2.8-1.8S1.5,27.2,1,28.3v0.1H0.3l1.5-3.1C1.9,25.1,2,25,2.2,25h10.5c0.2,0,0.3,0.1,0.4,0.2l1.5,3.1L13.8,28.4
		L13.8,28.4z M15.8,28.4c-0.1,0-0.2-0.1-0.3-0.2l-1.7-3.3c-0.2-0.5-0.7-0.8-1.3-0.8H2c-0.5,0-1,0.3-1.3,0.8l-1.6,3.3
		c0,0.1-0.1,0.2-0.3,0.2h-0.7H-2l1.9-3.9c0.4-0.8,1.2-1.3,2.1-1.3h10.5c0.9,0,1.7,0.5,2.1,1.3l2,3.9H15.8z M22.8,29.4
		c0,0.1-0.1,0.2-0.2,0.2h-2.5c-0.1,0-0.2-0.1-0.2-0.2v-1.9c0-0.3-0.2-0.5-0.5-0.5s-0.5,0.2-0.5,0.5v1h-1.3v-0.1L16,25.1h6.8V29.4z
		 M15.5,24.2L15.5,24.2c-0.2-0.3-0.3-0.5-0.5-0.7l-0.2-0.2h10.4v1L15.5,24.2L15.5,24.2z M31,31.9c-1.2,0-2.2-1-2.2-2.2
		s1-2.2,2.2-2.2s2.2,1,2.2,2.2S32.3,31.9,31,31.9 M34,28.4L34,28.4c-0.6-1.2-1.7-1.9-2.9-1.9s-2.3,0.7-2.8,1.8v0.1h-4.4v-3.3h1.6
		v0.1c0.2,0.5,0.8,0.9,1.3,0.9h4.9c1.4,0,2.6,0.9,2.9,2.2v0.2H34V28.4z"/>
	<path class="st1" d="M10.8,29.2c-0.3,0-0.5,0.2-0.5,0.5s0.2,0.5,0.5,0.5s0.5-0.2,0.5-0.5S11.1,29.2,10.8,29.2"/>
	<path class="st1" d="M31.3,22H30c-0.3,0-0.5,0.2-0.5,0.5S29.7,23,30,23h1.3c0.3,0,0.5-0.2,0.5-0.5C31.8,22.3,31.5,22,31.3,22"/>
</g>
<g>
	<defs>
		<rect id="SVGID_1_" x="1.9" y="5" width="31.2" height="25"/>
	</defs>
	<clipPath id="SVGID_2_">
		<use xlink:href="#SVGID_1_"  style="overflow:visible;"/>
	</clipPath>
	<g style="clip-path:url(#SVGID_2_);">
		
			<image style="overflow:visible;" width="2212" height="540" xlink:href="LI-Logo.png"  transform="matrix(4.629629e-002 0 0 4.629629e-002 -69.3287 5)">
		</image>
	</g>
</g>
</svg>
