<?xml version="1.0" encoding="utf-8"?>
<!-- Generator: Adobe Illustrator 19.2.1, SVG Export Plug-In . SVG Version: 6.00 Build 0)  -->
<svg version="1.1" id="Layer_1" xmlns="http://www.w3.org/2000/svg" xmlns:xlink="http://www.w3.org/1999/xlink" x="0px" y="0px"
	 viewBox="0 0 150 20" style="enable-background:new 0 0 150 20;" xml:space="preserve">
<style type="text/css">
	.st0{fill:#222324;}
	.st1{fill:#7DCFDA;}
</style>
<g>
	<path class="st0" d="M6.3,16.8L3.1,5h1.3c0.8,3.3,2.4,9,2.6,10.4h0c0.3-1.3,2-7.3,2.8-10.4h1.2c0.7,2.8,2.5,9.2,2.7,10.4h0
		C14.2,13.6,16,7.7,16.8,5H18l-3.5,11.7h-1.3c-0.7-2.7-2.4-9-2.7-10.2h0c-0.3,1.6-2,7.4-2.8,10.2H6.3z"/>
	<path class="st0" d="M33.8,11.1h-5.9v4.6h6.5l-0.2,1.1h-7.5V5h7.4v1.1h-6.2v4h5.9V11.1z"/>
	<path class="st1" d="M45.5,16.8L42.3,5h1.3c0.8,3.3,2.4,9,2.6,10.4h0c0.3-1.3,2-7.3,2.8-10.4h1.2c0.7,2.8,2.5,9.2,2.7,10.4h0
		c0.4-1.8,2.2-7.7,2.9-10.4h1.2l-3.5,11.7h-1.3c-0.7-2.7-2.4-9-2.7-10.2h0c-0.3,1.6-2,7.4-2.8,10.2H45.5z"/>
	<path class="st1" d="M75.8,10.8c0,3.2-1.8,6.1-5.4,6.1c-3.4,0-5.3-2.7-5.3-6c0-3.3,1.9-6,5.4-6C73.7,4.9,75.8,7.4,75.8,10.8z
		 M66.3,10.9c0,2.6,1.4,5,4.1,5c2.9,0,4.1-2.4,4.1-5c0-2.6-1.3-4.9-4.1-4.9C67.6,5.9,66.3,8.3,66.3,10.9z"/>
	<path class="st1" d="M85,16.8V5h1.7c1.8,2.8,5.8,9,6.5,10.3h0c-0.1-1.6-0.1-3.4-0.1-5.3V5h1.2v11.7h-1.6c-1.7-2.6-5.8-9.2-6.6-10.5
		h0c0.1,1.5,0.1,3.3,0.1,5.4v5.1H85z"/>
	<path class="st1" d="M104.3,5h4c3.3,0,5.5,2.2,5.5,5.8c0,3.5-2.2,6-5.5,6h-4V5z M105.5,15.7h2.7c2.9,0,4.4-2.1,4.4-4.9
		c0-2.5-1.3-4.7-4.4-4.7h-2.7V15.7z"/>
	<path class="st1" d="M141,11.4v5.3h-1.2V5h4.4c2.4,0,3.6,1.3,3.6,3.1c0,1.5-0.9,2.5-2.1,2.8c1.1,0.3,1.9,1,1.9,3v0.5
		c0,0.8-0.1,1.9,0.2,2.4h-1.2c-0.2-0.5-0.2-1.4-0.2-2.5V14c0-1.8-0.5-2.6-2.7-2.6H141z M141,10.4h2.7c1.9,0,2.8-0.7,2.8-2.2
		c0-1.4-0.9-2.1-2.6-2.1H141V10.4z"/>
</g>
<g>
	<path class="st1" d="M122.4,15.7h8.9v1.1h-8.9V15.7z M122.4,10.3h8.9v1.1h-8.9V10.3z M122.4,5h8.9v1.1h-8.9V5z"/>
</g>
</svg>
