<svg id="Layer_1" data-name="Layer 1" xmlns="http://www.w3.org/2000/svg" viewBox="0 0 150 20"><defs><style>.cls-1{fill:#fff;}.cls-2{fill:#7dcfda;}</style></defs><title>cs</title><path class="cls-1" d="M5.33,15.78L2.12,4H3.38c0.84,3.28,2.39,9,2.64,10.39H6C6.29,13.16,8.08,7.1,8.87,4h1.24c0.74,2.76,2.5,9.23,2.72,10.36h0C13.21,12.58,15,6.67,15.76,4H17L13.45,15.78H12.12C11.38,13,9.7,6.8,9.46,5.61h0c-0.32,1.63-2,7.36-2.8,10.18H5.33Z"/><path class="cls-1" d="M32.79,10.14H26.87v4.58h6.49L33.2,15.78H25.68V4h7.4V5.11H26.87v4h5.92v1.06Z"/><path class="cls-2" d="M44.49,15.78L41.29,4h1.26c0.84,3.28,2.39,9,2.64,10.39h0C45.46,13.16,47.24,7.1,48,4h1.24C50,6.8,51.77,13.27,52,14.4h0C52.38,12.58,54.19,6.67,54.93,4h1.2L52.61,15.78H51.29c-0.74-2.74-2.43-9-2.67-10.18h0c-0.32,1.63-2,7.36-2.8,10.18H44.49Z"/><path class="cls-2" d="M74.78,9.84C74.78,13.05,73,16,69.37,16c-3.37,0-5.3-2.67-5.3-6s1.91-6,5.43-6C72.75,3.88,74.78,6.39,74.78,9.84Zm-9.44,0c0,2.63,1.41,5,4.09,5,2.9,0,4.08-2.38,4.08-5s-1.35-4.92-4.06-4.92S65.33,7.28,65.33,9.86Z"/><path class="cls-2" d="M84,15.78V4h1.67c1.76,2.78,5.77,9,6.47,10.29h0c-0.11-1.61-.09-3.39-0.09-5.31V4h1.17V15.78H91.69C90,13.14,85.92,6.56,85.13,5.26h0c0.08,1.45.08,3.29,0.08,5.41v5.11H84Z"/><path class="cls-2" d="M103.31,4h4c3.26,0,5.49,2.25,5.49,5.76s-2.18,6-5.52,6h-4V4Zm1.2,10.68h2.67c2.95,0,4.38-2.09,4.38-4.88,0-2.46-1.3-4.75-4.38-4.75H104.5v9.63Z"/><path class="cls-2" d="M140,10.44v5.34h-1.2V4h4.38c2.36,0,3.61,1.27,3.61,3.11a2.66,2.66,0,0,1-2.11,2.75c1.09,0.27,1.91,1,1.91,3v0.48a8.06,8.06,0,0,0,.15,2.36h-1.19a7.94,7.94,0,0,1-.18-2.48V13c0-1.81-.53-2.58-2.71-2.58H140Zm0-1.05h2.71c1.94,0,2.82-.73,2.82-2.17S144.6,5.1,142.88,5.1H140V9.39Z"/></svg>