<?xml version="1.0" encoding="utf-8"?>
<!-- Generator: Adobe Illustrator 19.2.1, SVG Export Plug-In . SVG Version: 6.00 Build 0)  -->
<svg version="1.1" id="Layer_1" xmlns="http://www.w3.org/2000/svg" xmlns:xlink="http://www.w3.org/1999/xlink" x="0px" y="0px"
	 viewBox="0 0 22 45" style="enable-background:new 0 0 22 45;" xml:space="preserve">
<style type="text/css">
	.st0{display:none;}
	.st1{display:inline;fill:#39435B;}
	.st2{display:none;fill:#3A445B;}
	.st3{display:inline;fill:#3A445B;}
	.st4{fill:#5DB4B0;}
	.st5{fill:#1B4A5C;}
	.st6{fill:#FFE2CE;}
	.st7{fill:#E9EEFF;}
	.st8{fill:#5DB5B1;}
	.st9{fill:#216F80;}
	.st10{fill:#4B9591;}
	.st11{fill:#0A3645;}
	.st12{fill:#00003C;}
	.st13{fill:#FFFFFF;}
</style>
<g class="st0">
	<path class="st1" d="M35.1,31.2h2.1v-5.8c0-1.7-1.1-2.1-2.4-2.4c-0.1,0-0.2,0-0.3-0.1c-3.1-0.6-3.7-1.2-3.8-1.5
		c-1.4-5.3-5.5-5.3-8.5-5.3h-1.9v14.2h-1.5V11.8h-34v19.4h1.7v0.2c0.3,1.1,1.2,1.8,2.3,1.8s2-0.7,2.3-1.8v-0.2H-8v0.2
		c0.3,1.1,1.2,1.8,2.3,1.8s2-0.7,2.3-1.8v-0.2h9.2v0.2c0.3,1.1,1.2,1.8,2.3,1.8s2-0.7,2.3-1.8v-0.2h0.9v0.2c0.3,1.1,1.2,1.8,2.3,1.8
		c1.1,0,2-0.7,2.3-1.8v-0.2h13.9l0.1,0.2c0.3,1,1.2,1.7,2.3,1.7c1,0,2-0.7,2.3-1.7L35.1,31.2z M-11.1,32.3c-0.8,0-1.5-0.7-1.5-1.5
		s0.7-1.5,1.5-1.5s1.5,0.7,1.5,1.5C-9.5,31.6-10.2,32.3-11.1,32.3 M-5.4,32.3c-0.8,0-1.5-0.7-1.5-1.5s0.7-1.5,1.5-1.5
		s1.5,0.7,1.5,1.5C-3.9,31.6-4.6,32.3-5.4,32.3 M8.5,32.3c-0.8,0-1.5-0.7-1.5-1.5s0.7-1.5,1.5-1.5S10,30,10,30.8
		C10,31.6,9.4,32.3,8.5,32.3 M14.3,32.3c-0.8,0-1.5-0.7-1.5-1.5s0.7-1.5,1.5-1.5s1.5,0.7,1.5,1.5C15.8,31.6,15,32.3,14.3,32.3
		 M17.8,30.3h-1.3v-0.2c-0.3-1.1-1.2-1.8-2.3-1.8S12.1,29,12,30.1v0.2h-0.9v-0.2c-0.3-1.1-1.2-1.8-2.3-1.8c-1.1,0-2.1,0.7-2.3,1.8
		v0.2h-9.2v-0.2C-3,29-3.9,28.3-5,28.3s-2.1,0.7-2.3,1.8v0.2h-0.9v-0.2c-0.3-1.1-1.2-1.8-2.3-1.8s-2.1,0.7-2.3,1.8v0.2h-1.5V12.7
		h32.1v17.6H17.8z M32.8,32.2c-0.8,0-1.5-0.7-1.5-1.5s0.7-1.5,1.5-1.5s1.5,0.7,1.5,1.5C34.3,31.5,33.6,32.2,32.8,32.2 M32.8,28.3
		c-1.1,0-2.1,0.8-2.4,1.9v0.2H21V17.1h1c3.1,0,6.4,0,7.6,4.7c0.3,1.2,2.4,1.7,4.5,2.1c0.1,0,0.2,0,0.3,0.1c1.1,0.3,1.6,0.5,1.7,1.3
		v0.3h-0.6c-0.2,0-0.4,0.2-0.4,0.4s0.2,0.4,0.4,0.4h0.7v1.1h-0.7c-0.2,0-0.4,0.2-0.4,0.4c0,0.2,0.2,0.4,0.4,0.4h0.7v2.1h-1.1v-0.2
		C35,29.1,34,28.3,32.8,28.3"/>
</g>
<g class="st0">
	<path class="st1" d="M25.1,29.1c-0.5,0-1,0.1-1.5,0.3h-0.1l-0.7-1.3h5.7c0.4,0,0.8-0.3,0.8-0.8v-0.2c0-1.8-1.3-3.3-3.1-3.6L22.6,23
		v-0.1c-0.1-0.5-0.2-1-0.4-1.5l-0.7-1.2c0-0.1-0.1-0.2-0.3-0.2c-0.1,0-0.3,0-0.4,0c-0.1,0.1-0.2,0.2-0.2,0.3c0,0.1,0,0.3,0,0.4
		l0.7,1.3c0.4,0.7,0.5,1.5,0.3,2.2l-1.3,5.6c-0.5,2.1-2.3,3.5-4.4,3.5h-5.8c-1.3,0-2.5-0.9-2.8-2.1v-0.1h1.5c0.3,0,0.5-0.2,0.5-0.5
		s-0.2-0.5-0.5-0.5H-5.9l0.1-0.5c0.9-4.2,4.6-7.2,8.9-7.2h0.5c0.3,0,0.5-0.2,0.5-0.5s-0.2-0.5-0.5-0.5H3.1c-0.8,0-1.5,0.1-2.2,0.3
		H0.8v-0.2c0-0.4-0.3-0.7-0.7-0.7c-0.2,0-0.3-0.1-0.5-0.2c-0.1-0.1-0.2-0.3-0.2-0.5c0-0.3,0.3-0.6,0.7-0.6h11c0.6,0,1,0.4,1,1V22
		L12,21.9c-0.5-0.3-1-0.5-1.6-0.5H6.2c-0.3,0-0.5,0.2-0.5,0.5s0.2,0.5,0.5,0.5h4.2c0.5,0,1,0.2,1.3,0.6s0.4,0.9,0.3,1.4l-1.1,5.5
		c0,0.2,0,0.3,0.1,0.4l0,0c0.1,0.1,0.2,0.2,0.4,0.2h4.5c0.9,0,1.6-0.6,1.8-1.4l1-4.3c0.2-1,0.1-2-0.4-2.9l-3.4-6.4h0.5
		c0.5,0,0.8-0.4,0.8-0.8v-1.2c0-0.4-0.2-0.7-0.6-0.8h-0.2l1.9-1.2c0.3-0.2,0.7-0.3,1-0.2c0.4,0.1,0.7,0.3,0.8,0.6
		c0.4,0.6,0.2,1.4-0.4,1.8L18,14.2c-0.4,0.2-0.5,0.7-0.3,1.1l1.7,3.2c0.2,0.2,0.4,0.3,0.6,0.2c0.2-0.1,0.3-0.4,0.2-0.6L18.8,15
		l0.7-0.4c1-0.7,1.3-2,0.7-3.1c-0.3-0.5-0.8-0.9-1.4-1.1c-0.6-0.2-1.3,0-1.8,0.3l-2.5,1.6c-0.2,0.1-0.3,0.2-0.4,0.4l0,0h-0.5V10
		c0-0.3-0.3-0.6-0.6-0.6h-0.4l0,0c-0.2-1.2-1.2-2.1-2.4-2.1c-1.3,0-2.4,1.1-2.4,2.4s1.1,2.4,2.4,2.4c1,0,1.8-0.6,2.2-1.4l0.1-0.3
		v2.3h-1.4c-0.8,0-1.4,0.6-1.4,1.4c0,0.8,0.6,1.4,1.4,1.4h2.8l0,0l3.6,6.8c0.4,0.7,0.5,1.5,0.3,2.2l-1,4.3c-0.1,0.4-0.5,0.7-0.9,0.7
		h-4l1.1-5c0-0.2,0.1-0.4,0.1-0.6v-3.5c0-1.1-0.9-1.9-1.9-1.9h-11c-0.9,0-1.6,0.7-1.6,1.5c0,0.4,0.1,0.9,0.4,1.2
		c0.2,0.3,0.5,0.4,0.9,0.5h0.1v0.2h-0.1c-1.1,0.4-2.1,1-3,1.7c-1.8,1.5-3,3.5-3.5,5.7l-0.2,1c0,0.1-0.4,1.4-0.6,2.3
		c-0.1,0.3,0,0.7,0.2,0.9c0.2,0.3,0.5,0.4,0.8,0.4l0,0c0.3,0,0.7-0.2,0.9-0.4l1.8-2.5h1l-0.1,0.1c-0.4,0.7-0.7,1.5-0.7,2.3
		c0,2.4,2,4.4,4.3,4.4S4.9,36,5,33.7l0,0l2-0.8l0,0c0.7,0.8,1.8,1.2,2.8,1.2h5.8c2.6,0,4.8-1.8,5.3-4.2l0.4-1.9h0.2l0,0l0.8,1.7l0,0
		c-1.2,0.8-1.9,2.2-1.9,3.6c0,2.4,2,4.4,4.4,4.4s4.3-2,4.3-4.4C29.5,31,27.5,29.1,25.1,29.1z M10.1,11.2c-0.8,0-1.5-0.7-1.5-1.5
		s0.7-1.5,1.5-1.5s1.5,0.7,1.5,1.5S11,11.2,10.1,11.2z M11.1,14.6c-0.3,0-0.5-0.2-0.5-0.5s0.2-0.5,0.5-0.5h4.2v1H11.1z M-6.4,32.9
		h-0.1c-0.1,0-0.1,0-0.1,0v-0.1l0.5-1.8h1.2L-6.4,32.9z M4.3,34.2c-0.4,1.5-1.7,2.6-3.3,2.6c-1.9,0-3.4-1.5-3.4-3.4
		c0-0.9,0.3-1.8,1-2.4l0,0h3.5l-1.7,0.7c-0.4,0.2-0.8,0.5-1,1s-0.2,1,0,1.4c0.3,0.7,1,1.2,1.7,1.2c0.2,0,0.4,0,0.7-0.1l2.7-1H4.3z
		 M4.6,32.9H4.5l-3.3,1.3c-0.1,0-0.2,0.1-0.3,0.1c-0.1,0-0.3,0-0.4-0.1c-0.2-0.1-0.4-0.3-0.5-0.5c-0.2-0.5,0-1,0.5-1.2l4-1.5h1.7
		v0.1c0.1,0.3,0.2,0.7,0.3,1v0.1L4.6,32.9z M22,27.1l0.7-2.8c0-0.1,0-0.2,0.1-0.3v-0.1h0.1l3.4,0.5c1.3,0.2,2.3,1.3,2.3,2.6v0.1
		C28.5,27.1,22,27.1,22,27.1z M25.1,36.8c-1.9,0-3.4-1.5-3.4-3.4c0-1.1,0.5-2.1,1.4-2.7l0.1-0.1l0.6,1.3l0,0
		c-0.4,0.4-0.6,0.9-0.6,1.5c0,1.1,0.9,2,2,2s2-0.9,2-2c0-1.3-1.2-2.3-2.5-2h-0.1L24,30.1h0.1c0.3-0.1,0.7-0.2,1.1-0.2
		c1.9,0,3.4,1.5,3.4,3.4S27,36.8,25.1,36.8z M25.5,33.2l-0.4-0.9h0.1c0.6,0,1,0.5,1,1.1s-0.5,1.1-1.1,1.1S24,34,24,33.4
		c0-0.2,0-0.3,0.1-0.5l0.1-0.1l0.4,0.8c0.1,0.2,0.2,0.3,0.4,0.3c0.1,0,0.1,0,0.2,0C25.5,33.7,25.6,33.4,25.5,33.2z"/>
</g>
<path class="st2" d="M29.6,28.7c-0.7-1.5-1.9-2.7-3.5-3.3c-1.3-0.5-2.8-0.7-4.2-0.5l0,0v-0.1l-0.6-1.3v-1.8h0.1
	c0.3,0.1,0.6,0.2,1,0.2h2c0.7,0,1.2-0.5,1.2-1.2v-3.2c0-0.7-0.5-1.2-1.2-1.2h-2c-0.3,0-0.6,0-1,0.2h-0.1v-2c0-0.3-0.1-0.6-0.2-0.8
	c-0.2-0.5-0.7-0.8-1.2-1l0,0l0,0l-0.9-2l0,0c0.3-0.2,0.5-0.5,0.5-0.9v-1c0-0.6-0.4-1-1.1-1.1l-2.8-0.5c-0.3,0-0.6,0-0.8,0.2
	c-0.3,0.2-0.4,0.6-0.4,0.9v1.5c0,0.6,0.5,1.1,1.1,1.1H18l0.8,1.8h-0.1h-2.8c-1,0-1.6,0.7-1.6,1.5s0.5,1.6,1.5,1.6l2.3,0.1v2L18,18
	c-0.4-0.3-1-0.6-1.7-0.8c-2.7-0.7-6.6-0.2-8,1.7l0,0H3.9c-0.3,0-0.5,0.2-0.5,0.5s0.2,0.5,0.5,0.5h4.2V23H-5.6c-0.8,0-1.3-0.4-1.3-1
	v-2.4c0-0.3,0.1-0.5,0.2-0.7c0.2-0.2,0.5-0.3,0.8-0.2h1c0.2,0,0.5,0.2,0.8,0.5s0.8,0.7,1.4,0.8v0.1V20h4c0.3,0,0.5-0.2,0.5-0.5
	S1.6,19,1.3,19h-3.8c-0.3,0-0.5-0.2-0.8-0.5c-0.4-0.3-0.8-0.8-1.4-0.8h-1c-0.6,0-1.2,0.1-1.6,0.5c-0.2,0.2-0.5,0.7-0.5,1.4V22
	c0,1.2,0.9,2,2.2,2h3.9l-0.2,0.9H-2c-2.4,0-5.2,1.2-5.9,3.7c-0.2,0.9-0.2,1.5,0.1,1.9c0.1,0.1,0.2,0.2,0.4,0.3l0,0v0.1
	c-0.1,0.4-0.1,0.8-0.1,1.1c0,3.2,2.6,5.8,5.8,5.8c2.7,0,5.1-1.9,5.7-4.5v-0.1h2.6c0.3,0,0.5-0.2,0.5-0.5s-0.2-0.5-0.5-0.5H0v-0.1
	c0.1-0.2,0.1-0.3,0.1-0.5l0.2-0.8H10c0.8,0,1.2-0.2,1.7-0.9l4.4-6h2L18,24l-5.5,7.1l0,0c-0.6,1-1.3,1-1.5,1H8.8
	c-0.3,0-0.5,0.2-0.5,0.5s0.2,0.5,0.5,0.5H11c0.9,0,1.7-0.5,2.3-1.4l5.3-6.7l0.5,1H19c-1,0.7-1.7,1.6-2.1,2.6c-0.3,0.8-0.3,1.5,0,1.9
	c0.1,0.2,0.3,0.3,0.5,0.4h0.1l0,0c0,0.3,0,0.5,0,0.8c0,3.2,2.6,5.8,5.8,5.8s5.8-2.6,5.8-5.8c0-0.3,0-0.5,0-0.8v-0.1h0.1
	c0.3-0.1,0.5-0.3,0.6-0.5C30.1,30,29.8,29.1,29.6,28.7z M21.3,17.8L21.3,17.8c0.3-0.2,0.7-0.3,1-0.3h2c0.1,0,0.2,0.1,0.2,0.2v3.2
	c0,0.1-0.1,0.2-0.2,0.2h-2c-0.4,0-0.7-0.1-1-0.3l0,0V17.8z M18.5,9.9c0,0.1-0.1,0.2-0.2,0.2h-2.8c-0.1,0-0.2-0.1-0.2-0.2V8.4
	c0-0.1,0-0.1,0-0.2l0,0l2.8,0.5c0.1,0,0.3,0.1,0.3,0.2v1H18.5z M-6.7,29.9L-6.7,29.9c-0.2,0-0.2,0-0.2,0c-0.1-0.1-0.1-0.4,0-1
	c0.4-1.6,2.4-2.8,4.7-2.9h0.1L-3,30h-3.7C-6.7,29.9-6.7,29.9-6.7,29.9z M1.3,33.2L1.3,33.2H3v0.1c-0.6,2.1-2.5,3.5-4.7,3.5
	c-2.7,0-4.8-2.2-4.8-4.8c0-0.3,0-0.7,0.1-1v-0.1h1.8V31c-0.1,0.3-0.2,0.7-0.2,1c0,1.7,1.4,3.2,3.1,3.2C-0.4,35.1,0.8,34.3,1.3,33.2z
	 M0.3,33.1l-0.1,0.1c-0.4,0.5-1,0.9-1.7,0.9c-1.2,0-2.2-1-2.2-2.2c0-0.4,0.1-0.7,0.3-1.1l0,0h0.4v0.1h-0.1h0.1
	c-0.2,1.2,0.5,2,1.3,2.1h0.1h0.1L0.3,33.1z M0.5,25.8l-1.3,5.6h-0.1h0.1c-0.1,0.6-0.5,0.7-0.8,0.7h-0.1c-0.2,0-0.7-0.2-0.5-1
	l1.5-7.2h1.7L0.5,25.8L0.5,25.8L0.5,25.8z M3.6,29.9h-3l0.7-3.3l0.1,0.1C2.4,27.2,3,28,3.4,28.9C3.4,29.1,3.5,29.5,3.6,29.9
	L3.6,29.9z M3.8,27.7c-0.5-0.9-1.3-1.6-2.2-2l0,0L2,24h5.5L3.8,27.7L3.8,27.7z M10.9,29.4c-0.3,0.4-0.4,0.4-0.9,0.4H9.3v-0.1
	c0-0.1,0-0.2,0-0.3c0-0.3,0.1-0.5,0.3-0.7c0.2-0.2,0.5-0.3,0.8-0.3c0.4,0,0.8,0.2,1,0.5l0,0L10.9,29.4z M14.3,25h-3.5
	c-0.3,0-0.5,0.2-0.5,0.5s0.2,0.5,0.5,0.5h2.8l-1.6,2.2l-0.1-0.1c-0.4-0.4-0.9-0.6-1.5-0.6s-1.1,0.2-1.5,0.6s-0.6,0.8-0.6,1.4
	c0,0.1,0,0.3,0,0.4V30H4.5v-0.1c0-0.4-0.1-0.7-0.2-1l0,0l4.4-4.8h6.1L14.3,25z M18.1,23H9v-3.4l0,0c1.1-1.6,4.6-2,7-1.4
	c0.6,0.2,2.1,0.7,2.1,1.7V23z M18.8,15.1L16,14.9c-0.5,0-0.6-0.3-0.6-0.6c0-0.1,0.1-0.5,0.6-0.5h3.7c0.3,0,0.5,0.2,0.7,0.4l0,0
	c0,0.1,0.1,0.2,0.1,0.4v9.1c0,0.1,0,0.1,0,0.2l0.8,1.7l0,0l2.6,5.5c0.2,0.4,0,0.7-0.2,0.7c-0.1,0-0.2,0.1-0.3,0.1
	c-0.2,0-0.3-0.1-0.4-0.2L19.1,24v-8.4C19.1,15.3,19,15.1,18.8,15.1z M24.8,31.3v-0.1h0.5v0.1c0.1,0.2,0.1,0.5,0.1,0.7
	c0,1.2-1,2.2-2.2,2.2S21,33.2,21,32c0-0.2,0-0.5,0.1-0.7v-0.1h0.4l0.5,1.1c0.2,0.5,0.7,0.8,1.3,0.8c0.3,0,0.5-0.1,0.7-0.2
	C24.5,32.7,25,32.1,24.8,31.3z M17.8,30.1c0,0-0.1-0.1-0.1-0.3c0-0.2,0-0.4,0.2-0.7c0.3-0.8,0.8-1.5,1.6-2.1h0.1v0.1l1.5,3.2h-2.9
	C18,30.2,17.8,30.2,17.8,30.1z M23.3,36.8c-2.7,0-4.8-2.2-4.8-4.8c0-0.2,0-0.5,0.1-0.7v-0.1h1.7v0.1c0,0.2-0.1,0.4-0.1,0.6
	c0,1.7,1.4,3.2,3.1,3.2c1.7,0,3.2-1.4,3.2-3.2c0-0.2,0-0.4-0.1-0.6v-0.1h1.7v0.1c0,0.2,0,0.5,0,0.7C28.1,34.6,26,36.8,23.3,36.8z
	 M29,30.1c-0.1,0.1-0.3,0.1-0.5,0.1h-4l0,0l-2-4.3h0.1c2.1-0.2,5.1,0.5,6.3,3.3C29,29.5,29,29.9,29,30.1z"/>
<g class="st0">
	<path class="st3" d="M25,37.6c2.4,0,4.3-1.9,4.3-4.3v-0.5h0.9c0.2,0,0.3-0.1,0.3-0.2c0.1-0.1,0.1-0.2,0.1-0.3l0,0
		c-0.4-2.6-2.4-4.5-5-4.8h-0.2v-0.2c1-5.5-0.2-11.5-3.2-15.7l-0.1-0.2l0.2-0.1c1.6-0.5,2.6-1.9,2.6-3.5c0-0.3-0.2-0.4-0.4-0.4h-27
		c-2.8,0-5.1,2.3-5.1,5.1v16.9v0.1c-0.8,0.8-1.3,1.9-1.5,3l0,0c0,0.1,0,0.2,0.1,0.3S-8.8,33-8.6,33h1v0.2c-0.1,1.2,0.3,2.4,1.2,3.3
		c0.8,0.9,1.9,1.4,3.1,1.4s2.3-0.5,3.1-1.4C0.6,35.6,1,34.4,1,33.2V33h19.5v0.5C20.8,35.7,22.8,37.6,25,37.6 M28.5,33.2
		c0,2-1.5,3.5-3.4,3.5c-1,0-1.9-0.4-2.6-1.1c-0.7-0.7-1-1.7-0.9-2.6v-0.2h0.2c0.2,0,0.2,0,0.3,0c0.2,0,1,0,6.1-0.1h0.2v0.5H28.5z
		 M25.5,28.3h0.2c1.9,0.2,3.5,1.5,4.1,3.3l0.1,0.2h-5.5l0.1-0.3C24.8,30.5,25.2,29.4,25.5,28.3L25.5,28.3z M25,21.5L25,21.5v0.2
		h-4.7V11.3h1l0.1,0.1C23.3,14,24.8,17.7,25,21.5 M-6.5,12.4c0-2.3,1.9-4.2,4.2-4.2h26.4L24,8.4c-0.3,1.2-1.4,2.1-2.7,2.1H3.8
		c-1,0-1.9,0.9-1.9,1.9v9.4h-8.4V12.4z M11.3,22.5v-0.2H11V21h4.5v1.5H11.3z M14.3,29.3H11v-5.9h3.2V29.3z M15.1,23.4h0.2
		c0.6,0,1-0.4,1-1v-1.2c0-0.6-0.4-1-1-1h-4.4v-8.8h8.4v17.9H15L15.1,23.4L15.1,23.4z M10.1,11.3v17.9H6l0,0l-1.1-6
		c-0.2-0.8-1-1.5-2-1.5H2.7v-9.3c0-0.5,0.5-1,1-1h6.4V11.3z M-0.6,35.6c-0.7,0.7-1.6,1.1-2.5,1.1c-1,0-1.9-0.4-2.5-1.1
		c-0.7-0.7-1-1.7-0.9-2.7v-0.2h6.8v0.2C0.4,33.9,0.1,34.9-0.6,35.6 M-7.9,31.9l0.1-0.2c0.7-2,2.6-3.4,4.7-3.4s4,1.4,4.7,3.4l0.1,0.2
		H-7.9z M4.3,31.9L4.3,31.9c-0.6,0-1,0-1.3,0H2.5v-0.1c-0.7-2.6-3-4.4-5.6-4.4c-1.1,0-2.2,0.3-3.1,0.9l-0.3,0.2v-5.9h0.3v-0.1h0.1
		v0.1h9c0.6,0,1,0.4,1.1,0.9l1.2,6.4c0,0.2,0.2,0.3,0.4,0.3h14.2c0.3,0,0.4-0.2,0.4-0.4v-7.2h4.8v0.2c0.1,3.1-0.5,6.3-1.8,9
		l-0.1,0.1h-0.1C11.6,31.9,6.5,31.9,4.3,31.9"/>
</g>
<g class="st0">
	<path class="st1" d="M31.5,32.9v-2.1c0-0.3-0.2-0.5-0.5-0.5s-0.5,0.2-0.5,0.5v2.1c0,0.3-0.2,0.5-0.5,0.5h-0.9v-0.1
		c-0.4-1.9-2-3.2-3.9-3.2h-4.9c-0.3,0-0.5-0.2-0.5-0.5v-9.2c0-0.3,0.2-0.5,0.5-0.5h2.1v4c0,1.2,0.9,2.1,2.1,2.1h6v2
		c0,0.3,0.2,0.5,0.5,0.5s0.5-0.2,0.5-0.5v-4.1c0-2.7-2.2-4.9-4.9-4.9h-6.3c-0.8,0-1.5,0.7-1.5,1.5v6.8h-2V26c0-0.9-0.4-1.7-1.1-2.2
		l-0.1-0.1l0.4-0.5c0.4-0.5,0.5-1.1,0.4-1.7l-1-4.1c-0.2-1-0.8-1.9-1.6-2.5L5.4,8.2c-0.8-0.6-1.8-1-2.9-1h-4.2
		c-0.6,0-1.2,0.3-1.6,0.8l-3.3,4.2C-7,12.7-7.1,13.3-7,13.9l1,4.1c0.2,1,0.8,1.9,1.6,2.5l3.3,2.6l-2.1,4.2h-1.2
		c-1.3,0-2.4,0.7-3,1.9l-2,4.2c-0.1,0.2-0.1,0.5,0,0.7s0.4,0.3,0.6,0.3H-6v0.1c0,0.1,0,0.1,0,0.2c0,1.7,1.4,3.1,3.1,3.1
		s3.1-1.4,3.1-3.1c0-0.1,0-0.1,0-0.2v-0.1h1v0.1c0,0.1,0,0.1,0,0.2c0,1.7,1.4,3.1,3.1,3.1s3.1-1.4,3.1-3.1c0-0.1,0-0.1,0-0.2v-0.1h5
		v0.1c0.1,0.6,0.5,1,1.1,1H16c0.6,0,1.1-0.4,1.1-1v-0.1h4.1v0.1c0,0.1,0,0.1,0,0.2c0,1.7,1.4,3.1,3.1,3.1s3.1-1.4,3.1-3.1
		c0-0.1,0-0.1,0-0.2v-0.1h2.4C30.8,34.4,31.5,33.7,31.5,32.9 M23.3,19.9h3.3c2.2,0,4,1.8,4,4v1.2h-6.1c-0.6,0-1.2-0.5-1.2-1.2V19.9z
		 M15.8,26v1.2h-3l2.2-2.7l0.1,0.1C15.5,24.9,15.8,25.5,15.8,26 M-4.9,18.5L-5,18.3c-0.1-0.2-0.1-0.4-0.2-0.5l-1-4.1
		c-0.1-0.3,0-0.7,0.2-0.9l3.3-4.2c0.2-0.3,0.5-0.4,0.9-0.4h4.2c0.2,0,0.4,0,0.6,0h0.2L-4.9,18.5z M-3.9,19.8
		c-0.1-0.1-0.3-0.2-0.4-0.4l-0.1-0.1l0.1-0.1L4.1,8.5l0.1,0.1c0.2,0.1,0.3,0.2,0.5,0.3l8.5,6.7c0.1,0.1,0.3,0.2,0.4,0.4l0.1,0.1
		l-1.4,1.8c-0.2,0.2-0.1,0.5,0.1,0.7s0.5,0.1,0.7-0.1l1.3-1.6l0.1,0.2c0.1,0.2,0.1,0.4,0.2,0.5l1,4.1c0.1,0.3,0,0.7-0.2,0.9
		l-3.3,4.2c-0.2,0.3-0.5,0.4-0.9,0.4H7.2c-0.2,0-0.4,0-0.6,0H6.4l5.1-6.5c0.1-0.1,0.1-0.2,0.1-0.3c0-0.1-0.1-0.2-0.2-0.3
		c-0.2-0.2-0.5-0.1-0.7,0.1l-5.3,6.7l-0.1-0.1c-0.2-0.1-0.3-0.2-0.5-0.3L-3.9,19.8z M-0.5,23.7l4.6,3.6h-6.4L-0.5,23.7z M-2.9,36.9
		c-1.2,0-2.2-1-2.2-2.2s1-2.2,2.2-2.2s2.2,1,2.2,2.2S-1.7,36.9-2.9,36.9 M4.3,36.9c-1.2,0-2.2-1-2.2-2.2s1-2.2,2.2-2.2
		s2.2,1,2.2,2.2S5.5,36.9,4.3,36.9 M7.3,33.4L7.3,33.4c-0.6-1.2-1.7-1.9-2.9-1.9c-1.2,0-2.3,0.7-2.8,1.8v0.1H0.1v-0.1
		c-0.5-1.1-1.6-1.8-2.8-1.8s-2.3,0.7-2.8,1.8v0.1h-0.7l1.5-3.1c0.1-0.2,0.2-0.3,0.4-0.3H6.2c0.2,0,0.3,0.1,0.4,0.2l1.5,3.1L7.3,33.4
		L7.3,33.4z M9.3,33.4c-0.1,0-0.2-0.1-0.3-0.2l-1.7-3.3C7,29.4,6.5,29.1,6,29.1H-4.5c-0.5,0-1,0.3-1.3,0.8l-1.6,3.3
		c0,0.1-0.1,0.2-0.3,0.2h-0.7h-0.1l1.9-3.9c0.4-0.8,1.2-1.3,2.1-1.3H6c0.9,0,1.7,0.5,2.1,1.3l2,3.9H9.3z M16.3,34.4
		c0,0.1-0.1,0.2-0.2,0.2h-2.5c-0.1,0-0.2-0.1-0.2-0.2v-1.9c0-0.3-0.2-0.5-0.5-0.5s-0.5,0.2-0.5,0.5v1h-1.3v-0.1l-1.6-3.3h6.8V34.4z
		 M9,29.2L9,29.2c-0.2-0.3-0.3-0.5-0.5-0.7l-0.2-0.2h10.4v1L9,29.2L9,29.2z M24.5,36.9c-1.2,0-2.2-1-2.2-2.2s1-2.2,2.2-2.2
		s2.2,1,2.2,2.2S25.8,36.9,24.5,36.9 M27.5,33.4L27.5,33.4c-0.6-1.2-1.7-1.9-2.9-1.9s-2.3,0.7-2.8,1.8v0.1h-4.4v-3.3h1.6v0.1
		c0.2,0.5,0.8,0.9,1.3,0.9h4.9c1.4,0,2.6,0.9,2.9,2.2v0.2h-0.6V33.4z"/>
	<path class="st1" d="M4.3,34.2c-0.3,0-0.5,0.2-0.5,0.5s0.2,0.5,0.5,0.5s0.5-0.2,0.5-0.5S4.6,34.2,4.3,34.2"/>
</g>
<g id="XMLID_7_">
	<g>
		<g>
			<g>
				<path class="st4" d="M4.2,43.7c0-0.1,0.1-0.2,0.1-0.2c0.1-0.1,0.2-0.2,0.3-0.3C5.1,42.8,6,42.3,6,42.3l0.5-1.1
					c0.7,0,1.3,0,2-0.1l-0.5,2.6H4.2z"/>
			</g>
		</g>
		<g>
			<g>
				<path class="st5" d="M7.9,44.1H3.9c0-0.1,0.1-0.3,0.1-0.4h0.1h3.8L7.9,44.1z"/>
			</g>
		</g>
	</g>
	<g id="New_Symbol_130_2_">
		<g>
			<g>
				<path class="st6" d="M15.7,9.6c0-0.1,0-0.1,0.1-0.2c0-0.1,0.1-0.1,0.2-0.1c0.2-0.1,0.9-0.4,1-0.7c0,0,2.3-4.9,2.3-4.9
					c0.2-0.4,0.3-0.8,0.3-1.3c0-0.2,0-0.5-0.1-0.7c0,0,0-0.1,0-0.1c0,0,0-0.1,0-0.1c0.1,0,0.3,0.5,0.3,0.5c0.2-0.3,0.3-0.6,0.4-0.8
					c0-0.1,0.1-0.4,0.2-0.4c0,0,0,0,0.1,0c0,0,0,0,0,0c-0.1,0.3-0.2,0.6-0.3,0.9c0,0,0,0,0,0c0,0,0,0,0,0c0,0,0,0,0,0
					c0.1-0.3,0.2-0.6,0.3-0.9c0-0.1,0.1-0.1,0.1,0c0,0,0,0.1,0,0.1c0,0.1,0,0.1,0,0.2c-0.1,0.2-0.2,0.5-0.2,0.7c0,0,0,0,0,0
					c0,0,0,0,0,0l0.1-0.2c0-0.1,0.1-0.3,0.1-0.3L20.8,1l0,0c0.1,0.1,0.1,0.2,0,0.2L20.6,2c0,0,0,0,0,0c0,0,0,0,0,0c0,0,0,0,0,0
					L21,1.4c0,0,0,0,0,0.1c0,0.1,0,0.2,0,0.3L20.8,2c0,0.4-0.1,0.6-0.2,0.9c-0.1,0.4-0.1,0.8,0,1.2c0,0.4,0,0.8,0,1.3
					c0,0.9-0.1,1.7-0.3,2.5c-0.1,0.4-0.3,0.8-0.5,1.2c-0.2,0.3-0.4,0.8-0.6,1c-0.4,0.4-0.8,1.1-1.3,1.3c-0.2,0.1-0.4,0.1-0.7,0
					c-0.2-0.1-0.5-0.2-0.7-0.3c-0.3-0.1-0.6-0.3-0.7-0.6C15.5,10.4,15.6,10,15.7,9.6z"/>
			</g>
		</g>
		<g>
			<g>
				<path class="st7" d="M13.7,13.4c0.5,0.3,1.2,0.4,1.8,0.2c0.6-0.2,0.9-0.5,1.3-1c0.3-0.4,0.7-0.7,1.1-1c0.7-0.6,1.3-1.4,1.6-2.3
					c-0.6-0.3-1.5-0.8-1.6-0.8c-0.3-0.1-0.5-0.2-0.7-0.3c-0.1,0.1-0.2,0.2-0.3,0.3c-1.1,0.9-2.5,1.4-3.4,2.5c0,0,0,0,0,0
					c-0.3,0.3-0.5,0.7-0.5,1.1C12.9,12.7,13.2,13.2,13.7,13.4z"/>
			</g>
		</g>
		<g>
			<g>
				<g>
					<path class="st8" d="M12.9,12c0,0.5,0.4,1,0.8,1.2c0.5,0.3,1.2,0.4,1.8,0.2c0.2-0.1,0.4-0.2,0.6-0.3c0,0,0,0,0,0
						c0.2,0,0.4-0.1,0.5-0.2c0,0,0.1,0,0.1-0.1c0.2-0.1,0.3-0.2,0.5-0.3c0.9-0.6,1.6-1.6,2-2.3c0.3-0.5,0.5-0.9,0.5-1c0,0,0,0,0,0
						l-0.1,0l-0.8,0.1c-0.3-0.2-0.6-0.5-0.9-0.7c-0.3-0.2-0.5-0.4-0.8-0.5c0,0,0,0,0,0c-0.1,0.1-0.2,0.2-0.3,0.3
						c-1.1,0.8-2.5,1.3-3.4,2.4c0,0,0,0,0,0C13.1,11.3,12.9,11.6,12.9,12z"/>
				</g>
			</g>
		</g>
		<g>
			<g>
				<path class="st9" d="M17.1,7.8C17.2,7.8,17.2,7.8,17.1,7.8c0.1,0,0.2,0,0.3,0.1c0,0,0,0,0.1,0c0.2,0.1,0.4,0.3,0.6,0.4
					c0.6,0.3,1.2,0.5,1.9,0.5c-0.1,0.4-0.2,0.8-0.4,1.1c0,0.1-0.1,0.1-0.1,0.1c0,0-0.1,0-0.1,0c-0.6-0.1-2.5-0.8-2.7-1.6
					c0,0,0,0,0-0.1C16.9,8.2,17,8,17.1,7.8z"/>
			</g>
		</g>
	</g>
	<g>
		<g>
			<path class="st10" d="M15.4,10.4c0.2,0.9,0.5,1.9,0.7,2.8c0.2,0,0.4-0.1,0.5-0.2c0,0,0.1,0,0.1-0.1C16.4,11.9,16,10.5,15.4,10.4z
				"/>
		</g>
	</g>
	<g>
		<g>
			<g>
				<g>
					<path class="st4" d="M14.7,43.7L14.7,43.7c0,0.1,0,0.3,0,0.4h4c0-0.1,0-0.3-0.1-0.4c0,0,0,0,0,0c-0.1-0.1-0.2-0.2-0.3-0.3
						c-0.5-0.4-1.5-0.9-1.5-0.9l0.1-1c-0.7,0-1.5,0-2.2,0l0,1.8C14.7,43.3,14.7,43.5,14.7,43.7z"/>
				</g>
			</g>
		</g>
	</g>
	<g>
		<g>
			<g>
				<g>
					<path class="st5" d="M14.7,43.7c0,0.1,0,0.3,0,0.4h4c0-0.1,0-0.3-0.1-0.4H14.7z"/>
				</g>
			</g>
		</g>
	</g>
	<g>
		<g>
			<path class="st5" d="M17.2,42c-0.1,0-0.2,0-0.3,0h-2.1c-0.5-0.8-1.1-9.3-1.5-14.7c-0.1-1.9-0.2-3.4-0.3-4v0l0,0
				c-1,4.7-2,9.4-3,14c-0.2,1.1-0.5,2.2-0.7,3.4c-0.1,0.3-0.1,0.7-0.2,1C9,41.9,9,42,8.9,42.1H6.1c-0.3-0.6,0.2-1.7,0.3-2.3
				c0.1-0.9,0.2-1.8,0.3-2.7c0.4-3.5,0.8-7,1.2-10.5c0.2-1.8,0.3-3.6,0.7-5.4c0.2-1,0.5-2.2,1-3.1c0-0.1,0.1-0.1,0.1-0.2
				c0.6-1.3,0.7-1,1.9-1c1.1,0,2.2-0.4,3.4-0.4c0.4,0,0.7,0.1,1,0.2c0.6,0.3,0.9,0.9,1.2,1.7c0.8,2.1,0.7,4.1,0.7,6.3
				C18.1,30.5,17.1,36.2,17.2,42z"/>
		</g>
	</g>
	<g>
		<g>
			<path class="st11" d="M9.6,18.1c0.6,0.3,1.4,0.2,2.1,0.2c1.3-0.1,3.4-0.4,4.3-1.6c-0.3-0.1-0.6-0.2-1-0.2c-1.1,0-2.2,0.4-3.4,0.4
				c-1.3,0-1.3-0.3-1.9,1C9.6,17.9,9.6,18,9.6,18.1z"/>
		</g>
	</g>
	<g>
		<g>
			<g>
				<path class="st8" d="M7.5,12.4c0,0.1,0,0.2,0,0.2c0.1,0.9,0.5,1.9,0.9,2.7c0.2,0.4,0.4,0.7,0.5,1.1c0,0.3,0,0.7,0.1,1
					c0,0.1,0.1,0.2,0.2,0.3c0.4,0.5,1.5,0.3,2.1,0.3c1.2,0,2.4,0,3.6-0.3c1.9-0.3,1.6-2,1.6-3.4c0-0.8,0-1.6-0.2-2.4
					c-0.3-1.1-0.6-2.1-2-2.1c-0.8,0-1.6,0.2-2.3,0.4c-1.1,0.3-3.6-0.1-4.3,0.9C7.5,11.6,7.5,12,7.5,12.4z"/>
			</g>
		</g>
	</g>
	<g>
		<g>
			<g>
				<g>
					<g>
						<g>
							<g>
								<g>
									<path class="st12" d="M11.3,9.3c-0.2-0.3-0.2-0.6,0.1-0.8c0.2-0.1,0.5-0.2,0.6-0.4c0-0.1,0-0.2,0.1-0.2
										c0.1-0.2,0.4-0.3,0.6-0.2c0.2,0.1,0.4,0.3,0.4,0.6c0.1,0.6-0.3,1.3-0.7,1.6c-0.5,0.4-0.4,0.4-0.8-0.1
										C11.5,9.6,11.4,9.5,11.3,9.3z"/>
								</g>
							</g>
						</g>
					</g>
				</g>
			</g>
		</g>
		<g>
			<g>
				<path class="st6" d="M11.8,10.4C11.9,10.4,11.9,10.4,11.8,10.4c0.4,0.2,0.8,0.5,1.2,0.4c0.2-0.1,0.1-0.4,0.1-0.6l-0.1-0.8l0-0.2
					L12,9.3L11.8,10.4z"/>
			</g>
		</g>
		<g>
			<g>
				<g>
					<g>
						<g>
							<g>
								<g>
									<path class="st12" d="M12.3,9.5l0,0.1c0,0.1,0,0.1,0.1,0.2c0.1,0.2,0.4,0.4,0.8,0.4l-0.1-0.8L12.3,9.5z"/>
								</g>
							</g>
						</g>
					</g>
				</g>
			</g>
		</g>
		<g>
			<g>
				<g>
					<g>
						<g>
							<g>
								<g>
									<g>
										<path class="st6" d="M13,8.4C13,8.4,13,8.4,13,8.4c-0.4-0.1-0.9,0.2-1.3,0.3c0,0,0,0,0,0.1L12,9.6c0,0,0,0.1,0,0.1
											c0,0,0,0,0,0c0,0,0,0,0.1,0c0.2,0.1,0.7,0.3,1,0.2c0,0,0.1-0.1,0.1-0.1c0.2-0.2,0.2-0.5,0.1-0.8C13.3,8.8,13.2,8.5,13,8.4
											z"/>
									</g>
								</g>
							</g>
						</g>
					</g>
				</g>
			</g>
		</g>
		<g>
			<g>
				<g>
					<g>
						<g>
							<g>
								<g>
									<path class="st12" d="M12.2,8.5l0,0.5c0,0.2-0.1,0.3-0.3,0.3l-0.3,0l-0.1-0.7L12,8.5L12.2,8.5z"/>
								</g>
							</g>
						</g>
					</g>
				</g>
			</g>
		</g>
		<g>
			<g>
				<g>
					<g>
						<g>
							<g>
								<g>
									<path class="st12" d="M12.2,9.3l0,0.4c0,0.1-0.2,0.3-0.4,0.3l-0.1-0.7L12.2,9.3z"/>
								</g>
							</g>
						</g>
					</g>
				</g>
			</g>
		</g>
		<g>
			<g>
				<g>
					<g>
						<g>
							<g>
								<g>
									<path class="st12" d="M12.2,9.7c-0.1,0.1-0.3,0.1-0.4,0c-0.1-0.1-0.1-0.3,0-0.4c0.1-0.1,0.3-0.1,0.4,0
										C12.3,9.4,12.3,9.6,12.2,9.7z"/>
								</g>
							</g>
						</g>
					</g>
				</g>
			</g>
		</g>
		<g>
			<g>
				<g>
					<g>
						<g>
							<g>
								<g>
									<path class="st6" d="M12.3,9.6c-0.1,0.1-0.3,0.1-0.4,0c-0.1-0.1-0.1-0.3,0-0.4c0.1-0.1,0.3-0.1,0.4,0
										C12.4,9.3,12.4,9.5,12.3,9.6z"/>
								</g>
							</g>
						</g>
					</g>
				</g>
			</g>
		</g>
	</g>
	<g>
		<g>
			<path class="st11" d="M13,21.6l0,1.8c0,0.6,0.1,2.1,0.3,4l0.6-7.2L13,21.6z"/>
		</g>
	</g>
	<g id="XMLID_9_">
		<g>
			<g>
				<path class="st6" d="M7.1,10c0-0.1,0-0.1-0.1-0.2c0-0.1-0.1-0.1-0.2-0.1c-0.2-0.1-1-0.3-1.1-0.6c0,0-2.8-4.8-2.8-4.8
					C2.8,3.9,2.6,3.5,2.6,3.1c0-0.2,0-0.5,0.1-0.7c0,0,0-0.1,0-0.1c0,0,0-0.1,0-0.1c-0.1,0-0.3,0.5-0.2,0.5C2.2,2.4,2,2.1,1.9,1.9
					C1.8,1.8,1.7,1.6,1.6,1.5c0,0,0,0-0.1,0c0,0,0,0,0,0c0.1,0.3,0.2,0.6,0.4,0.9c0,0,0,0,0,0c0,0,0,0,0,0c0,0,0,0,0,0
					C1.7,2.2,1.6,1.9,1.5,1.6c0-0.1-0.1-0.1-0.1,0c0,0,0,0.1,0,0.1c0,0.1,0,0.1,0.1,0.2c0.1,0.2,0.2,0.5,0.3,0.7c0,0,0,0,0,0
					c0,0,0,0,0,0L1.5,2.3C1.5,2.2,1.4,2,1.4,2L1.2,1.7l0,0C1.1,1.8,1.1,1.9,1.2,2l0.3,0.7c0,0,0,0,0,0c0,0,0,0,0,0c0,0,0,0,0,0
					L1,2.1c0,0,0,0,0,0.1c0,0.1,0,0.2,0.1,0.3l0.2,0.3c0,0.4,0.1,0.7,0.3,1c0,0.1,0.1,0.1,0.1,0.2c0,0-0.1,0-0.1,0
					c-0.1,0.3,0,0.7,0,1.1c0,0.4,0.1,0.9,0.1,1.3C1.9,7,2,7.9,2.3,8.7c0.2,0.4,0.3,0.8,0.6,1.2c0.2,0.3,0.4,0.7,0.7,1
					c0.5,0.4,0.9,1,1.5,1.3c0.2,0.1,0.5,0.1,0.7,0c0.2-0.1,0.5-0.2,0.7-0.3c0.3-0.2,0.6-0.4,0.7-0.7C7.3,10.8,7.2,10.4,7.1,10z"/>
			</g>
			<g>
				<g>
					<path class="st8" d="M11.5,12c0,0,0-0.1,0-0.1c-0.1-0.4-0.5-0.7-0.8-1c0,0,0,0,0,0C9.4,10.1,7.8,10,6.5,9.4
						C6.3,9.4,6.2,9.3,6,9.2c0,0,0,0-0.1,0C5.9,9.3,5.8,9.3,5.8,9.4C5.7,9.5,5.5,9.6,5.4,9.7c-0.1,0.1-0.8,0.8-1.3,1.2l-0.5,0
						l-0.1,0c0,0,0,0,0,0C3.7,11.2,4,11.5,4.4,12c1.5,1.5,4.7,3.7,6.6,1.6C11.5,13.2,11.7,12.6,11.5,12C11.6,12,11.6,12,11.5,12z"/>
				</g>
			</g>
			<g>
				<path class="st10" d="M5.7,10.2c0,0.5-0.6,1.3-1.2,1.9c-0.4-0.4-0.8-0.8-0.9-1c0,0,0,0,0.1-0.1c0.2-0.2,0.4-0.3,0.5-0.5
					c0.2-0.2,0.3-0.4,0.5-0.6c0,0,0,0,0-0.1C4.8,9.8,4.9,9.7,5,9.7c0,0,0,0,0,0c0.1,0.1,0.2,0.1,0.3,0.2C5.4,10,5.5,10.1,5.7,10.2
					C5.7,10.2,5.7,10.2,5.7,10.2z"/>
			</g>
			<g>
				<path class="st9" d="M5.9,8.7C5.9,8.7,5.9,8.7,5.9,8.7c-0.1,0-0.2,0.1-0.3,0.2c0,0,0,0,0,0.1C5.4,9.1,5.2,9.3,5,9.5
					c-0.5,0.5-1.1,0.9-1.8,1.1c0.2,0.4,0.4,0.7,0.7,1c0,0,0.1,0.1,0.2,0.1c0.1,0,0.1,0,0.1,0c0.5-0.3,2.3-1.6,2.4-2.4c0,0,0,0-0.1,0
					C6.3,9,6.1,8.9,5.9,8.7z"/>
			</g>
		</g>
	</g>
	<g id="XMLID_8_">
		<g>
			<path class="st13" d="M12.9,11l0.3,0.2c0,0,0,0,0,0L13,11.7c0,0,0,0,0,0l-0.2-0.4c0,0,0,0,0,0L12.9,11C12.9,11,12.9,11,12.9,11z"
				/>
		</g>
		<g>
			<path class="st13" d="M13,11.4l-0.4,4c0,0,0,0.1,0,0.1l0.8,1.1c0,0.1,0.1,0,0.1,0l0.5-1.2c0,0,0,0,0-0.1L13,11.4z"/>
		</g>
	</g>
</g>
</svg>
