<?xml version="1.0" encoding="utf-8"?>
<!-- Generator: Adobe Illustrator 19.2.1, SVG Export Plug-In . SVG Version: 6.00 Build 0)  -->
<svg version="1.1" id="Layer_1" xmlns="http://www.w3.org/2000/svg" xmlns:xlink="http://www.w3.org/1999/xlink" x="0px" y="0px"
	 viewBox="0 0 22 39" style="enable-background:new 0 0 22 39;" xml:space="preserve">
<style type="text/css">
	.st0{display:none;}
	.st1{display:inline;fill:#39435B;}
	.st2{display:none;fill:#3A445B;}
	.st3{display:inline;fill:#3A445B;}
	.st4{fill:#FFE2CE;}
	.st5{fill:#FFFBF8;}
	.st6{fill:#1B4A5C;}
	.st7{fill:#FFFFFF;}
	.st8{fill:#216F80;}
	.st9{fill:#0F323B;}
	.st10{fill:#7DCFDA;}
	.st11{opacity:0.7;clip-path:url(#SVGID_6_);}
	.st12{fill:#F1EDE6;}
</style>
<g class="st0">
	<path class="st1" d="M35.1,28.2h2.1v-5.8c0-1.7-1.1-2.1-2.4-2.4c-0.1,0-0.2,0-0.3-0.1c-3.1-0.6-3.7-1.2-3.8-1.5
		c-1.4-5.3-5.5-5.3-8.5-5.3h-1.9v14.2h-1.5V8.8h-34v19.4h1.7v0.2c0.3,1.1,1.2,1.8,2.3,1.8s2-0.7,2.3-1.8v-0.2H-8v0.2
		c0.3,1.1,1.2,1.8,2.3,1.8s2-0.7,2.3-1.8v-0.2h9.2v0.2c0.3,1.1,1.2,1.8,2.3,1.8s2-0.7,2.3-1.8v-0.2h0.9v0.2c0.3,1.1,1.2,1.8,2.3,1.8
		c1.1,0,2-0.7,2.3-1.8v-0.2h13.9l0.1,0.2c0.3,1,1.2,1.7,2.3,1.7c1,0,2-0.7,2.3-1.7L35.1,28.2z M-11.1,29.3c-0.8,0-1.5-0.7-1.5-1.5
		s0.7-1.5,1.5-1.5s1.5,0.7,1.5,1.5C-9.5,28.6-10.2,29.3-11.1,29.3 M-5.4,29.3c-0.8,0-1.5-0.7-1.5-1.5s0.7-1.5,1.5-1.5
		s1.5,0.7,1.5,1.5C-3.9,28.6-4.6,29.3-5.4,29.3 M8.5,29.3c-0.8,0-1.5-0.7-1.5-1.5s0.7-1.5,1.5-1.5S10,27,10,27.8
		C10,28.6,9.4,29.3,8.5,29.3 M14.3,29.3c-0.8,0-1.5-0.7-1.5-1.5s0.7-1.5,1.5-1.5s1.5,0.7,1.5,1.5C15.8,28.6,15,29.3,14.3,29.3
		 M17.8,27.3h-1.3v-0.2c-0.3-1.1-1.2-1.8-2.3-1.8S12.1,26,12,27.1v0.2h-0.9v-0.2c-0.3-1.1-1.2-1.8-2.3-1.8c-1.1,0-2.1,0.7-2.3,1.8
		v0.2h-9.2v-0.2C-3,26-3.9,25.3-5,25.3s-2.1,0.7-2.3,1.8v0.2h-0.9v-0.2c-0.3-1.1-1.2-1.8-2.3-1.8s-2.1,0.7-2.3,1.8v0.2h-1.5V9.7
		h32.1v17.6H17.8z M32.8,29.2c-0.8,0-1.5-0.7-1.5-1.5s0.7-1.5,1.5-1.5s1.5,0.7,1.5,1.5C34.3,28.5,33.6,29.2,32.8,29.2 M32.8,25.3
		c-1.1,0-2.1,0.8-2.4,1.9v0.2H21V14.1h1c3.1,0,6.4,0,7.6,4.7c0.3,1.2,2.4,1.7,4.5,2.1c0.1,0,0.2,0,0.3,0.1c1.1,0.3,1.6,0.5,1.7,1.3
		v0.3h-0.6c-0.2,0-0.4,0.2-0.4,0.4s0.2,0.4,0.4,0.4h0.7v1.1h-0.7c-0.2,0-0.4,0.2-0.4,0.4c0,0.2,0.2,0.4,0.4,0.4h0.7v2.1h-1.1v-0.2
		C35,26.1,34,25.3,32.8,25.3"/>
</g>
<g class="st0">
	<path class="st1" d="M25.1,26.1c-0.5,0-1,0.1-1.5,0.3h-0.1l-0.7-1.3h5.7c0.4,0,0.8-0.3,0.8-0.8v-0.2c0-1.8-1.3-3.3-3.1-3.6L22.6,20
		v-0.1c-0.1-0.5-0.2-1-0.4-1.5l-0.7-1.2c0-0.1-0.1-0.2-0.3-0.2c-0.1,0-0.3,0-0.4,0c-0.1,0.1-0.2,0.2-0.2,0.3c0,0.1,0,0.3,0,0.4
		l0.7,1.3c0.4,0.7,0.5,1.5,0.3,2.2l-1.3,5.6c-0.5,2.1-2.3,3.5-4.4,3.5h-5.8c-1.3,0-2.5-0.9-2.8-2.1v-0.1h1.5c0.3,0,0.5-0.2,0.5-0.5
		s-0.2-0.5-0.5-0.5H-5.9l0.1-0.5c0.9-4.2,4.6-7.2,8.9-7.2h0.5c0.3,0,0.5-0.2,0.5-0.5s-0.2-0.5-0.5-0.5H3.1c-0.8,0-1.5,0.1-2.2,0.3
		H0.8v-0.2c0-0.4-0.3-0.7-0.7-0.7c-0.2,0-0.3-0.1-0.5-0.2c-0.1-0.1-0.2-0.3-0.2-0.5c0-0.3,0.3-0.6,0.7-0.6h11c0.6,0,1,0.4,1,1V19
		L12,18.9c-0.5-0.3-1-0.5-1.6-0.5H6.2c-0.3,0-0.5,0.2-0.5,0.5s0.2,0.5,0.5,0.5h4.2c0.5,0,1,0.2,1.3,0.6s0.4,0.9,0.3,1.4l-1.1,5.5
		c0,0.2,0,0.3,0.1,0.4l0,0c0.1,0.1,0.2,0.2,0.4,0.2h4.5c0.9,0,1.6-0.6,1.8-1.4l1-4.3c0.2-1,0.1-2-0.4-2.9l-3.4-6.4h0.5
		c0.5,0,0.8-0.4,0.8-0.8v-1.2c0-0.4-0.2-0.7-0.6-0.8h-0.2l1.9-1.2c0.3-0.2,0.7-0.3,1-0.2c0.4,0.1,0.7,0.3,0.8,0.6
		c0.4,0.6,0.2,1.4-0.4,1.8L18,11.2c-0.4,0.2-0.5,0.7-0.3,1.1l1.7,3.2c0.2,0.2,0.4,0.3,0.6,0.2c0.2-0.1,0.3-0.4,0.2-0.6L18.8,12
		l0.7-0.4c1-0.7,1.3-2,0.7-3.1c-0.3-0.5-0.8-0.9-1.4-1.1c-0.6-0.2-1.3,0-1.8,0.3l-2.5,1.6c-0.2,0.1-0.3,0.2-0.4,0.4l0,0h-0.5V7
		c0-0.3-0.3-0.6-0.6-0.6h-0.4l0,0c-0.2-1.2-1.2-2.1-2.4-2.1c-1.3,0-2.4,1.1-2.4,2.4s1.1,2.4,2.4,2.4c1,0,1.8-0.6,2.2-1.4l0.1-0.3
		v2.3h-1.4c-0.8,0-1.4,0.6-1.4,1.4c0,0.8,0.6,1.4,1.4,1.4h2.8l0,0l3.6,6.8c0.4,0.7,0.5,1.5,0.3,2.2l-1,4.3c-0.1,0.4-0.5,0.7-0.9,0.7
		h-4l1.1-5c0-0.2,0.1-0.4,0.1-0.6v-3.5c0-1.1-0.9-1.9-1.9-1.9h-11c-0.9,0-1.6,0.7-1.6,1.5c0,0.4,0.1,0.9,0.4,1.2
		c0.2,0.3,0.5,0.4,0.9,0.5h0.1v0.2h-0.1c-1.1,0.4-2.1,1-3,1.7c-1.8,1.5-3,3.5-3.5,5.7l-0.2,1c0,0.1-0.4,1.4-0.6,2.3
		c-0.1,0.3,0,0.7,0.2,0.9c0.2,0.3,0.5,0.4,0.8,0.4l0,0c0.3,0,0.7-0.2,0.9-0.4l1.8-2.5h1l-0.1,0.1c-0.4,0.7-0.7,1.5-0.7,2.3
		c0,2.4,2,4.4,4.3,4.4S4.9,33,5,30.7l0,0l2-0.8l0,0c0.7,0.8,1.8,1.2,2.8,1.2h5.8c2.6,0,4.8-1.8,5.3-4.2l0.4-1.9h0.2l0,0l0.8,1.7l0,0
		c-1.2,0.8-1.9,2.2-1.9,3.6c0,2.4,2,4.4,4.4,4.4s4.3-2,4.3-4.4C29.5,28,27.5,26.1,25.1,26.1z M10.1,8.2c-0.8,0-1.5-0.7-1.5-1.5
		s0.7-1.5,1.5-1.5s1.5,0.7,1.5,1.5S11,8.2,10.1,8.2z M11.1,11.6c-0.3,0-0.5-0.2-0.5-0.5s0.2-0.5,0.5-0.5h4.2v1H11.1z M-6.4,29.9
		h-0.1c-0.1,0-0.1,0-0.1,0v-0.1l0.5-1.8h1.2L-6.4,29.9z M4.3,31.2c-0.4,1.5-1.7,2.6-3.3,2.6c-1.9,0-3.4-1.5-3.4-3.4
		c0-0.9,0.3-1.8,1-2.4l0,0h3.5l-1.7,0.7c-0.4,0.2-0.8,0.5-1,1s-0.2,1,0,1.4c0.3,0.7,1,1.2,1.7,1.2c0.2,0,0.4,0,0.7-0.1l2.7-1H4.3z
		 M4.6,29.9H4.5l-3.3,1.3c-0.1,0-0.2,0.1-0.3,0.1c-0.1,0-0.3,0-0.4-0.1c-0.2-0.1-0.4-0.3-0.5-0.5c-0.2-0.5,0-1,0.5-1.2l4-1.5h1.7
		v0.1c0.1,0.3,0.2,0.7,0.3,1v0.1L4.6,29.9z M22,24.1l0.7-2.8c0-0.1,0-0.2,0.1-0.3v-0.1h0.1l3.4,0.5c1.3,0.2,2.3,1.3,2.3,2.6v0.1
		C28.5,24.1,22,24.1,22,24.1z M25.1,33.8c-1.9,0-3.4-1.5-3.4-3.4c0-1.1,0.5-2.1,1.4-2.7l0.1-0.1l0.6,1.3l0,0
		c-0.4,0.4-0.6,0.9-0.6,1.5c0,1.1,0.9,2,2,2s2-0.9,2-2c0-1.3-1.2-2.3-2.5-2h-0.1L24,27.1h0.1c0.3-0.1,0.7-0.2,1.1-0.2
		c1.9,0,3.4,1.5,3.4,3.4S27,33.8,25.1,33.8z M25.5,30.2l-0.4-0.9h0.1c0.6,0,1,0.5,1,1.1s-0.5,1.1-1.1,1.1S24,31,24,30.4
		c0-0.2,0-0.3,0.1-0.5l0.1-0.1l0.4,0.8c0.1,0.2,0.2,0.3,0.4,0.3c0.1,0,0.1,0,0.2,0C25.5,30.7,25.6,30.4,25.5,30.2z"/>
</g>
<path class="st2" d="M29.6,25.7c-0.7-1.5-1.9-2.7-3.5-3.3c-1.3-0.5-2.8-0.7-4.2-0.5l0,0v-0.1l-0.6-1.3v-1.8h0.1
	c0.3,0.1,0.6,0.2,1,0.2h2c0.7,0,1.2-0.5,1.2-1.2v-3.2c0-0.7-0.5-1.2-1.2-1.2h-2c-0.3,0-0.6,0-1,0.2h-0.1v-2c0-0.3-0.1-0.6-0.2-0.8
	c-0.2-0.5-0.7-0.8-1.2-1l0,0l0,0l-0.9-2l0,0c0.3-0.2,0.5-0.5,0.5-0.9v-1c0-0.6-0.4-1-1.1-1.1l-2.8-0.5c-0.3,0-0.6,0-0.8,0.2
	c-0.3,0.2-0.4,0.6-0.4,0.9v1.5c0,0.6,0.5,1.1,1.1,1.1H18l0.8,1.8h-0.1h-2.8c-1,0-1.6,0.7-1.6,1.5s0.5,1.6,1.5,1.6l2.3,0.1v2L18,15
	c-0.4-0.3-1-0.6-1.7-0.8c-2.7-0.7-6.6-0.2-8,1.7l0,0H3.9c-0.3,0-0.5,0.2-0.5,0.5s0.2,0.5,0.5,0.5h4.2V20H-5.6c-0.8,0-1.3-0.4-1.3-1
	v-2.4c0-0.3,0.1-0.5,0.2-0.7c0.2-0.2,0.5-0.3,0.8-0.2h1c0.2,0,0.5,0.2,0.8,0.5s0.8,0.7,1.4,0.8v0.1V17h4c0.3,0,0.5-0.2,0.5-0.5
	S1.6,16,1.3,16h-3.8c-0.3,0-0.5-0.2-0.8-0.5c-0.4-0.3-0.8-0.8-1.4-0.8h-1c-0.6,0-1.2,0.1-1.6,0.5c-0.2,0.2-0.5,0.7-0.5,1.4V19
	c0,1.2,0.9,2,2.2,2h3.9l-0.2,0.9H-2c-2.4,0-5.2,1.2-5.9,3.7c-0.2,0.9-0.2,1.5,0.1,1.9c0.1,0.1,0.2,0.2,0.4,0.3l0,0v0.1
	c-0.1,0.4-0.1,0.8-0.1,1.1c0,3.2,2.6,5.8,5.8,5.8c2.7,0,5.1-1.9,5.7-4.5v-0.1h2.6c0.3,0,0.5-0.2,0.5-0.5s-0.2-0.5-0.5-0.5H0v-0.1
	c0.1-0.2,0.1-0.3,0.1-0.5l0.2-0.8H10c0.8,0,1.2-0.2,1.7-0.9l4.4-6h2L18,21l-5.5,7.1l0,0c-0.6,1-1.3,1-1.5,1H8.8
	c-0.3,0-0.5,0.2-0.5,0.5s0.2,0.5,0.5,0.5H11c0.9,0,1.7-0.5,2.3-1.4l5.3-6.7l0.5,1H19c-1,0.7-1.7,1.6-2.1,2.6c-0.3,0.8-0.3,1.5,0,1.9
	c0.1,0.2,0.3,0.3,0.5,0.4h0.1l0,0c0,0.3,0,0.5,0,0.8c0,3.2,2.6,5.8,5.8,5.8s5.8-2.6,5.8-5.8c0-0.3,0-0.5,0-0.8v-0.1h0.1
	c0.3-0.1,0.5-0.3,0.6-0.5C30.1,27,29.8,26.1,29.6,25.7z M21.3,14.8L21.3,14.8c0.3-0.2,0.7-0.3,1-0.3h2c0.1,0,0.2,0.1,0.2,0.2v3.2
	c0,0.1-0.1,0.2-0.2,0.2h-2c-0.4,0-0.7-0.1-1-0.3l0,0V14.8z M18.5,6.9c0,0.1-0.1,0.2-0.2,0.2h-2.8c-0.1,0-0.2-0.1-0.2-0.2V5.4
	c0-0.1,0-0.1,0-0.2l0,0l2.8,0.5c0.1,0,0.3,0.1,0.3,0.2v1H18.5z M-6.7,26.9L-6.7,26.9c-0.2,0-0.2,0-0.2,0c-0.1-0.1-0.1-0.4,0-1
	c0.4-1.6,2.4-2.8,4.7-2.9h0.1L-3,27h-3.7C-6.7,26.9-6.7,26.9-6.7,26.9z M1.3,30.2L1.3,30.2H3v0.1c-0.6,2.1-2.5,3.5-4.7,3.5
	c-2.7,0-4.8-2.2-4.8-4.8c0-0.3,0-0.7,0.1-1v-0.1h1.8V28c-0.1,0.3-0.2,0.7-0.2,1c0,1.7,1.4,3.2,3.1,3.2C-0.4,32.1,0.8,31.3,1.3,30.2z
	 M0.3,30.1l-0.1,0.1c-0.4,0.5-1,0.9-1.7,0.9c-1.2,0-2.2-1-2.2-2.2c0-0.4,0.1-0.7,0.3-1.1l0,0h0.4v0.1h-0.1h0.1
	c-0.2,1.2,0.5,2,1.3,2.1h0.1h0.1L0.3,30.1z M0.5,22.8l-1.3,5.6h-0.1h0.1c-0.1,0.6-0.5,0.7-0.8,0.7h-0.1c-0.2,0-0.7-0.2-0.5-1
	l1.5-7.2h1.7L0.5,22.8L0.5,22.8L0.5,22.8z M3.6,26.9h-3l0.7-3.3l0.1,0.1C2.4,24.2,3,25,3.4,25.9C3.4,26.1,3.5,26.5,3.6,26.9
	L3.6,26.9z M3.8,24.7c-0.5-0.9-1.3-1.6-2.2-2l0,0L2,21h5.5L3.8,24.7L3.8,24.7z M10.9,26.4c-0.3,0.4-0.4,0.4-0.9,0.4H9.3v-0.1
	c0-0.1,0-0.2,0-0.3c0-0.3,0.1-0.5,0.3-0.7c0.2-0.2,0.5-0.3,0.8-0.3c0.4,0,0.8,0.2,1,0.5l0,0L10.9,26.4z M14.3,22h-3.5
	c-0.3,0-0.5,0.2-0.5,0.5s0.2,0.5,0.5,0.5h2.8l-1.6,2.2l-0.1-0.1c-0.4-0.4-0.9-0.6-1.5-0.6s-1.1,0.2-1.5,0.6s-0.6,0.8-0.6,1.4
	c0,0.1,0,0.3,0,0.4V27H4.5v-0.1c0-0.4-0.1-0.7-0.2-1l0,0l4.4-4.8h6.1L14.3,22z M18.1,20H9v-3.4l0,0c1.1-1.6,4.6-2,7-1.4
	c0.6,0.2,2.1,0.7,2.1,1.7V20z M18.8,12.1L16,11.9c-0.5,0-0.6-0.3-0.6-0.6c0-0.1,0.1-0.5,0.6-0.5h3.7c0.3,0,0.5,0.2,0.7,0.4l0,0
	c0,0.1,0.1,0.2,0.1,0.4v9.1c0,0.1,0,0.1,0,0.2l0.8,1.7l0,0l2.6,5.5c0.2,0.4,0,0.7-0.2,0.7c-0.1,0-0.2,0.1-0.3,0.1
	c-0.2,0-0.3-0.1-0.4-0.2L19.1,21v-8.4C19.1,12.3,19,12.1,18.8,12.1z M24.8,28.3v-0.1h0.5v0.1c0.1,0.2,0.1,0.5,0.1,0.7
	c0,1.2-1,2.2-2.2,2.2S21,30.2,21,29c0-0.2,0-0.5,0.1-0.7v-0.1h0.4l0.5,1.1c0.2,0.5,0.7,0.8,1.3,0.8c0.3,0,0.5-0.1,0.7-0.2
	C24.5,29.7,25,29.1,24.8,28.3z M17.8,27.1c0,0-0.1-0.1-0.1-0.3c0-0.2,0-0.4,0.2-0.7c0.3-0.8,0.8-1.5,1.6-2.1h0.1v0.1l1.5,3.2h-2.9
	C18,27.2,17.8,27.2,17.8,27.1z M23.3,33.8c-2.7,0-4.8-2.2-4.8-4.8c0-0.2,0-0.5,0.1-0.7v-0.1h1.7v0.1c0,0.2-0.1,0.4-0.1,0.6
	c0,1.7,1.4,3.2,3.1,3.2c1.7,0,3.2-1.4,3.2-3.2c0-0.2,0-0.4-0.1-0.6v-0.1h1.7v0.1c0,0.2,0,0.5,0,0.7C28.1,31.6,26,33.8,23.3,33.8z
	 M29,27.1c-0.1,0.1-0.3,0.1-0.5,0.1h-4l0,0l-2-4.3h0.1c2.1-0.2,5.1,0.5,6.3,3.3C29,26.5,29,26.9,29,27.1z"/>
<g class="st0">
	<path class="st3" d="M25,34.6c2.4,0,4.3-1.9,4.3-4.3v-0.5h0.9c0.2,0,0.3-0.1,0.3-0.2c0.1-0.1,0.1-0.2,0.1-0.3l0,0
		c-0.4-2.6-2.4-4.5-5-4.8h-0.2v-0.2c1-5.5-0.2-11.5-3.2-15.7l-0.1-0.2l0.2-0.1c1.6-0.5,2.6-1.9,2.6-3.5c0-0.3-0.2-0.4-0.4-0.4h-27
		c-2.8,0-5.1,2.3-5.1,5.1v16.9v0.1c-0.8,0.8-1.3,1.9-1.5,3l0,0c0,0.1,0,0.2,0.1,0.3S-8.8,30-8.6,30h1v0.2c-0.1,1.2,0.3,2.4,1.2,3.3
		c0.8,0.9,1.9,1.4,3.1,1.4s2.3-0.5,3.1-1.4C0.6,32.6,1,31.4,1,30.2V30h19.5v0.5C20.8,32.7,22.8,34.6,25,34.6 M28.5,30.2
		c0,2-1.5,3.5-3.4,3.5c-1,0-1.9-0.4-2.6-1.1c-0.7-0.7-1-1.7-0.9-2.6v-0.2h0.2c0.2,0,0.2,0,0.3,0c0.2,0,1,0,6.1-0.1h0.2v0.5H28.5z
		 M25.5,25.3h0.2c1.9,0.2,3.5,1.5,4.1,3.3l0.1,0.2h-5.5l0.1-0.3C24.8,27.5,25.2,26.4,25.5,25.3L25.5,25.3z M25,18.5L25,18.5v0.2
		h-4.7V8.3h1l0.1,0.1C23.3,11,24.8,14.7,25,18.5 M-6.5,9.4c0-2.3,1.9-4.2,4.2-4.2h26.4L24,5.4c-0.3,1.2-1.4,2.1-2.7,2.1H3.8
		c-1,0-1.9,0.9-1.9,1.9v9.4h-8.4V9.4z M11.3,19.5v-0.2H11V18h4.5v1.5H11.3z M14.3,26.3H11v-5.9h3.2V26.3z M15.1,20.4h0.2
		c0.6,0,1-0.4,1-1v-1.2c0-0.6-0.4-1-1-1h-4.4V8.4h8.4v17.9H15L15.1,20.4L15.1,20.4z M10.1,8.3v17.9H6l0,0l-1.1-6
		c-0.2-0.8-1-1.5-2-1.5H2.7V9.4c0-0.5,0.5-1,1-1h6.4V8.3z M-0.6,32.6c-0.7,0.7-1.6,1.1-2.5,1.1c-1,0-1.9-0.4-2.5-1.1
		c-0.7-0.7-1-1.7-0.9-2.7v-0.2h6.8v0.2C0.4,30.9,0.1,31.9-0.6,32.6 M-7.9,28.9l0.1-0.2c0.7-2,2.6-3.4,4.7-3.4s4,1.4,4.7,3.4l0.1,0.2
		H-7.9z M4.3,28.9L4.3,28.9c-0.6,0-1,0-1.3,0H2.5v-0.1c-0.7-2.6-3-4.4-5.6-4.4c-1.1,0-2.2,0.3-3.1,0.9l-0.3,0.2v-5.9h0.3v-0.1h0.1
		v0.1h9c0.6,0,1,0.4,1.1,0.9l1.2,6.4c0,0.2,0.2,0.3,0.4,0.3h14.2c0.3,0,0.4-0.2,0.4-0.4v-7.2h4.8v0.2c0.1,3.1-0.5,6.3-1.8,9
		l-0.1,0.1h-0.1C11.6,28.9,6.5,28.9,4.3,28.9"/>
</g>
<g class="st0">
	<path class="st1" d="M31.5,29.9v-2.1c0-0.3-0.2-0.5-0.5-0.5s-0.5,0.2-0.5,0.5v2.1c0,0.3-0.2,0.5-0.5,0.5h-0.9v-0.1
		c-0.4-1.9-2-3.2-3.9-3.2h-4.9c-0.3,0-0.5-0.2-0.5-0.5v-9.2c0-0.3,0.2-0.5,0.5-0.5h2.1v4c0,1.2,0.9,2.1,2.1,2.1h6v2
		c0,0.3,0.2,0.5,0.5,0.5s0.5-0.2,0.5-0.5v-4.1c0-2.7-2.2-4.9-4.9-4.9h-6.3c-0.8,0-1.5,0.7-1.5,1.5v6.8h-2V23c0-0.9-0.4-1.7-1.1-2.2
		l-0.1-0.1l0.4-0.5c0.4-0.5,0.5-1.1,0.4-1.7l-1-4.1c-0.2-1-0.8-1.9-1.6-2.5L5.4,5.2c-0.8-0.6-1.8-1-2.9-1h-4.2
		c-0.6,0-1.2,0.3-1.6,0.8l-3.3,4.2C-7,9.7-7.1,10.3-7,10.9l1,4.1c0.2,1,0.8,1.9,1.6,2.5l3.3,2.6l-2.1,4.2h-1.2c-1.3,0-2.4,0.7-3,1.9
		l-2,4.2c-0.1,0.2-0.1,0.5,0,0.7s0.4,0.3,0.6,0.3H-6v0.1c0,0.1,0,0.1,0,0.2c0,1.7,1.4,3.1,3.1,3.1s3.1-1.4,3.1-3.1
		c0-0.1,0-0.1,0-0.2v-0.1h1v0.1c0,0.1,0,0.1,0,0.2c0,1.7,1.4,3.1,3.1,3.1s3.1-1.4,3.1-3.1c0-0.1,0-0.1,0-0.2v-0.1h5v0.1
		c0.1,0.6,0.5,1,1.1,1H16c0.6,0,1.1-0.4,1.1-1v-0.1h4.1v0.1c0,0.1,0,0.1,0,0.2c0,1.7,1.4,3.1,3.1,3.1s3.1-1.4,3.1-3.1
		c0-0.1,0-0.1,0-0.2v-0.1h2.4C30.8,31.4,31.5,30.7,31.5,29.9 M23.3,16.9h3.3c2.2,0,4,1.8,4,4v1.2h-6.1c-0.6,0-1.2-0.5-1.2-1.2V16.9z
		 M15.8,23v1.2h-3l2.2-2.7l0.1,0.1C15.5,21.9,15.8,22.5,15.8,23 M-4.9,15.5L-5,15.3c-0.1-0.2-0.1-0.4-0.2-0.5l-1-4.1
		c-0.1-0.3,0-0.7,0.2-0.9l3.3-4.2c0.2-0.3,0.5-0.4,0.9-0.4h4.2c0.2,0,0.4,0,0.6,0h0.2L-4.9,15.5z M-3.9,16.8
		c-0.1-0.1-0.3-0.2-0.4-0.4l-0.1-0.1l0.1-0.1L4.1,5.5l0.1,0.1c0.2,0.1,0.3,0.2,0.5,0.3l8.5,6.7c0.1,0.1,0.3,0.2,0.4,0.4l0.1,0.1
		l-1.4,1.8c-0.2,0.2-0.1,0.5,0.1,0.7s0.5,0.1,0.7-0.1l1.3-1.6l0.1,0.2c0.1,0.2,0.1,0.4,0.2,0.5l1,4.1c0.1,0.3,0,0.7-0.2,0.9
		l-3.3,4.2c-0.2,0.3-0.5,0.4-0.9,0.4H7.2c-0.2,0-0.4,0-0.6,0H6.4l5.1-6.5c0.1-0.1,0.1-0.2,0.1-0.3c0-0.1-0.1-0.2-0.2-0.3
		c-0.2-0.2-0.5-0.1-0.7,0.1l-5.3,6.7l-0.1-0.1c-0.2-0.1-0.3-0.2-0.5-0.3L-3.9,16.8z M-0.5,20.7l4.6,3.6h-6.4L-0.5,20.7z M-2.9,33.9
		c-1.2,0-2.2-1-2.2-2.2s1-2.2,2.2-2.2s2.2,1,2.2,2.2S-1.7,33.9-2.9,33.9 M4.3,33.9c-1.2,0-2.2-1-2.2-2.2s1-2.2,2.2-2.2
		s2.2,1,2.2,2.2S5.5,33.9,4.3,33.9 M7.3,30.4L7.3,30.4c-0.6-1.2-1.7-1.9-2.9-1.9c-1.2,0-2.3,0.7-2.8,1.8v0.1H0.1v-0.1
		c-0.5-1.1-1.6-1.8-2.8-1.8s-2.3,0.7-2.8,1.8v0.1h-0.7l1.5-3.1c0.1-0.2,0.2-0.3,0.4-0.3H6.2c0.2,0,0.3,0.1,0.4,0.2l1.5,3.1L7.3,30.4
		L7.3,30.4z M9.3,30.4c-0.1,0-0.2-0.1-0.3-0.2l-1.7-3.3C7,26.4,6.5,26.1,6,26.1H-4.5c-0.5,0-1,0.3-1.3,0.8l-1.6,3.3
		c0,0.1-0.1,0.2-0.3,0.2h-0.7h-0.1l1.9-3.9c0.4-0.8,1.2-1.3,2.1-1.3H6c0.9,0,1.7,0.5,2.1,1.3l2,3.9H9.3z M16.3,31.4
		c0,0.1-0.1,0.2-0.2,0.2h-2.5c-0.1,0-0.2-0.1-0.2-0.2v-1.9c0-0.3-0.2-0.5-0.5-0.5s-0.5,0.2-0.5,0.5v1h-1.3v-0.1l-1.6-3.3h6.8V31.4z
		 M9,26.2L9,26.2c-0.2-0.3-0.3-0.5-0.5-0.7l-0.2-0.2h10.4v1L9,26.2L9,26.2z M24.5,33.9c-1.2,0-2.2-1-2.2-2.2s1-2.2,2.2-2.2
		s2.2,1,2.2,2.2S25.8,33.9,24.5,33.9 M27.5,30.4L27.5,30.4c-0.6-1.2-1.7-1.9-2.9-1.9s-2.3,0.7-2.8,1.8v0.1h-4.4v-3.3h1.6v0.1
		c0.2,0.5,0.8,0.9,1.3,0.9h4.9c1.4,0,2.6,0.9,2.9,2.2v0.2h-0.6V30.4z"/>
	<path class="st1" d="M4.3,31.2c-0.3,0-0.5,0.2-0.5,0.5s0.2,0.5,0.5,0.5s0.5-0.2,0.5-0.5S4.6,31.2,4.3,31.2"/>
</g>
<g>
	<polygon class="st4" points="21,31.8 18,29.6 17.9,28.6 17.9,28.3 17.8,27.7 19.9,27.6 19.9,28.1 20,29.3 	"/>
	<polygon class="st5" points="19.9,28.1 17.9,28.6 17.9,28.3 	"/>
	<path class="st6" d="M9,19.2c2.1-0.4,6-0.9,8.4-1.2c2.1-0.2,2.6,1.4,2.7,2.1c0.1,0.9,0.5,8,0.5,8l-3.4,0.2l-0.5-6.7l-7.5,1.2
		L9,19.2z"/>
	<g>
		<path class="st7" d="M18.7,28.2c0-0.1-0.5-6.9-0.5-7.6c0-0.4-0.1-0.6-0.2-0.7c-0.1-0.1-0.3-0.2-0.6-0.1c-0.7,0.1-7.4,0.9-7.5,0.9
			l0-0.1c0.1,0,6.8-0.8,7.5-0.9c0.3,0,0.6,0,0.7,0.2c0.2,0.1,0.3,0.4,0.3,0.8c0,0.6,0.5,7.5,0.5,7.6L18.7,28.2z"/>
	</g>
	<polygon class="st4" points="7.1,4.9 6.7,5.9 6.6,6.2 6.4,6.5 4.6,5.7 5.2,4.2 4.9,1.7 	"/>
	<polygon class="st5" points="6.7,5.9 6.6,6.2 4.7,5.4 	"/>
	<path class="st8" d="M9.6,19.3c-2.8-3.2-3.9-4.4-4.3-4.8c-0.5-0.6-0.6-0.6-0.4-1.3c0.2-0.7,2.4-6.6,2.4-6.6L4.2,5.2
		c0,0-2.8,7.2-3,7.9c-0.3,0.7-0.3,1.4,0.3,2.3c0.9,1.5,3.7,5,5.3,6.7c0,0-0.2,0.3-0.5,0.8l1.6,1.8C10.1,24.5,12.4,22.5,9.6,19.3z"/>
	<g>
		<path class="st7" d="M7,23.8l0-0.1c1.1-0.5,1.7-1,1.8-1.5c0.1-0.6-0.3-1.1-0.6-1.5l-0.1-0.1c-0.3-0.3-1.4-1.7-2.4-3
			c-1.1-1.3-2.2-2.7-2.5-3c-0.4-0.6-0.5-0.8-0.2-1.4c0.2-0.6,2.8-7.3,2.8-7.3l0.1,0c0,0.1-2.6,6.7-2.8,7.3c-0.2,0.6-0.2,0.8,0.2,1.3
			c0.2,0.3,1.4,1.7,2.5,3c1.1,1.3,2.2,2.6,2.4,3l0.1,0.1c0.3,0.4,0.8,1,0.6,1.6C8.7,22.8,8.1,23.3,7,23.8z"/>
	</g>
	<g>
		<defs>
			<polygon id="SVGID_1_" points="21,31.8 18,29.6 17.9,28.6 17.9,28.3 17.8,27.7 19.9,27.6 19.9,28.1 20,29.3 			"/>
		</defs>
		<clipPath id="SVGID_2_">
			<use xlink:href="#SVGID_1_"  style="overflow:visible;"/>
		</clipPath>
	</g>
	<g>
		<defs>
			<polygon id="SVGID_3_" points="7.1,4.9 6.7,5.9 6.6,6.2 6.4,6.5 4.6,5.7 5.2,4.2 4.9,1.7 			"/>
		</defs>
		<clipPath id="SVGID_4_">
			<use xlink:href="#SVGID_3_"  style="overflow:visible;"/>
		</clipPath>
	</g>
	<path class="st4" d="M16.1,36.6c-0.5-0.2-1.1-0.5-1.8-0.7c-1.6-0.6-3.5-1.1-5.5-1.3c0.2-1.1,0.3-2,0.3-2.9H6.1c0,0.2,0,0.4,0,0.6
		c0,1.4,0.1,2.8,0.3,3.6c0.3,1.2,0.7,1.3,1.5,1.3c0.5,0,4.2,0,6.5-0.1c0.8,0,1.5,0,1.8,0C17.3,37.3,17.3,37.2,16.1,36.6z"/>
	<g>
		<path class="st4" d="M9.1,28.7c0.2,0.1,1.2,0.7,1.2,0.7l-0.5,0.3c0,0-0.7-0.2-1-0.3c-0.3-0.1-0.3-0.3-0.2-0.5
			C8.6,28.7,8.8,28.6,9.1,28.7z"/>
		<path class="st4" d="M10.3,30.1c-0.3-0.1-1-0.3-0.7-0.7l0.3-0.2l0.6,0l0.2,0.4l-0.1,0.5L10.3,30.1z"/>
		<path class="st9" d="M10.5,30.1c-0.1-0.2-0.2-0.5-0.2-0.6c0.2-0.1,0-0.3-0.2-0.2C10,29.2,10,29.2,10,29.2c0.3-0.2,1-0.1,1.1,0.4
			c0.1,0.4-0.3,1-0.8,0.6C10.3,30.1,10.4,30.1,10.5,30.1z"/>
		<path class="st9" d="M11,29.6c0.2,0.4,0.6,0.4,0.8,0.2c0.2-0.2,0.1-0.6-0.1-0.7C11.4,29,11.1,29.1,11,29.6z"/>
		<path class="st7" d="M9.6,29.4l-0.4,0.1l0.4,0.1C9.6,29.6,9.6,29.5,9.6,29.4z"/>
	</g>
	<path class="st10" d="M6.3,30.1c1.8,1.3,3-0.1,2.8-1.4c-0.2-1.3-1.3-4.2-1.3-4.2l-1.6-1.8C5.2,24.4,3.4,28,6.3,30.1z"/>
	<path class="st10" d="M9.1,28.7l-2.6,0.1c-0.2,0.8-0.4,1.9-0.4,3h3.1C9.2,30.6,9.2,29.6,9.1,28.7z"/>
	<g>
		<defs>
			<path id="SVGID_5_" d="M6.3,30.1c1.8,1.3,3-0.1,2.8-1.4c-0.2-1.3-1.3-4.2-1.3-4.2l-1.6-1.8C5.2,24.4,3.4,28,6.3,30.1z"/>
		</defs>
		<clipPath id="SVGID_6_">
			<use xlink:href="#SVGID_5_"  style="overflow:visible;"/>
		</clipPath>
		<g class="st11">
			<path class="st12" d="M6.2,30.1L6.2,30.1c0-0.8,0.2-1.3,0.2-1.3l0,0C6.5,28.9,6.3,29.4,6.2,30.1z"/>
		</g>
	</g>
</g>
</svg>
