<?xml version="1.0" encoding="utf-8"?>
<!-- Generator: Adobe Illustrator 19.2.1, SVG Export Plug-In . SVG Version: 6.00 Build 0)  -->
<svg version="1.1" id="Layer_1" xmlns="http://www.w3.org/2000/svg" xmlns:xlink="http://www.w3.org/1999/xlink" x="0px" y="0px"
	 viewBox="0 0 24.2 22" style="enable-background:new 0 0 24.2 22;" xml:space="preserve">
<style type="text/css">
	.st0{display:none;}
	.st1{display:inline;fill:#39435B;}
	.st2{display:none;fill:#3A445B;}
	.st3{display:inline;fill:#3A445B;}
	.st4{fill:#FFE2CE;}
	.st5{opacity:0.45;fill:#FFE2CE;}
	.st6{fill:#1B4A5C;}
	.st7{fill:#5DB5B1;}
	.st8{fill:#216F80;}
	.st9{fill:#00003C;}
	.st10{fill:#151549;}
	.st11{fill-rule:evenodd;clip-rule:evenodd;}
</style>
<g class="st0">
	<path class="st1" d="M36.2,19.7h2.1v-5.8c0-1.7-1.1-2.1-2.4-2.4c-0.1,0-0.2,0-0.3-0.1c-3.1-0.6-3.7-1.2-3.8-1.5
		c-1.4-5.3-5.5-5.3-8.5-5.3h-1.9v14.2h-1.5V0.3h-34v19.4h1.7v0.2c0.3,1.1,1.2,1.8,2.3,1.8s2-0.7,2.3-1.8v-0.2h0.9v0.2
		c0.3,1.1,1.2,1.8,2.3,1.8s2-0.7,2.3-1.8v-0.2h9.2v0.2c0.3,1.1,1.2,1.8,2.3,1.8s2-0.7,2.3-1.8v-0.2h0.9v0.2c0.3,1.1,1.2,1.8,2.3,1.8
		s2-0.7,2.3-1.8v-0.2h13.9l0.1,0.2c0.3,1,1.2,1.7,2.3,1.7c1,0,2-0.7,2.3-1.7L36.2,19.7z M-10,20.8c-0.8,0-1.5-0.7-1.5-1.5
		s0.7-1.5,1.5-1.5s1.5,0.7,1.5,1.5C-8.4,20.1-9.1,20.8-10,20.8 M-4.3,20.8c-0.8,0-1.5-0.7-1.5-1.5s0.7-1.5,1.5-1.5s1.5,0.7,1.5,1.5
		C-2.8,20.1-3.5,20.8-4.3,20.8 M9.6,20.8c-0.8,0-1.5-0.7-1.5-1.5s0.7-1.5,1.5-1.5s1.5,0.7,1.5,1.5C11.1,20.1,10.5,20.8,9.6,20.8
		 M15.4,20.8c-0.8,0-1.5-0.7-1.5-1.5s0.7-1.5,1.5-1.5s1.5,0.7,1.5,1.5C16.9,20.1,16.1,20.8,15.4,20.8 M18.9,18.8h-1.3v-0.2
		c-0.3-1.1-1.2-1.8-2.3-1.8s-2.1,0.7-2.3,1.8v0.2h-0.9v-0.2c-0.3-1.1-1.2-1.8-2.3-1.8s-2.1,0.7-2.3,1.8v0.2h-9.2v-0.2
		c-0.2-1.1-1.1-1.8-2.2-1.8s-2.1,0.7-2.3,1.8v0.2h-0.9v-0.2c-0.3-1.1-1.2-1.8-2.3-1.8s-2.1,0.7-2.3,1.8v0.2h-1.5V1.2h32.1V18.8
		C18.9,18.8,18.9,18.8,18.9,18.8z M33.9,20.7c-0.8,0-1.5-0.7-1.5-1.5s0.7-1.5,1.5-1.5s1.5,0.7,1.5,1.5S34.7,20.7,33.9,20.7
		 M33.9,16.8c-1.1,0-2.1,0.8-2.4,1.9v0.2h-9.4V5.6h1c3.1,0,6.4,0,7.6,4.7c0.3,1.2,2.4,1.7,4.5,2.1c0.1,0,0.2,0,0.3,0.1
		c1.1,0.3,1.6,0.5,1.7,1.3v0.3h-0.6c-0.2,0-0.4,0.2-0.4,0.4s0.2,0.4,0.4,0.4h0.7V16h-0.7c-0.2,0-0.4,0.2-0.4,0.4s0.2,0.4,0.4,0.4
		h0.7v2.1h-1.1v-0.2C36.1,17.6,35.1,16.8,33.9,16.8"/>
</g>
<g class="st0">
	<path class="st1" d="M26.2,17.6c-0.5,0-1,0.1-1.5,0.3h-0.1l-0.7-1.3h5.7c0.4,0,0.8-0.3,0.8-0.8v-0.2c0-1.8-1.3-3.3-3.1-3.6
		l-3.6-0.5v-0.1c-0.1-0.5-0.2-1-0.4-1.5l-0.7-1.2c0-0.1-0.1-0.2-0.3-0.2c-0.1,0-0.3,0-0.4,0c-0.1,0.1-0.2,0.2-0.2,0.3
		c0,0.1,0,0.3,0,0.4l0.7,1.3c0.4,0.7,0.5,1.5,0.3,2.2l-1.3,5.6c-0.5,2.1-2.3,3.5-4.4,3.5h-5.8c-1.3,0-2.5-0.9-2.8-2.1v-0.1h1.5
		c0.3,0,0.5-0.2,0.5-0.5s-0.2-0.5-0.5-0.5H-4.8l0.1-0.5c0.9-4.2,4.6-7.2,8.9-7.2h0.5c0.3,0,0.5-0.2,0.5-0.5S5,9.9,4.7,9.9H4.2
		C3.5,9.9,2.7,10,2,10.2H1.9V10c0-0.4-0.3-0.7-0.7-0.7C1,9.3,0.9,9.2,0.7,9.1C0.6,9,0.5,8.8,0.5,8.6C0.5,8.3,0.8,8,1.2,8h11
		c0.6,0,1,0.4,1,1v1.5l-0.1-0.1c-0.5-0.3-1-0.5-1.6-0.5H7.3c-0.3,0-0.5,0.2-0.5,0.5s0.2,0.5,0.5,0.5h4.2c0.5,0,1,0.2,1.3,0.6
		s0.4,0.9,0.3,1.4L12,18.4c0,0.2,0,0.3,0.1,0.4l0,0c0.1,0.1,0.2,0.2,0.4,0.2H17c0.9,0,1.6-0.6,1.8-1.4l1-4.3c0.2-1,0.1-2-0.4-2.9
		L16,4h0.5c0.5,0,0.8-0.4,0.8-0.8V2c0-0.4-0.2-0.7-0.6-0.8h-0.2L18.4,0c0.3-0.2,0.7-0.3,1-0.2c0.4,0.1,0.7,0.3,0.8,0.6
		c0.4,0.6,0.2,1.4-0.4,1.8l-0.7,0.5c-0.4,0.2-0.5,0.7-0.3,1.1L20.5,7c0.2,0.2,0.4,0.3,0.6,0.2c0.2-0.1,0.3-0.4,0.2-0.6l-1.5-3.1
		l0.7-0.4c1-0.7,1.3-2,0.7-3.1c-0.3-0.5-0.8-0.9-1.4-1.1s-1.3,0-1.8,0.3l-2.5,1.6c-0.1,0.1-0.2,0.2-0.4,0.4l0,0h-0.5v-2.7
		c0-0.3-0.3-0.6-0.6-0.6h-0.4l0,0c-0.2-1.2-1.2-2.1-2.4-2.1c-1.3,0-2.4,1.1-2.4,2.4s1.1,2.4,2.4,2.4c1,0,1.8-0.6,2.2-1.4l0.1-0.3
		v2.3h-1.4c-0.8,0-1.4,0.6-1.4,1.4S11.3,4,12.1,4h2.8l0,0l3.6,6.8c0.4,0.7,0.5,1.5,0.3,2.2l-1,4.3c-0.1,0.4-0.5,0.7-0.9,0.7h-4
		l1.1-5c0-0.2,0.1-0.4,0.1-0.6V8.9c0-1.1-0.9-1.9-1.9-1.9h-11C0.3,7-0.4,7.7-0.4,8.5c0,0.4,0.1,0.9,0.4,1.2c0.2,0.3,0.5,0.4,0.9,0.5
		H1v0.2H0.9c-1.1,0.4-2.1,1-3,1.7c-1.8,1.5-3,3.5-3.5,5.7l-0.2,1c0,0.1-0.4,1.4-0.6,2.3c-0.1,0.3,0,0.7,0.2,0.9
		c0.2,0.3,0.5,0.4,0.8,0.4l0,0c0.3,0,0.7-0.2,0.9-0.4l1.8-2.5h1l-0.1,0.1c-0.4,0.7-0.7,1.5-0.7,2.3c0,2.4,2,4.4,4.3,4.4
		s4.2-1.8,4.3-4.1l0,0l2-0.8l0,0c0.7,0.8,1.8,1.2,2.8,1.2h5.8c2.6,0,4.8-1.8,5.3-4.2l0.4-1.9h0.2l0,0l0.8,1.7l0,0
		c-1.2,0.8-1.9,2.2-1.9,3.6c0,2.4,2,4.4,4.4,4.4s4.3-2,4.3-4.4C30.6,19.5,28.6,17.6,26.2,17.6z M11.2-0.3c-0.7,0-1.5-0.7-1.5-1.5
		s0.7-1.5,1.5-1.5s1.5,0.7,1.5,1.5S12.1-0.3,11.2-0.3z M12.2,3.1c-0.3,0-0.5-0.2-0.5-0.5s0.2-0.5,0.5-0.5h4.2v1H12.2z M-5.3,21.4
		L-5.3,21.4c-0.2,0-0.2,0-0.2,0v-0.1l0.5-1.8h1.2L-5.3,21.4z M5.4,22.7c-0.4,1.5-1.7,2.6-3.3,2.6c-1.9,0-3.4-1.5-3.4-3.4
		c0-0.9,0.3-1.8,1-2.4l0,0h3.5l-1.7,0.7c-0.4,0.2-0.8,0.5-1,1s-0.2,1,0,1.4c0.3,0.7,1,1.2,1.7,1.2c0.2,0,0.4,0,0.7-0.1l2.7-1
		C5.6,22.7,5.4,22.7,5.4,22.7z M5.7,21.4L5.7,21.4l-3.4,1.3c-0.1,0-0.2,0.1-0.3,0.1c-0.1,0-0.3,0-0.4-0.1c-0.2-0.1-0.4-0.3-0.5-0.5
		c-0.2-0.5,0-1,0.5-1.2l4-1.5h1.7v0.1c0.1,0.3,0.2,0.7,0.3,1v0.1L5.7,21.4z M23.1,15.6l0.7-2.8c0-0.1,0-0.2,0.1-0.3v-0.1H24l3.4,0.5
		c1.3,0.2,2.3,1.3,2.3,2.6v0.1C29.6,15.6,23.1,15.6,23.1,15.6z M26.2,25.3c-1.9,0-3.4-1.5-3.4-3.4c0-1.1,0.5-2.1,1.4-2.7l0.1-0.1
		l0.6,1.3l0,0c-0.4,0.4-0.6,0.9-0.6,1.5c0,1.1,0.9,2,2,2s2-0.9,2-2c0-1.3-1.2-2.3-2.5-2h-0.1l-0.6-1.3h0.1c0.3-0.1,0.7-0.2,1.1-0.2
		c1.9,0,3.4,1.5,3.4,3.4S28.1,25.3,26.2,25.3z M26.6,21.7l-0.4-0.9h0.1c0.6,0,1,0.5,1,1.1S26.8,23,26.2,23s-1.1-0.5-1.1-1.1
		c0-0.2,0-0.3,0.1-0.5l0.1-0.1l0.4,0.8c0.1,0.2,0.2,0.3,0.4,0.3c0.1,0,0.1,0,0.2,0C26.6,22.2,26.7,21.9,26.6,21.7z"/>
</g>
<path class="st2" d="M30.7,17.2c-0.7-1.5-1.9-2.7-3.5-3.3c-1.3-0.5-2.8-0.7-4.2-0.5l0,0v-0.1L22.4,12v-1.8h0.1
	c0.3,0.1,0.6,0.2,1,0.2h2c0.7,0,1.2-0.5,1.2-1.2V6c0-0.7-0.5-1.2-1.2-1.2h-2c-0.3,0-0.6,0-1,0.2h-0.1V3c0-0.3-0.1-0.6-0.2-0.8
	c-0.2-0.5-0.7-0.8-1.2-1l0,0l0,0l-0.9-2l0,0c0.3-0.2,0.5-0.5,0.5-0.9v-1c0-0.6-0.4-1-1.1-1.1l-2.8-0.5c-0.3,0-0.6,0-0.8,0.2
	c-0.3,0.2-0.4,0.6-0.4,0.9v1.5c0,0.6,0.5,1.1,1.1,1.1h2.5l0.8,1.8h-0.1H17c-1,0-1.6,0.7-1.6,1.5s0.5,1.6,1.5,1.6l2.3,0.1v2l-0.1,0.1
	c-0.4-0.3-1-0.6-1.7-0.8c-2.7-0.7-6.6-0.2-8,1.7l0,0H5c-0.3,0-0.5,0.2-0.5,0.5S4.7,8.4,5,8.4h4.2v3.1H-4.5c-0.8,0-1.3-0.4-1.3-1V8.1
	c0-0.3,0.1-0.5,0.2-0.7c0.2-0.2,0.5-0.3,0.8-0.2h1c0.2,0,0.5,0.2,0.8,0.5C-2.7,8-2.2,8.4-1.6,8.5v0.1V8.5h4c0.3,0,0.5-0.2,0.5-0.5
	S2.7,7.5,2.4,7.5h-3.8c-0.3,0-0.5-0.2-0.8-0.5C-2.6,6.7-3,6.2-3.6,6.2h-1c-0.6,0-1.2,0.1-1.6,0.5c-0.2,0.2-0.5,0.7-0.5,1.4v2.4
	c0,1.2,0.9,2,2.2,2h3.9l-0.2,0.9h-0.1c-2.4,0-5.2,1.2-5.9,3.7C-7,18-7,18.6-6.7,19c0.1,0.1,0.2,0.2,0.4,0.3l0,0v0.1
	c-0.1,0.4-0.1,0.8-0.1,1.1c0,3.2,2.6,5.8,5.8,5.8c2.7,0,5.1-1.9,5.7-4.5v-0.1h2.6c0.3,0,0.5-0.2,0.5-0.5S8,20.7,7.7,20.7H1.1v-0.1
	c0.1-0.2,0.1-0.3,0.1-0.5l0.2-0.8h9.7c0.8,0,1.2-0.2,1.7-0.9l4.4-6h2l-0.1,0.1l-5.5,7.1l0,0c-0.6,1-1.3,1-1.5,1H9.9
	c-0.3,0-0.5,0.2-0.5,0.5s0.2,0.5,0.5,0.5h2.2c0.9,0,1.7-0.5,2.3-1.4l5.3-6.7l0.5,1h-0.1c-1,0.7-1.7,1.6-2.1,2.6
	c-0.3,0.8-0.3,1.5,0,1.9c0.1,0.2,0.3,0.3,0.5,0.4h0.1l0,0c0,0.3,0,0.5,0,0.8c0,3.2,2.6,5.8,5.8,5.8s5.8-2.6,5.8-5.8
	c0-0.3,0-0.5,0-0.8v-0.1h0.1c0.3-0.1,0.5-0.3,0.6-0.5C31.2,18.5,30.9,17.6,30.7,17.2z M22.4,6.3L22.4,6.3c0.3-0.2,0.7-0.3,1-0.3h2
	c0.1,0,0.2,0.1,0.2,0.2v3.2c0,0.1-0.1,0.2-0.2,0.2h-2c-0.4,0-0.7-0.1-1-0.3l0,0V6.3z M19.6-1.6c0,0.1-0.1,0.2-0.2,0.2h-2.8
	c-0.1,0-0.2-0.1-0.2-0.2v-1.5c0-0.1,0-0.1,0-0.2l0,0l2.8,0.5c0.1,0,0.3,0.1,0.3,0.2v1C19.5-1.6,19.6-1.6,19.6-1.6z M-5.6,18.4
	L-5.6,18.4c-0.2,0-0.2,0-0.2,0c-0.1-0.1-0.1-0.4,0-1c0.4-1.6,2.4-2.8,4.7-2.9H-1l-0.9,4h-3.7C-5.6,18.4-5.6,18.4-5.6,18.4z
	 M2.4,21.7L2.4,21.7h1.7v0.1c-0.6,2.1-2.5,3.5-4.7,3.5c-2.7,0-4.8-2.2-4.8-4.8c0-0.3,0-0.7,0.1-1v-0.1h1.8v0.1
	c-0.1,0.3-0.2,0.7-0.2,1c0,1.7,1.4,3.2,3.1,3.2C0.7,23.6,1.9,22.8,2.4,21.7z M1.4,21.6l-0.1,0.1c-0.4,0.5-1,0.9-1.7,0.9
	c-1.2,0-2.2-1-2.2-2.2c0-0.4,0.1-0.7,0.3-1.1l0,0h0.4v0.1H-2h0.1c-0.2,1.2,0.5,2,1.3,2.1h0.1h0.1L1.4,21.6z M1.6,14.3l-1.3,5.6H0.2
	h0.1c-0.1,0.6-0.5,0.7-0.8,0.7h-0.1c-0.2,0-0.7-0.2-0.5-1l1.5-7.2h1.7L1.6,14.3L1.6,14.3L1.6,14.3z M4.7,18.4h-3l0.7-3.3l0.1,0.1
	c0.9,0.5,1.5,1.3,1.9,2.2C4.5,17.6,4.6,18,4.7,18.4L4.7,18.4z M4.9,16.2c-0.5-0.9-1.3-1.6-2.2-2l0,0l0.4-1.7h5.5L4.9,16.2L4.9,16.2z
	 M12,17.9c-0.3,0.4-0.4,0.4-0.9,0.4h-0.7v-0.1c0-0.1,0-0.2,0-0.3c0-0.3,0.1-0.5,0.3-0.7c0.2-0.2,0.5-0.3,0.8-0.3
	c0.4,0,0.8,0.2,1,0.5l0,0L12,17.9z M15.4,13.5h-3.5c-0.3,0-0.5,0.2-0.5,0.5s0.2,0.5,0.5,0.5h2.8l-1.6,2.2L13,16.6
	c-0.4-0.4-0.9-0.6-1.5-0.6s-1.1,0.2-1.5,0.6C9.6,17,9.3,17.4,9.3,18c0,0.1,0,0.3,0,0.4v0.1H5.6v-0.1c0-0.4-0.1-0.7-0.2-1l0,0
	l4.4-4.8h6.1L15.4,13.5z M19.2,11.5h-9.1V8.1l0,0c1.1-1.6,4.6-2,7-1.4c0.6,0.2,2.1,0.7,2.1,1.7V11.5z M19.9,3.6l-2.8-0.2
	c-0.5,0-0.6-0.3-0.6-0.6c0-0.1,0.1-0.5,0.6-0.5h3.7c0.3,0,0.5,0.2,0.7,0.4l0,0c0,0.1,0.1,0.2,0.1,0.4v9.1c0,0.1,0,0.1,0,0.2l0.8,1.7
	l0,0l2.6,5.5c0.2,0.4,0,0.7-0.2,0.7c-0.1,0-0.2,0.1-0.3,0.1c-0.2,0-0.3-0.1-0.4-0.2l-3.8-7.7V4.1C20.2,3.8,20.1,3.6,19.9,3.6z
	 M25.9,19.8v-0.1h0.5v0.1c0.1,0.2,0.1,0.5,0.1,0.7c0,1.2-1,2.2-2.2,2.2s-2.2-1-2.2-2.2c0-0.2,0-0.5,0.1-0.7v-0.1h0.4l0.5,1.1
	c0.2,0.5,0.7,0.8,1.3,0.8c0.3,0,0.5-0.1,0.7-0.2C25.6,21.2,26.1,20.6,25.9,19.8z M18.9,18.6c0,0-0.1-0.1-0.1-0.3
	c0-0.2,0-0.4,0.2-0.7c0.3-0.8,0.8-1.5,1.6-2.1h0.1v0.1l1.5,3.2h-2.9C19.1,18.7,18.9,18.7,18.9,18.6z M24.4,25.3
	c-2.7,0-4.8-2.2-4.8-4.8c0-0.2,0-0.5,0.1-0.7v-0.1h1.7v0.1c0,0.2-0.1,0.4-0.1,0.6c0,1.7,1.4,3.2,3.1,3.2s3.2-1.4,3.2-3.2
	c0-0.2,0-0.4-0.1-0.6v-0.1h1.7v0.1c0,0.2,0,0.5,0,0.7C29.2,23.1,27.1,25.3,24.4,25.3z M30.1,18.6c-0.1,0.1-0.3,0.1-0.5,0.1h-4l0,0
	l-2-4.3h0.1c2.1-0.2,5.1,0.5,6.3,3.3C30.1,18,30.1,18.4,30.1,18.6z"/>
<g class="st0">
	<path class="st3" d="M26.1,26.1c2.4,0,4.3-1.9,4.3-4.3v-0.5h0.9c0.2,0,0.3-0.1,0.3-0.2c0.1-0.1,0.1-0.2,0.1-0.3l0,0
		c-0.4-2.6-2.4-4.5-5-4.8h-0.2v-0.2c1-5.5-0.2-11.5-3.2-15.7l-0.1-0.2l0.2-0.1C25-0.7,26-2.1,26-3.7c0-0.3-0.2-0.4-0.4-0.4h-27
		c-2.8,0-5.1,2.3-5.1,5.1v16.9V18c-0.8,0.8-1.3,1.9-1.5,3l0,0c0,0.1,0,0.2,0.1,0.3c0.1,0.1,0.2,0.2,0.4,0.2h1v0.2
		c-0.1,1.2,0.3,2.4,1.2,3.3c0.8,0.9,1.9,1.4,3.1,1.4s2.3-0.5,3.1-1.4s1.2-2.1,1.2-3.3v-0.2h19.5V22C21.9,24.2,23.9,26.1,26.1,26.1
		 M29.6,21.7c0,2-1.5,3.5-3.4,3.5c-1,0-1.9-0.4-2.6-1.1s-1-1.7-0.9-2.6v-0.2h0.2c0.2,0,0.2,0,0.3,0c0.2,0,1,0,6.1-0.1h0.2L29.6,21.7
		C29.5,21.7,29.6,21.7,29.6,21.7z M26.6,16.8h0.2c1.9,0.2,3.5,1.5,4.1,3.3l0.1,0.2h-5.5l0.1-0.3C25.9,19,26.3,17.9,26.6,16.8
		L26.6,16.8z M26.1,10L26.1,10v0.2h-4.7V-0.2h1l0.1,0.1C24.4,2.5,25.9,6.2,26.1,10 M-5.4,0.9c0-2.3,1.9-4.2,4.2-4.2h26.4l-0.1,0.2
		C24.9-1.9,23.7-1,22.4-1H4.9C3.9-1,3-0.1,3,0.9v9.4h-8.4C-5.4,10.3-5.4,0.9-5.4,0.9z M12.4,11v-0.2h-0.3V9.5h4.5V11H12.4z
		 M15.4,17.8h-3.3v-5.9h3.2v5.9H15.4z M16.2,11.9h0.2c0.6,0,1-0.4,1-1V9.7c0-0.6-0.4-1-1-1H12v-8.8h8.4v17.9h-4.3L16.2,11.9
		L16.2,11.9z M11.2-0.2v17.9H7.1l0,0l-1.1-6c-0.2-0.8-1-1.5-2-1.5H3.8V0.9c0-0.5,0.5-1,1-1L11.2-0.2L11.2-0.2z M0.5,24.1
		c-0.7,0.7-1.6,1.1-2.5,1.1c-1,0-1.9-0.4-2.5-1.1c-0.7-0.7-1-1.7-0.9-2.7v-0.2h6.8v0.2C1.5,22.4,1.2,23.4,0.5,24.1 M-6.8,20.4
		l0.1-0.2c0.7-2,2.6-3.4,4.7-3.4s4,1.4,4.7,3.4l0.1,0.2H-6.8z M5.4,20.4L5.4,20.4c-0.6,0-1,0-1.3,0H3.6v-0.1c-0.7-2.6-3-4.4-5.6-4.4
		c-1.1,0-2.2,0.3-3.1,0.9L-5.4,17v-5.9h0.3V11H-5v0.1h9c0.6,0,1,0.4,1.1,0.9l1.2,6.4c0,0.2,0.2,0.3,0.4,0.3h14.2
		c0.3,0,0.4-0.2,0.4-0.4v-7.2h4.8v0.2c0.1,3.1-0.5,6.3-1.8,9l-0.1,0.1h-0.1C12.7,20.4,7.6,20.4,5.4,20.4"/>
</g>
<g class="st0">
	<path class="st1" d="M32.6,21.4v-2.1c0-0.3-0.2-0.5-0.5-0.5c-0.3,0-0.5,0.2-0.5,0.5v2.1c0,0.3-0.2,0.5-0.5,0.5h-0.9v-0.1
		c-0.4-1.9-2-3.2-3.9-3.2h-4.9c-0.3,0-0.5-0.2-0.5-0.5V8.9c0-0.3,0.2-0.5,0.5-0.5h2.1v4c0,1.2,0.9,2.1,2.1,2.1h6v2
		c0,0.3,0.2,0.5,0.5,0.5s0.5-0.2,0.5-0.5v-4.1c0-2.7-2.2-4.9-4.9-4.9h-6.3c-0.8,0-1.5,0.7-1.5,1.5v6.8h-2v-1.3
		c0-0.9-0.4-1.7-1.1-2.2l-0.1-0.1l0.4-0.5c0.4-0.5,0.5-1.1,0.4-1.7l-1-4.1c-0.2-1-0.8-1.9-1.6-2.5L6.5-3.3c-0.8-0.6-1.8-1-2.9-1
		h-4.2c-0.6,0-1.2,0.3-1.6,0.8l-3.3,4.2C-5.9,1.2-6,1.8-5.9,2.4l1,4.1c0.2,1,0.8,1.9,1.6,2.5L0,11.6l-2.1,4.2h-1.2
		c-1.3,0-2.4,0.7-3,1.9l-2,4.2c-0.1,0.2-0.1,0.5,0,0.7s0.4,0.3,0.6,0.3h2.8V23c0,0.1,0,0.1,0,0.2c0,1.7,1.4,3.1,3.1,3.1
		s3.1-1.4,3.1-3.1c0-0.1,0-0.1,0-0.2v-0.1h1V23c0,0.1,0,0.1,0,0.2c0,1.7,1.4,3.1,3.1,3.1s3.1-1.4,3.1-3.1c0-0.1,0-0.1,0-0.2v-0.1h5
		V23c0.1,0.6,0.5,1,1.1,1h2.5c0.6,0,1.1-0.4,1.1-1v-0.1h4.1V23c0,0.1,0,0.1,0,0.2c0,1.7,1.4,3.1,3.1,3.1s3.1-1.4,3.1-3.1
		c0-0.1,0-0.1,0-0.2v-0.1h2.4C31.9,22.9,32.6,22.2,32.6,21.4 M24.4,8.4h3.3c2.2,0,4,1.8,4,4v1.2h-6.1c-0.6,0-1.2-0.5-1.2-1.2
		C24.4,12.4,24.4,8.4,24.4,8.4z M16.9,14.5v1.2h-3l2.2-2.7l0.1,0.1C16.6,13.4,16.9,14,16.9,14.5 M-3.8,7l-0.1-0.2
		C-4,6.6-4,6.4-4.1,6.3l-1-4.1c-0.1-0.3,0-0.7,0.2-0.9l3.3-4.2c0.2-0.3,0.5-0.4,0.9-0.4h4.2c0.2,0,0.4,0,0.6,0h0.2L-3.8,7z
		 M-2.8,8.3c-0.1-0.1-0.3-0.2-0.4-0.4l-0.1-0.1l0.1-0.1L5.2-3l0.1,0.1c0.2,0.1,0.3,0.2,0.5,0.3l8.5,6.7c0.1,0.1,0.3,0.2,0.4,0.4
		l0.1,0.1l-1.4,1.8c-0.2,0.2-0.1,0.5,0.1,0.7s0.6,0.1,0.8-0.1l1.3-1.6l0.1,0.2c0.1,0.2,0.1,0.4,0.2,0.5l1,4.1c0.1,0.3,0,0.7-0.2,0.9
		l-3.3,4.2c-0.2,0.3-0.5,0.4-0.9,0.4H8.3c-0.2,0-0.4,0-0.6,0H7.5l5.1-6.5c0.1-0.1,0.1-0.2,0.1-0.3c0-0.1-0.1-0.2-0.2-0.3
		c-0.2-0.2-0.5-0.1-0.7,0.1l-5.3,6.7l-0.1-0.1C6.1,15.2,6,15.1,5.8,15L-2.8,8.3z M0.6,12.2l4.6,3.6h-6.4L0.6,12.2z M-1.8,25.4
		c-1.2,0-2.2-1-2.2-2.2S-3,21-1.8,21s2.2,1,2.2,2.2S-0.6,25.4-1.8,25.4 M5.4,25.4c-1.2,0-2.2-1-2.2-2.2s1-2.2,2.2-2.2s2.2,1,2.2,2.2
		S6.6,25.4,5.4,25.4 M8.4,21.9L8.4,21.9C7.7,20.7,6.6,20,5.5,20c-1.2,0-2.3,0.7-2.8,1.8v0.1H1.2v-0.1C0.7,20.7-0.4,20-1.6,20
		s-2.3,0.7-2.8,1.8v0.1h-0.7l1.5-3.1c0.1-0.2,0.2-0.3,0.4-0.3H7.3c0.2,0,0.3,0.1,0.4,0.2l1.5,3.1L8.4,21.9L8.4,21.9z M10.4,21.9
		c-0.1,0-0.2-0.1-0.3-0.2l-1.7-3.3c-0.3-0.5-0.8-0.8-1.3-0.8H-3.4c-0.5,0-1,0.3-1.3,0.8l-1.6,3.3c0,0.1-0.1,0.2-0.3,0.2h-0.7h-0.1
		l1.9-3.9c0.4-0.8,1.2-1.3,2.1-1.3H7.1c0.9,0,1.7,0.5,2.1,1.3l2,3.9H10.4z M17.4,22.9c0,0.1-0.1,0.2-0.2,0.2h-2.5
		c-0.1,0-0.2-0.1-0.2-0.2V21c0-0.3-0.2-0.5-0.5-0.5s-0.5,0.2-0.5,0.5v1h-1.3v-0.1l-1.6-3.3h6.8V22.9z M10.1,17.7L10.1,17.7
		c-0.2-0.3-0.3-0.5-0.5-0.7l-0.2-0.2h10.4v1L10.1,17.7L10.1,17.7z M25.6,25.4c-1.2,0-2.2-1-2.2-2.2s1-2.2,2.2-2.2s2.2,1,2.2,2.2
		S26.9,25.4,25.6,25.4 M28.6,21.9L28.6,21.9C28,20.7,26.9,20,25.7,20s-2.3,0.7-2.8,1.8v0.1h-4.4v-3.3h1.6v0.1
		c0.2,0.5,0.8,0.9,1.3,0.9h4.9c1.4,0,2.6,0.9,2.9,2.2V22h-0.6V21.9z"/>
</g>
<g>
	<g>
		<polygon class="st4" points="16.1,21.1 14.6,20.2 14.8,19.1 14.9,18.8 13.2,18.4 13.1,18.9 13,19.2 12.6,21.1 		"/>
		<polygon class="st5" points="13,19.2 14.8,19.1 13.1,18.9 		"/>
		<path class="st6" d="M6.2,9.6c-1.1,1.5-0.8,4,1.1,4c1.5,0,5.9,0,5.9,0l-0.9,5.2l3.1,0.5c0,0,1-6.2,1.1-7.3
			c0.1-0.9-0.6-1.7-2.8-1.7C11.5,10.2,6.2,9.6,6.2,9.6z"/>
		<polygon class="st4" points="17.6,16.8 18,17.5 18.2,17.9 19,19.4 22.1,17.9 20.1,17.8 19.5,16.7 19.2,16.2 		"/>
		<polygon class="st5" points="18,17.5 18.2,17.9 19.5,16.7 		"/>
		<path class="st7" d="M8.3,4c-2.4-0.3-6.3,4-6.1,6.4l10-1.2C12.2,7.9,10.5,4.2,8.3,4z"/>
		<path class="st4" d="M2.1,10.4c0.2,1.6,3,0.9,6.8-1.3c1.5-0.9,1.3-0.7-0.1-0.8C7.3,8.2,1.8,8,2.1,10.4z"/>
		<path class="st8" d="M13.5,10.9l3.8,7l3-1.6c0,0-2.7-4.8-3.4-6.1c-0.7-1.3-1.6-1.3-3.4-0.8L10,10.2L13.5,10.9z"/>
		<polygon class="st9" points="14,6.3 8.7,6.5 7.8,10.9 13.9,9.6 		"/>
		<path class="st4" d="M7,10.1l0.8,0.9l0.3-1.4l0.2-1.3l0.3-1.8l-0.2,0L8.2,8.2L7.9,9.5l0,0.1l-0.2,0.9L7.2,10C7.1,10,7.1,10,7,10.1
			z"/>
		<path class="st10" d="M7.2,10l0.5,0.5l0.2-0.9C7.6,9.7,7.4,9.9,7.2,10z"/>
		<ellipse transform="matrix(0.9929 -0.1193 0.1193 0.9929 -0.8988 1.4299)" class="st4" cx="11.5" cy="8.2" rx="0.4" ry="0.3"/>
		<g>
			<path class="st4" d="M8.9,2.8C8.8,3.3,8.7,3.7,8.4,3.5C7.9,3.3,8.3,2.7,8.3,2.7L8.9,2.8z"/>
			<path class="st4" d="M8,4.1c0.1-0.3,0.3-0.8,0.3-0.8l0.3,0.3c0,0,0,0,0,0.1c0,0.1,0,0.2,0,0.3c0,0.1-0.1,0.3-0.1,0.4
				C8.4,4.5,7.8,4.4,8,4.1z"/>
			<path d="M8.8,2.8C8.7,3,8.5,3,8.4,3c-0.1-0.1-0.2,0-0.1,0.2c0,0.1-0.1,0.2-0.1,0.2C8,3.1,7.9,2.6,8.3,2.4C8.6,2.3,9.1,2.6,8.9,3
				C8.9,3,8.8,2.9,8.8,2.8z"/>
			<path class="st9" d="M8.3,2.5C8.6,2.2,8.6,2,8.4,1.8C8.3,1.7,7.9,1.8,7.9,2C7.8,2.2,8,2.4,8.3,2.5z"/>
		</g>
		<g>
			<defs>
				<path id="SVGID_1_" d="M13.5,10.9l3.8,7l3-1.6c0,0-2.7-4.8-3.4-6.1c-0.7-1.3-1.6-1.3-3.4-0.8L10,10.2L13.5,10.9z"/>
			</defs>
			<clipPath id="SVGID_2_">
				<use xlink:href="#SVGID_1_"  style="overflow:visible;"/>
			</clipPath>
		</g>
	</g>
	<path class="st11" d="M9.8,2.3c0-0.1,0-0.1-0.1-0.2c0,0,0.1-0.1,0-0.2c0-0.1-0.1-0.1-0.1-0.1c0-0.1,0-0.1,0-0.2
		c0-0.1-0.1-0.1-0.2-0.1c0-0.1,0-0.1-0.1-0.2c0,0-0.1-0.1-0.2-0.1c0-0.1,0-0.1-0.1-0.2c-0.1,0-0.1,0-0.2,0C9,1,8.9,1,8.8,1
		C8.8,1,8.7,1,8.7,1c0,0-0.1-0.1-0.2-0.1C8.4,0.9,8.4,1,8.3,1c0,0-0.1-0.1-0.2,0C8.1,1,8,1,8,1.1c-0.1,0-0.1,0-0.2,0
		c-0.1,0-0.1,0.1-0.1,0.2c-0.1,0-0.1,0-0.2,0.1c0,0-0.1,0.1-0.1,0.2c-0.1,0-0.1,0-0.2,0.1c0,0.1,0,0.1,0,0.2c-0.1,0-0.1,0.1-0.1,0.1
		c0,0.1,0,0.1,0,0.2c0,0-0.1,0.1-0.1,0.2s0,0.1,0.1,0.2c0,0-0.1,0.1,0,0.2c0,0.1,0.1,0.1,0.1,0.1c0,0.1,0,0.1,0,0.2
		C7.4,3,7.4,3,7.5,3c0,0.1,0,0.1,0.1,0.2c0,0,0.1,0.1,0.2,0.1c0,0.1,0,0.1,0.1,0.2c0.1,0,0.1,0,0.2,0c0,0.1,0.1,0.1,0.1,0.1
		c0.1,0,0.1,0,0.2,0c0,0,0,0,0,0C8.2,3.4,8.2,3.2,8.1,3.1c0,0,0-0.1,0-0.1c0-0.1,0-0.3,0.1-0.3c0-0.1,0.1-0.1,0.1-0.1
		c0.1,0,0.2,0,0.2,0s0.1,0,0.2,0c0.1,0,0.1,0.1,0.1,0.1c0,0.1,0,0.2,0,0.3c0,0,0,0.1,0,0.1c0,0.1-0.1,0.4-0.3,0.5c0,0,0.1,0,0.1,0
		c0.1,0,0.1,0.1,0.2,0C8.9,3.5,9,3.5,9,3.4c0.1,0,0.1,0,0.2,0c0.1,0,0.1-0.1,0.1-0.2c0.1,0,0.1,0,0.2-0.1c0,0,0.1-0.1,0.1-0.2
		c0.1,0,0.1,0,0.2-0.1c0-0.1,0-0.1,0-0.2c0.1,0,0.1-0.1,0.1-0.1c0-0.1,0-0.1,0-0.2C9.8,2.4,9.8,2.3,9.8,2.3z"/>
</g>
</svg>
